<svg xmlns="http://www.w3.org/2000/svg" xmlns:xlink="http://www.w3.org/1999/xlink" width="500" zoomAndPan="magnify" viewBox="0 0 375 374.999991" height="500" preserveAspectRatio="xMidYMid meet" version="1.0"><defs><g/><clipPath id="09cf8bb94e"><path d="M 0 1.320312 L 177.949219 1.320312 L 177.949219 179.265625 L 0 179.265625 Z M 0 1.320312 " clip-rule="nonzero"/></clipPath><clipPath id="8a850fc035"><rect x="0" width="341" y="0" height="229"/></clipPath></defs><g transform="matrix(1, 0, 0, 1, 0, 78)"><g clip-path="url(#8a850fc035)"><g clip-path="url(#09cf8bb94e)"><path fill="#b6192e" d="M 91.214844 48.964844 C 91.351562 50.207031 91.539062 51.441406 91.777344 52.667969 C 92.019531 53.894531 92.308594 55.109375 92.652344 56.308594 C 92.996094 57.511719 93.386719 58.695312 93.832031 59.863281 C 94.273438 61.03125 94.765625 62.179688 95.304688 63.308594 C 95.847656 64.433594 96.433594 65.535156 97.066406 66.613281 C 97.699219 67.691406 98.378906 68.738281 99.101562 69.757812 C 99.824219 70.777344 100.585938 71.765625 101.390625 72.71875 C 102.199219 73.675781 103.042969 74.59375 103.925781 75.476562 C 104.808594 76.363281 105.730469 77.207031 106.683594 78.011719 C 107.640625 78.816406 108.625 79.582031 109.644531 80.304688 C 110.664062 81.027344 111.714844 81.703125 112.792969 82.335938 C 113.867188 82.96875 114.96875 83.558594 116.097656 84.097656 C 117.222656 84.636719 118.371094 85.128906 119.539062 85.574219 C 120.707031 86.015625 121.894531 86.410156 123.09375 86.75 C 124.296875 87.09375 125.511719 87.386719 126.734375 87.625 C 127.960938 87.867188 129.195312 88.054688 130.4375 88.1875 C 142.480469 89.507812 158.019531 90.359375 178.085938 90.359375 C 158.019531 90.359375 142.480469 91.214844 130.4375 92.535156 C 129.195312 92.667969 127.960938 92.855469 126.734375 93.097656 C 125.511719 93.335938 124.296875 93.628906 123.09375 93.972656 C 121.894531 94.3125 120.707031 94.707031 119.539062 95.148438 C 118.371094 95.59375 117.222656 96.085938 116.097656 96.625 C 114.96875 97.164062 113.867188 97.75 112.792969 98.386719 C 111.714844 99.019531 110.664062 99.695312 109.644531 100.417969 C 108.625 101.140625 107.640625 101.90625 106.683594 102.710938 C 105.730469 103.515625 104.808594 104.359375 103.925781 105.246094 C 103.042969 106.128906 102.199219 107.046875 101.390625 108.003906 C 100.585938 108.957031 99.824219 109.945312 99.101562 110.964844 C 98.378906 111.984375 97.699219 113.03125 97.066406 114.109375 C 96.433594 115.1875 95.847656 116.289062 95.304688 117.414062 C 94.765625 118.542969 94.273438 119.691406 93.832031 120.859375 C 93.386719 122.027344 92.996094 123.210938 92.652344 124.414062 C 92.308594 125.613281 92.019531 126.828125 91.777344 128.054688 C 91.539062 129.28125 91.351562 130.515625 91.214844 131.757812 C 89.894531 143.796875 89.042969 159.339844 89.042969 179.402344 C 89.042969 159.339844 88.191406 143.796875 86.871094 131.757812 C 86.734375 130.515625 86.546875 129.28125 86.308594 128.054688 C 86.066406 126.828125 85.777344 125.613281 85.433594 124.414062 C 85.089844 123.210938 84.699219 122.027344 84.253906 120.859375 C 83.8125 119.691406 83.320312 118.542969 82.777344 117.414062 C 82.238281 116.289062 81.652344 115.1875 81.019531 114.109375 C 80.386719 113.03125 79.707031 111.984375 78.984375 110.964844 C 78.261719 109.945312 77.5 108.957031 76.691406 108.003906 C 75.886719 107.046875 75.042969 106.128906 74.160156 105.246094 C 73.277344 104.359375 72.355469 103.515625 71.402344 102.710938 C 70.445312 101.90625 69.457031 101.140625 68.4375 100.417969 C 67.417969 99.695312 66.371094 99.019531 65.292969 98.386719 C 64.21875 97.75 63.113281 97.164062 61.988281 96.625 C 60.863281 96.085938 59.714844 95.59375 58.546875 95.148438 C 57.378906 94.707031 56.191406 94.3125 54.992188 93.972656 C 53.789062 93.628906 52.574219 93.335938 51.347656 93.097656 C 50.121094 92.855469 48.886719 92.667969 47.644531 92.535156 C 35.605469 91.214844 20.0625 90.359375 0 90.359375 C 20.0625 90.359375 35.605469 89.507812 47.644531 88.1875 C 48.886719 88.054688 50.121094 87.867188 51.347656 87.625 C 52.574219 87.386719 53.789062 87.09375 54.992188 86.75 C 56.191406 86.410156 57.378906 86.015625 58.546875 85.574219 C 59.714844 85.128906 60.863281 84.636719 61.988281 84.097656 C 63.113281 83.558594 64.21875 82.96875 65.292969 82.335938 C 66.371094 81.703125 67.417969 81.027344 68.4375 80.304688 C 69.457031 79.582031 70.445312 78.816406 71.402344 78.011719 C 72.355469 77.207031 73.277344 76.359375 74.160156 75.476562 C 75.042969 74.59375 75.886719 73.675781 76.691406 72.71875 C 77.5 71.765625 78.261719 70.777344 78.984375 69.757812 C 79.707031 68.738281 80.386719 67.691406 81.019531 66.613281 C 81.652344 65.535156 82.238281 64.433594 82.777344 63.308594 C 83.320312 62.179688 83.8125 61.03125 84.253906 59.863281 C 84.695312 58.695312 85.089844 57.511719 85.433594 56.308594 C 85.777344 55.109375 86.066406 53.894531 86.308594 52.667969 C 86.546875 51.441406 86.734375 50.207031 86.871094 48.964844 C 88.191406 36.925781 89.042969 21.382812 89.042969 1.320312 C 89.042969 21.382812 89.894531 36.925781 91.214844 48.964844 Z M 91.214844 48.964844 " fill-opacity="1" fill-rule="nonzero"/></g><g fill="#b6192e" fill-opacity="1"><g transform="translate(93.914221, 200.938738)"><g><path d="M 35 1.234375 C 28.664062 1.234375 23.203125 -0.0703125 18.609375 -2.6875 C 14.023438 -5.3125 10.488281 -9.019531 8 -13.8125 C 5.507812 -18.601562 4.265625 -24.238281 4.265625 -30.71875 C 4.265625 -37.125 5.5 -42.734375 7.96875 -47.546875 C 10.445312 -52.359375 13.929688 -56.117188 18.421875 -58.828125 C 22.910156 -61.546875 28.171875 -62.90625 34.203125 -62.90625 C 38.359375 -62.90625 42.210938 -62.226562 45.765625 -60.875 C 49.328125 -59.53125 52.445312 -57.535156 55.125 -54.890625 C 57.800781 -52.253906 59.878906 -48.960938 61.359375 -45.015625 C 62.835938 -41.066406 63.578125 -36.507812 63.578125 -31.34375 L 63.578125 -26.671875 L 10.953125 -26.671875 L 10.953125 -37.234375 L 55.4375 -37.234375 L 47.625 -34.484375 C 47.625 -37.703125 47.117188 -40.488281 46.109375 -42.84375 C 45.097656 -45.207031 43.609375 -47.035156 41.640625 -48.328125 C 39.679688 -49.617188 37.257812 -50.265625 34.375 -50.265625 C 31.488281 -50.265625 29.035156 -49.609375 27.015625 -48.296875 C 24.992188 -46.992188 23.445312 -45.195312 22.375 -42.90625 C 21.3125 -40.625 20.78125 -38.003906 20.78125 -35.046875 L 20.78125 -27.640625 C 20.78125 -24.148438 21.378906 -21.1875 22.578125 -18.75 C 23.773438 -16.320312 25.46875 -14.476562 27.65625 -13.21875 C 29.851562 -11.96875 32.410156 -11.34375 35.328125 -11.34375 C 37.316406 -11.34375 39.125 -11.632812 40.75 -12.21875 C 42.375 -12.800781 43.757812 -13.644531 44.90625 -14.75 C 46.050781 -15.851562 46.921875 -17.207031 47.515625 -18.8125 L 62.734375 -16.625 C 61.765625 -13.03125 60.015625 -9.894531 57.484375 -7.21875 C 54.960938 -4.539062 51.800781 -2.460938 48 -0.984375 C 44.195312 0.492188 39.863281 1.234375 35 1.234375 Z M 35 1.234375 "/></g></g></g><g fill="#b6192e" fill-opacity="1"><g transform="translate(161.540732, 200.938738)"><g><path d="M 29.875 1.0625 C 24.96875 1.0625 20.585938 -0.1875 16.734375 -2.6875 C 12.878906 -5.195312 9.835938 -8.828125 7.609375 -13.578125 C 5.378906 -18.335938 4.265625 -24.128906 4.265625 -30.953125 C 4.265625 -37.878906 5.40625 -43.707031 7.6875 -48.4375 C 9.976562 -53.175781 13.050781 -56.769531 16.90625 -59.21875 C 20.757812 -61.675781 25.046875 -62.90625 29.765625 -62.90625 C 33.097656 -62.90625 35.925781 -62.363281 38.25 -61.28125 C 40.570312 -60.195312 42.488281 -58.820312 44 -57.15625 C 45.519531 -55.488281 46.710938 -53.753906 47.578125 -51.953125 L 48.015625 -51.953125 L 48.015625 -83.6875 L 64.765625 -83.6875 L 64.765625 0 L 48.25 0 L 48.25 -9.828125 L 47.625 -9.828125 C 46.769531 -8.035156 45.5625 -6.304688 44 -4.640625 C 42.445312 -2.972656 40.519531 -1.601562 38.21875 -0.53125 C 35.914062 0.53125 33.132812 1.0625 29.875 1.0625 Z M 34.828125 -12.40625 C 37.710938 -12.40625 40.164062 -13.179688 42.1875 -14.734375 C 44.207031 -16.296875 45.757812 -18.460938 46.84375 -21.234375 C 47.925781 -24.003906 48.46875 -27.257812 48.46875 -31 C 48.46875 -34.75 47.929688 -38 46.859375 -40.75 C 45.796875 -43.5 44.242188 -45.628906 42.203125 -47.140625 C 40.171875 -48.660156 37.710938 -49.421875 34.828125 -49.421875 C 31.984375 -49.421875 29.554688 -48.65625 27.546875 -47.125 C 25.546875 -45.59375 24.03125 -43.441406 23 -40.671875 C 21.96875 -37.898438 21.453125 -34.675781 21.453125 -31 C 21.453125 -27.289062 21.96875 -24.039062 23 -21.25 C 24.03125 -18.46875 25.546875 -16.296875 27.546875 -14.734375 C 29.554688 -13.179688 31.984375 -12.40625 34.828125 -12.40625 Z M 34.828125 -12.40625 "/></g></g></g><g fill="#b6192e" fill-opacity="1"><g transform="translate(233.211353, 200.938738)"><g><path d="M 28.3125 0.90625 C 24 0.90625 20.234375 -0.03125 17.015625 -1.90625 C 13.796875 -3.78125 11.304688 -6.484375 9.546875 -10.015625 C 7.785156 -13.554688 6.90625 -17.78125 6.90625 -22.6875 L 6.90625 -62.015625 L 23.640625 -62.015625 L 23.640625 -25.671875 C 23.640625 -21.734375 24.640625 -18.675781 26.640625 -16.5 C 28.648438 -14.332031 31.414062 -13.25 34.9375 -13.25 C 37.289062 -13.25 39.375 -13.753906 41.1875 -14.765625 C 43.007812 -15.773438 44.4375 -17.265625 45.46875 -19.234375 C 46.5 -21.203125 47.015625 -23.59375 47.015625 -26.40625 L 47.015625 -62.015625 L 63.8125 -62.015625 L 63.8125 0 L 47.796875 0 L 47.578125 -15.609375 L 48.984375 -15.609375 C 47.253906 -10.367188 44.695312 -6.304688 41.3125 -3.421875 C 37.925781 -0.535156 33.59375 0.90625 28.3125 0.90625 Z M 28.3125 0.90625 "/></g></g></g><g fill="#b6192e" fill-opacity="1"><g transform="translate(303.870948, 200.938738)"><g><path d="M 18.09375 1.0625 C 15.351562 1.0625 13.046875 0.132812 11.171875 -1.71875 C 9.304688 -3.570312 8.375 -5.863281 8.375 -8.59375 C 8.375 -11.289062 9.304688 -13.566406 11.171875 -15.421875 C 13.046875 -17.273438 15.351562 -18.203125 18.09375 -18.203125 C 20.78125 -18.203125 23.0625 -17.273438 24.9375 -15.421875 C 26.8125 -13.566406 27.75 -11.289062 27.75 -8.59375 C 27.75 -5.863281 26.8125 -3.570312 24.9375 -1.71875 C 23.0625 0.132812 20.78125 1.0625 18.09375 1.0625 Z M 18.09375 1.0625 "/></g></g></g></g></g></svg>