<svg xmlns="http://www.w3.org/2000/svg" xmlns:xlink="http://www.w3.org/1999/xlink" width="500" zoomAndPan="magnify" viewBox="0 0 375 374.999991" height="500" preserveAspectRatio="xMidYMid meet" version="1.0"><defs><filter x="0%" y="0%" width="100%" height="100%" id="ad22d89777"><feColorMatrix values="0 0 0 0 1 0 0 0 0 1 0 0 0 0 1 0 0 0 1 0" color-interpolation-filters="sRGB"/></filter><g/><clipPath id="ac73c45d19"><path d="M 148.042969 5.5625 L 189.53125 5.5625 L 189.53125 47 L 148.042969 47 Z M 148.042969 5.5625 " clip-rule="nonzero"/></clipPath><clipPath id="4f515d84d2"><path d="M 200 0.28125 L 346 0.28125 L 346 125.800781 L 200 125.800781 Z M 200 0.28125 " clip-rule="nonzero"/></clipPath><clipPath id="d451e39c88"><path d="M 1.070312 1.117188 L 146 1.117188 L 146 124.867188 L 1.070312 124.867188 Z M 1.070312 1.117188 " clip-rule="nonzero"/></clipPath><clipPath id="0e0911d9f3"><path d="M 0.0703125 0.117188 L 145 0.117188 L 145 123.867188 L 0.0703125 123.867188 Z M 0.0703125 0.117188 " clip-rule="nonzero"/></clipPath><clipPath id="555591d330"><path d="M 8.320312 0.117188 L 145 0.117188 L 145 123.867188 L 8.320312 123.867188 Z M 8.320312 0.117188 " clip-rule="nonzero"/></clipPath><linearGradient x1="-50.421001" gradientTransform="matrix(0.749334, 0, 0, 0.745844, 46.103376, 45.962919)" y1="21.5" x2="131.979345" gradientUnits="userSpaceOnUse" y2="21.5" id="3e58c21c5d"><stop stop-opacity="1" stop-color="rgb(71.369934%, 16.079712%, 18.03894%)" offset="0"/><stop stop-opacity="1" stop-color="rgb(71.369934%, 16.079712%, 18.03894%)" offset="0.25"/><stop stop-opacity="1" stop-color="rgb(71.369934%, 16.079712%, 18.03894%)" offset="0.3125"/><stop stop-opacity="1" stop-color="rgb(71.369934%, 16.079712%, 18.03894%)" offset="0.328125"/><stop stop-opacity="1" stop-color="rgb(71.369934%, 16.079712%, 18.03894%)" offset="0.335938"/><stop stop-opacity="1" stop-color="rgb(70.405579%, 15.797424%, 18.113708%)" offset="0.339844"/><stop stop-opacity="1" stop-color="rgb(69.442749%, 15.515137%, 18.190002%)" offset="0.34375"/><stop stop-opacity="1" stop-color="rgb(68.328857%, 15.188599%, 18.276978%)" offset="0.347656"/><stop stop-opacity="1" stop-color="rgb(67.214966%, 14.862061%, 18.365479%)" offset="0.351562"/><stop stop-opacity="1" stop-color="rgb(66.101074%, 14.535522%, 18.452454%)" offset="0.355469"/><stop stop-opacity="1" stop-color="rgb(64.987183%, 14.21051%, 18.540955%)" offset="0.359375"/><stop stop-opacity="1" stop-color="rgb(63.873291%, 13.883972%, 18.62793%)" offset="0.363281"/><stop stop-opacity="1" stop-color="rgb(62.759399%, 13.557434%, 18.714905%)" offset="0.367188"/><stop stop-opacity="1" stop-color="rgb(61.645508%, 13.230896%, 18.80188%)" offset="0.371094"/><stop stop-opacity="1" stop-color="rgb(60.531616%, 12.904358%, 18.890381%)" offset="0.375"/><stop stop-opacity="1" stop-color="rgb(59.417725%, 12.57782%, 18.977356%)" offset="0.378906"/><stop stop-opacity="1" stop-color="rgb(58.303833%, 12.252808%, 19.064331%)" offset="0.382812"/><stop stop-opacity="1" stop-color="rgb(57.189941%, 11.92627%, 19.151306%)" offset="0.386719"/><stop stop-opacity="1" stop-color="rgb(56.07605%, 11.599731%, 19.239807%)" offset="0.390625"/><stop stop-opacity="1" stop-color="rgb(54.962158%, 11.273193%, 19.326782%)" offset="0.394531"/><stop stop-opacity="1" stop-color="rgb(53.848267%, 10.948181%, 19.415283%)" offset="0.398438"/><stop stop-opacity="1" stop-color="rgb(52.734375%, 10.621643%, 19.502258%)" offset="0.402344"/><stop stop-opacity="1" stop-color="rgb(51.620483%, 10.295105%, 19.589233%)" offset="0.40625"/><stop stop-opacity="1" stop-color="rgb(50.506592%, 9.968567%, 19.676208%)" offset="0.410156"/><stop stop-opacity="1" stop-color="rgb(49.3927%, 9.642029%, 19.764709%)" offset="0.414063"/><stop stop-opacity="1" stop-color="rgb(48.278809%, 9.315491%, 19.851685%)" offset="0.417969"/><stop stop-opacity="1" stop-color="rgb(47.164917%, 8.990479%, 19.93866%)" offset="0.421875"/><stop stop-opacity="1" stop-color="rgb(46.051025%, 8.66394%, 20.025635%)" offset="0.425781"/><stop stop-opacity="1" stop-color="rgb(44.937134%, 8.337402%, 20.114136%)" offset="0.429688"/><stop stop-opacity="1" stop-color="rgb(43.823242%, 8.010864%, 20.201111%)" offset="0.433594"/><stop stop-opacity="1" stop-color="rgb(42.709351%, 7.684326%, 20.289612%)" offset="0.4375"/><stop stop-opacity="1" stop-color="rgb(41.595459%, 7.357788%, 20.376587%)" offset="0.441406"/><stop stop-opacity="1" stop-color="rgb(40.481567%, 7.032776%, 20.463562%)" offset="0.445312"/><stop stop-opacity="1" stop-color="rgb(39.367676%, 6.706238%, 20.550537%)" offset="0.449219"/><stop stop-opacity="1" stop-color="rgb(38.253784%, 6.3797%, 20.639038%)" offset="0.453125"/><stop stop-opacity="1" stop-color="rgb(37.139893%, 6.053162%, 20.726013%)" offset="0.457031"/><stop stop-opacity="1" stop-color="rgb(36.026001%, 5.728149%, 20.814514%)" offset="0.460938"/><stop stop-opacity="1" stop-color="rgb(34.912109%, 5.401611%, 20.901489%)" offset="0.464844"/><stop stop-opacity="1" stop-color="rgb(33.798218%, 5.075073%, 20.988464%)" offset="0.46875"/><stop stop-opacity="1" stop-color="rgb(32.684326%, 4.748535%, 21.075439%)" offset="0.472656"/><stop stop-opacity="1" stop-color="rgb(31.570435%, 4.421997%, 21.16394%)" offset="0.476562"/><stop stop-opacity="1" stop-color="rgb(30.456543%, 4.095459%, 21.250916%)" offset="0.480469"/><stop stop-opacity="1" stop-color="rgb(29.342651%, 3.770447%, 21.337891%)" offset="0.484375"/><stop stop-opacity="1" stop-color="rgb(28.22876%, 3.443909%, 21.424866%)" offset="0.488281"/><stop stop-opacity="1" stop-color="rgb(27.114868%, 3.117371%, 21.513367%)" offset="0.492188"/><stop stop-opacity="1" stop-color="rgb(26.000977%, 2.790833%, 21.600342%)" offset="0.496094"/><stop stop-opacity="1" stop-color="rgb(24.887085%, 2.464294%, 21.688843%)" offset="0.5"/><stop stop-opacity="1" stop-color="rgb(23.773193%, 2.137756%, 21.775818%)" offset="0.503906"/><stop stop-opacity="1" stop-color="rgb(22.659302%, 1.812744%, 21.862793%)" offset="0.507812"/><stop stop-opacity="1" stop-color="rgb(21.54541%, 1.486206%, 21.949768%)" offset="0.511719"/><stop stop-opacity="1" stop-color="rgb(20.431519%, 1.159668%, 22.038269%)" offset="0.515625"/><stop stop-opacity="1" stop-color="rgb(19.317627%, 0.83313%, 22.125244%)" offset="0.519531"/><stop stop-opacity="1" stop-color="rgb(18.203735%, 0.508118%, 22.213745%)" offset="0.523438"/><stop stop-opacity="1" stop-color="rgb(17.279053%, 0.318909%, 22.293091%)" offset="0.527344"/><stop stop-opacity="1" stop-color="rgb(16.355896%, 0.1297%, 22.373962%)" offset="0.53125"/><stop stop-opacity="1" stop-color="rgb(16.101074%, 0.424194%, 22.428894%)" offset="0.535156"/><stop stop-opacity="1" stop-color="rgb(15.847778%, 0.718689%, 22.485352%)" offset="0.539062"/><stop stop-opacity="1" stop-color="rgb(15.592957%, 1.013184%, 22.540283%)" offset="0.542969"/><stop stop-opacity="1" stop-color="rgb(15.338135%, 1.307678%, 22.596741%)" offset="0.546875"/><stop stop-opacity="1" stop-color="rgb(15.083313%, 1.600647%, 22.651672%)" offset="0.550781"/><stop stop-opacity="1" stop-color="rgb(14.828491%, 1.895142%, 22.70813%)" offset="0.554688"/><stop stop-opacity="1" stop-color="rgb(14.573669%, 2.189636%, 22.764587%)" offset="0.558594"/><stop stop-opacity="1" stop-color="rgb(14.318848%, 2.484131%, 22.821045%)" offset="0.5625"/><stop stop-opacity="1" stop-color="rgb(14.064026%, 2.778625%, 22.875977%)" offset="0.566406"/><stop stop-opacity="1" stop-color="rgb(13.81073%, 3.07312%, 22.932434%)" offset="0.570312"/><stop stop-opacity="1" stop-color="rgb(13.555908%, 3.367615%, 22.987366%)" offset="0.574219"/><stop stop-opacity="1" stop-color="rgb(13.301086%, 3.662109%, 23.043823%)" offset="0.578125"/><stop stop-opacity="1" stop-color="rgb(13.046265%, 3.956604%, 23.098755%)" offset="0.582031"/><stop stop-opacity="1" stop-color="rgb(12.791443%, 4.251099%, 23.155212%)" offset="0.585938"/><stop stop-opacity="1" stop-color="rgb(12.536621%, 4.545593%, 23.210144%)" offset="0.589844"/><stop stop-opacity="1" stop-color="rgb(12.281799%, 4.840088%, 23.266602%)" offset="0.59375"/><stop stop-opacity="1" stop-color="rgb(12.026978%, 5.134583%, 23.321533%)" offset="0.597656"/><stop stop-opacity="1" stop-color="rgb(11.773682%, 5.429077%, 23.377991%)" offset="0.601562"/><stop stop-opacity="1" stop-color="rgb(11.51886%, 5.723572%, 23.432922%)" offset="0.605469"/><stop stop-opacity="1" stop-color="rgb(11.264038%, 6.018066%, 23.48938%)" offset="0.609375"/><stop stop-opacity="1" stop-color="rgb(11.009216%, 6.311035%, 23.544312%)" offset="0.613281"/><stop stop-opacity="1" stop-color="rgb(10.754395%, 6.60553%, 23.600769%)" offset="0.617188"/><stop stop-opacity="1" stop-color="rgb(10.499573%, 6.900024%, 23.657227%)" offset="0.621094"/><stop stop-opacity="1" stop-color="rgb(10.244751%, 7.194519%, 23.713684%)" offset="0.625"/><stop stop-opacity="1" stop-color="rgb(9.989929%, 7.489014%, 23.768616%)" offset="0.628906"/><stop stop-opacity="1" stop-color="rgb(9.736633%, 7.783508%, 23.825073%)" offset="0.632812"/><stop stop-opacity="1" stop-color="rgb(9.481812%, 8.078003%, 23.880005%)" offset="0.636719"/><stop stop-opacity="1" stop-color="rgb(9.22699%, 8.372498%, 23.936462%)" offset="0.640625"/><stop stop-opacity="1" stop-color="rgb(8.972168%, 8.666992%, 23.991394%)" offset="0.644531"/><stop stop-opacity="1" stop-color="rgb(8.717346%, 8.961487%, 24.047852%)" offset="0.648438"/><stop stop-opacity="1" stop-color="rgb(8.462524%, 9.255981%, 24.102783%)" offset="0.652344"/><stop stop-opacity="1" stop-color="rgb(8.207703%, 9.550476%, 24.159241%)" offset="0.65625"/><stop stop-opacity="1" stop-color="rgb(7.952881%, 9.844971%, 24.214172%)" offset="0.660156"/><stop stop-opacity="1" stop-color="rgb(7.699585%, 10.139465%, 24.27063%)" offset="0.664062"/><stop stop-opacity="1" stop-color="rgb(7.444763%, 10.43396%, 24.325562%)" offset="0.667969"/><stop stop-opacity="1" stop-color="rgb(7.189941%, 10.728455%, 24.382019%)" offset="0.671875"/><stop stop-opacity="1" stop-color="rgb(6.93512%, 11.021423%, 24.436951%)" offset="0.675781"/><stop stop-opacity="1" stop-color="rgb(6.680298%, 11.315918%, 24.493408%)" offset="0.679688"/><stop stop-opacity="1" stop-color="rgb(6.425476%, 11.610413%, 24.549866%)" offset="0.683594"/><stop stop-opacity="1" stop-color="rgb(6.170654%, 11.904907%, 24.606323%)" offset="0.6875"/><stop stop-opacity="1" stop-color="rgb(5.915833%, 12.199402%, 24.661255%)" offset="0.691406"/><stop stop-opacity="1" stop-color="rgb(5.662537%, 12.493896%, 24.717712%)" offset="0.695312"/><stop stop-opacity="1" stop-color="rgb(5.407715%, 12.788391%, 24.772644%)" offset="0.699219"/><stop stop-opacity="1" stop-color="rgb(5.152893%, 13.082886%, 24.829102%)" offset="0.703125"/><stop stop-opacity="1" stop-color="rgb(4.898071%, 13.37738%, 24.884033%)" offset="0.707031"/><stop stop-opacity="1" stop-color="rgb(4.64325%, 13.671875%, 24.940491%)" offset="0.710938"/><stop stop-opacity="1" stop-color="rgb(4.388428%, 13.96637%, 24.995422%)" offset="0.714844"/><stop stop-opacity="1" stop-color="rgb(4.133606%, 14.260864%, 25.05188%)" offset="0.71875"/><stop stop-opacity="1" stop-color="rgb(4.026794%, 14.38446%, 25.074768%)" offset="0.75"/><stop stop-opacity="1" stop-color="rgb(3.919983%, 14.509583%, 25.099182%)" offset="1"/></linearGradient><clipPath id="463943c13c"><rect x="0" width="145" y="0" height="124"/></clipPath><clipPath id="a46016b00c"><path d="M 0.0703125 0.117188 L 145 0.117188 L 145 123.867188 L 0.0703125 123.867188 Z M 0.0703125 0.117188 " clip-rule="nonzero"/></clipPath><clipPath id="39e9a822e4"><rect x="0" width="145" y="0" height="124"/></clipPath><clipPath id="4a11406de2"><rect x="0" width="145" y="0" height="124"/></clipPath><mask id="04b2b94523"><g filter="url(#ad22d89777)"><g><g clip-path="url(#4a11406de2)"><g clip-path="url(#a46016b00c)"><g><g clip-path="url(#39e9a822e4)"><g fill="#000000" fill-opacity="1"><g transform="translate(54.105788, 69.867364)"><g><path d="M 0.640625 -6.4375 C 0.640625 -7.769531 0.910156 -8.9375 1.453125 -9.9375 C 2.003906 -10.9375 2.765625 -11.703125 3.734375 -12.234375 C 4.710938 -12.773438 5.832031 -13.046875 7.09375 -13.046875 C 8.707031 -13.046875 10.054688 -12.625 11.140625 -11.78125 C 12.222656 -10.9375 12.9375 -9.742188 13.28125 -8.203125 L 9.078125 -8.203125 C 8.722656 -9.191406 8.039062 -9.6875 7.03125 -9.6875 C 6.3125 -9.6875 5.734375 -9.40625 5.296875 -8.84375 C 4.867188 -8.28125 4.65625 -7.476562 4.65625 -6.4375 C 4.65625 -5.382812 4.867188 -4.578125 5.296875 -4.015625 C 5.734375 -3.460938 6.3125 -3.1875 7.03125 -3.1875 C 8.039062 -3.1875 8.722656 -3.675781 9.078125 -4.65625 L 13.28125 -4.65625 C 12.9375 -3.144531 12.21875 -1.957031 11.125 -1.09375 C 10.039062 -0.238281 8.695312 0.1875 7.09375 0.1875 C 5.832031 0.1875 4.710938 -0.078125 3.734375 -0.609375 C 2.765625 -1.148438 2.003906 -1.921875 1.453125 -2.921875 C 0.910156 -3.921875 0.640625 -5.09375 0.640625 -6.4375 Z M 0.640625 -6.4375 "/></g></g></g><g fill="#000000" fill-opacity="1"><g transform="translate(68.044439, 69.867364)"><g><path d="M 7.28125 0.1875 C 6.019531 0.1875 4.882812 -0.078125 3.875 -0.609375 C 2.875 -1.148438 2.082031 -1.921875 1.5 -2.921875 C 0.925781 -3.921875 0.640625 -5.09375 0.640625 -6.4375 C 0.640625 -7.75 0.929688 -8.910156 1.515625 -9.921875 C 2.097656 -10.929688 2.894531 -11.703125 3.90625 -12.234375 C 4.925781 -12.773438 6.066406 -13.046875 7.328125 -13.046875 C 8.585938 -13.046875 9.722656 -12.773438 10.734375 -12.234375 C 11.753906 -11.703125 12.554688 -10.929688 13.140625 -9.921875 C 13.722656 -8.910156 14.015625 -7.75 14.015625 -6.4375 C 14.015625 -5.113281 13.71875 -3.945312 13.125 -2.9375 C 12.53125 -1.925781 11.722656 -1.148438 10.703125 -0.609375 C 9.679688 -0.078125 8.539062 0.1875 7.28125 0.1875 Z M 7.28125 -3.234375 C 8.03125 -3.234375 8.671875 -3.507812 9.203125 -4.0625 C 9.734375 -4.613281 10 -5.40625 10 -6.4375 C 10 -7.457031 9.738281 -8.242188 9.21875 -8.796875 C 8.707031 -9.359375 8.078125 -9.640625 7.328125 -9.640625 C 6.554688 -9.640625 5.914062 -9.363281 5.40625 -8.8125 C 4.90625 -8.269531 4.65625 -7.476562 4.65625 -6.4375 C 4.65625 -5.40625 4.90625 -4.613281 5.40625 -4.0625 C 5.90625 -3.507812 6.53125 -3.234375 7.28125 -3.234375 Z M 7.28125 -3.234375 "/></g></g></g><g fill="#000000" fill-opacity="1"><g transform="translate(82.720341, 69.867364)"><g><path d="M 5.375 -10.71875 C 5.832031 -11.425781 6.40625 -11.984375 7.09375 -12.390625 C 7.789062 -12.796875 8.5625 -13 9.40625 -13 L 9.40625 -8.828125 L 8.3125 -8.828125 C 7.332031 -8.828125 6.597656 -8.613281 6.109375 -8.1875 C 5.617188 -7.769531 5.375 -7.03125 5.375 -5.96875 L 5.375 0 L 1.421875 0 L 1.421875 -12.859375 L 5.375 -12.859375 Z M 5.375 -10.71875 "/></g></g></g><g fill="#000000" fill-opacity="1"><g transform="translate(92.581073, 69.867364)"><g><path d="M 13.546875 -6.640625 C 13.546875 -6.265625 13.523438 -5.878906 13.484375 -5.484375 L 4.5625 -5.484375 C 4.625 -4.679688 4.878906 -4.066406 5.328125 -3.640625 C 5.785156 -3.222656 6.34375 -3.015625 7 -3.015625 C 7.988281 -3.015625 8.675781 -3.429688 9.0625 -4.265625 L 13.25 -4.265625 C 13.03125 -3.421875 12.640625 -2.660156 12.078125 -1.984375 C 11.523438 -1.304688 10.828125 -0.773438 9.984375 -0.390625 C 9.140625 -0.00390625 8.191406 0.1875 7.140625 0.1875 C 5.878906 0.1875 4.757812 -0.078125 3.78125 -0.609375 C 2.800781 -1.148438 2.03125 -1.921875 1.46875 -2.921875 C 0.914062 -3.921875 0.640625 -5.09375 0.640625 -6.4375 C 0.640625 -7.769531 0.910156 -8.9375 1.453125 -9.9375 C 2.003906 -10.9375 2.769531 -11.703125 3.75 -12.234375 C 4.738281 -12.773438 5.867188 -13.046875 7.140625 -13.046875 C 8.390625 -13.046875 9.5 -12.785156 10.46875 -12.265625 C 11.4375 -11.742188 12.191406 -11 12.734375 -10.03125 C 13.273438 -9.0625 13.546875 -7.929688 13.546875 -6.640625 Z M 9.515625 -7.671875 C 9.515625 -8.347656 9.285156 -8.882812 8.828125 -9.28125 C 8.367188 -9.6875 7.789062 -9.890625 7.09375 -9.890625 C 6.4375 -9.890625 5.878906 -9.695312 5.421875 -9.3125 C 4.972656 -8.925781 4.695312 -8.378906 4.59375 -7.671875 Z M 9.515625 -7.671875 "/></g></g></g></g></g></g></g></g></g></mask><clipPath id="4f2ae56ff9"><path d="M 8.320312 0.117188 L 145 0.117188 L 145 123.867188 L 8.320312 123.867188 Z M 8.320312 0.117188 " clip-rule="nonzero"/></clipPath><clipPath id="1c5e9de80b"><rect x="0" width="145" y="0" height="124"/></clipPath><clipPath id="ead0bd7159"><rect x="0" width="145" y="0" height="124"/></clipPath><clipPath id="2fa4e057d4"><rect x="0" width="146" y="0" height="126"/></clipPath><clipPath id="42ba02e9db"><rect x="0" width="346" y="0" height="126"/></clipPath></defs><g transform="matrix(1, 0, 0, 1, 29, 125)"><g clip-path="url(#42ba02e9db)"><g fill="#000000" fill-opacity="1"><g transform="translate(0.92028, 80.968756)"><g><path d="M 30.875 -32.359375 L 30.875 0 L 23 0 L 23 -13.328125 L 10.734375 -13.328125 L 10.734375 0 L 2.859375 0 L 2.859375 -32.359375 L 10.734375 -32.359375 L 10.734375 -19.6875 L 23 -19.6875 L 23 -32.359375 Z M 30.875 -32.359375 "/></g></g></g><g fill="#000000" fill-opacity="1"><g transform="translate(34.616527, 80.968756)"><g><path d="M 18.15625 0.328125 C 15.113281 0.328125 12.320312 -0.378906 9.78125 -1.796875 C 7.25 -3.210938 5.238281 -5.1875 3.75 -7.71875 C 2.257812 -10.25 1.515625 -13.097656 1.515625 -16.265625 C 1.515625 -19.429688 2.257812 -22.273438 3.75 -24.796875 C 5.238281 -27.316406 7.25 -29.28125 9.78125 -30.6875 C 12.320312 -32.101562 15.113281 -32.8125 18.15625 -32.8125 C 21.195312 -32.8125 23.984375 -32.101562 26.515625 -30.6875 C 29.054688 -29.28125 31.054688 -27.316406 32.515625 -24.796875 C 33.972656 -22.273438 34.703125 -19.429688 34.703125 -16.265625 C 34.703125 -13.097656 33.960938 -10.25 32.484375 -7.71875 C 31.015625 -5.1875 29.019531 -3.210938 26.5 -1.796875 C 23.976562 -0.378906 21.195312 0.328125 18.15625 0.328125 Z M 18.15625 -6.875 C 20.738281 -6.875 22.804688 -7.734375 24.359375 -9.453125 C 25.910156 -11.171875 26.6875 -13.441406 26.6875 -16.265625 C 26.6875 -19.128906 25.910156 -21.410156 24.359375 -23.109375 C 22.804688 -24.816406 20.738281 -25.671875 18.15625 -25.671875 C 15.550781 -25.671875 13.472656 -24.828125 11.921875 -23.140625 C 10.367188 -21.453125 9.59375 -19.160156 9.59375 -16.265625 C 9.59375 -13.410156 10.367188 -11.128906 11.921875 -9.421875 C 13.472656 -7.722656 15.550781 -6.875 18.15625 -6.875 Z M 18.15625 -6.875 "/></g></g></g><g fill="#000000" fill-opacity="1"><g transform="translate(70.848062, 80.968756)"><g><path d="M 19.359375 0 L 12.625 -12.21875 L 10.734375 -12.21875 L 10.734375 0 L 2.859375 0 L 2.859375 -32.359375 L 16.09375 -32.359375 C 18.632812 -32.359375 20.804688 -31.910156 22.609375 -31.015625 C 24.410156 -30.128906 25.753906 -28.910156 26.640625 -27.359375 C 27.535156 -25.804688 27.984375 -24.078125 27.984375 -22.171875 C 27.984375 -20.015625 27.375 -18.09375 26.15625 -16.40625 C 24.945312 -14.71875 23.15625 -13.519531 20.78125 -12.8125 L 28.25 0 Z M 10.734375 -17.796875 L 15.625 -17.796875 C 17.070312 -17.796875 18.15625 -18.144531 18.875 -18.84375 C 19.59375 -19.550781 19.953125 -20.550781 19.953125 -21.84375 C 19.953125 -23.070312 19.59375 -24.039062 18.875 -24.75 C 18.15625 -25.457031 17.070312 -25.8125 15.625 -25.8125 L 10.734375 -25.8125 Z M 10.734375 -17.796875 "/></g></g></g><g fill="#000000" fill-opacity="1"><g transform="translate(100.902724, 80.968756)"><g><path d="M 23 -5.71875 L 10.921875 -5.71875 L 8.984375 0 L 0.734375 0 L 12.4375 -32.359375 L 21.578125 -32.359375 L 33.28125 0 L 24.9375 0 Z M 20.96875 -11.796875 L 16.96875 -23.640625 L 13 -11.796875 Z M 20.96875 -11.796875 "/></g></g></g><g fill="#000000" fill-opacity="1"><g transform="translate(134.875555, 80.968756)"><g><path d="M 11.25 -6.453125 L 25.171875 -6.453125 L 25.171875 0 L 2.296875 0 L 2.296875 -5.984375 L 16.125 -25.90625 L 2.296875 -25.90625 L 2.296875 -32.359375 L 25.171875 -32.359375 L 25.171875 -26.359375 Z M 11.25 -6.453125 "/></g></g></g><g fill="#000000" fill-opacity="1"><g transform="translate(162.348832, 80.968756)"><g><path d="M 10.734375 -32.359375 L 10.734375 0 L 2.859375 0 L 2.859375 -32.359375 Z M 10.734375 -32.359375 "/></g></g></g><g fill="#000000" fill-opacity="1"><g transform="translate(175.947178, 80.968756)"><g><path d="M 18.15625 0.328125 C 15.113281 0.328125 12.320312 -0.378906 9.78125 -1.796875 C 7.25 -3.210938 5.238281 -5.1875 3.75 -7.71875 C 2.257812 -10.25 1.515625 -13.097656 1.515625 -16.265625 C 1.515625 -19.429688 2.257812 -22.273438 3.75 -24.796875 C 5.238281 -27.316406 7.25 -29.28125 9.78125 -30.6875 C 12.320312 -32.101562 15.113281 -32.8125 18.15625 -32.8125 C 21.195312 -32.8125 23.984375 -32.101562 26.515625 -30.6875 C 29.054688 -29.28125 31.054688 -27.316406 32.515625 -24.796875 C 33.972656 -22.273438 34.703125 -19.429688 34.703125 -16.265625 C 34.703125 -13.097656 33.960938 -10.25 32.484375 -7.71875 C 31.015625 -5.1875 29.019531 -3.210938 26.5 -1.796875 C 23.976562 -0.378906 21.195312 0.328125 18.15625 0.328125 Z M 18.15625 -6.875 C 20.738281 -6.875 22.804688 -7.734375 24.359375 -9.453125 C 25.910156 -11.171875 26.6875 -13.441406 26.6875 -16.265625 C 26.6875 -19.128906 25.910156 -21.410156 24.359375 -23.109375 C 22.804688 -24.816406 20.738281 -25.671875 18.15625 -25.671875 C 15.550781 -25.671875 13.472656 -24.828125 11.921875 -23.140625 C 10.367188 -21.453125 9.59375 -19.160156 9.59375 -16.265625 C 9.59375 -13.410156 10.367188 -11.128906 11.921875 -9.421875 C 13.472656 -7.722656 15.550781 -6.875 18.15625 -6.875 Z M 18.15625 -6.875 "/></g></g></g><g fill="#000000" fill-opacity="1"><g transform="translate(212.178713, 80.968756)"><g><path d="M 31.796875 0 L 23.921875 0 L 10.734375 -19.953125 L 10.734375 0 L 2.859375 0 L 2.859375 -32.359375 L 10.734375 -32.359375 L 23.921875 -12.3125 L 23.921875 -32.359375 L 31.796875 -32.359375 Z M 31.796875 0 "/></g></g></g><g clip-path="url(#ac73c45d19)"><path fill="#000000" d="M 169.082031 16.550781 C 169.144531 17.125 169.253906 17.691406 169.410156 18.246094 C 169.570312 18.800781 169.773438 19.339844 170.023438 19.859375 C 170.273438 20.378906 170.566406 20.875 170.898438 21.347656 C 171.234375 21.820312 171.605469 22.257812 172.011719 22.667969 C 172.421875 23.074219 172.859375 23.445312 173.332031 23.78125 C 173.800781 24.113281 174.296875 24.40625 174.820312 24.65625 C 175.339844 24.90625 175.878906 25.109375 176.433594 25.265625 C 176.988281 25.425781 177.554688 25.535156 178.128906 25.597656 C 180.902344 25.902344 184.488281 26.101562 189.117188 26.101562 C 184.488281 26.101562 180.902344 26.296875 178.128906 26.601562 C 177.554688 26.664062 176.988281 26.773438 176.433594 26.933594 C 175.878906 27.089844 175.339844 27.292969 174.820312 27.542969 C 174.296875 27.792969 173.800781 28.085938 173.332031 28.417969 C 172.859375 28.753906 172.421875 29.125 172.011719 29.53125 C 171.605469 29.941406 171.234375 30.378906 170.898438 30.851562 C 170.566406 31.324219 170.273438 31.820312 170.023438 32.339844 C 169.773438 32.859375 169.570312 33.398438 169.410156 33.953125 C 169.253906 34.507812 169.144531 35.074219 169.082031 35.648438 C 168.777344 38.425781 168.578125 42.007812 168.578125 46.636719 C 168.578125 42.007812 168.382812 38.425781 168.078125 35.648438 C 168.015625 35.074219 167.90625 34.507812 167.746094 33.953125 C 167.589844 33.398438 167.382812 32.859375 167.136719 32.339844 C 166.886719 31.820312 166.59375 31.324219 166.257812 30.851562 C 165.925781 30.378906 165.554688 29.941406 165.148438 29.53125 C 164.738281 29.125 164.296875 28.753906 163.828125 28.417969 C 163.355469 28.085938 162.859375 27.792969 162.339844 27.542969 C 161.820312 27.292969 161.28125 27.089844 160.726562 26.933594 C 160.171875 26.773438 159.605469 26.664062 159.03125 26.601562 C 156.253906 26.296875 152.671875 26.101562 148.042969 26.101562 C 152.671875 26.101562 156.253906 25.902344 159.03125 25.597656 C 159.605469 25.535156 160.171875 25.425781 160.726562 25.265625 C 161.28125 25.109375 161.820312 24.90625 162.339844 24.65625 C 162.859375 24.40625 163.355469 24.113281 163.828125 23.78125 C 164.296875 23.445312 164.738281 23.074219 165.148438 22.667969 C 165.554688 22.257812 165.925781 21.820312 166.257812 21.347656 C 166.59375 20.875 166.886719 20.378906 167.136719 19.859375 C 167.382812 19.339844 167.589844 18.800781 167.746094 18.246094 C 167.90625 17.691406 168.015625 17.125 168.078125 16.550781 C 168.382812 13.773438 168.578125 10.191406 168.578125 5.5625 C 168.578125 10.191406 168.777344 13.773438 169.082031 16.550781 Z M 169.082031 16.550781 " fill-opacity="1" fill-rule="nonzero"/></g><g clip-path="url(#4f515d84d2)"><g transform="matrix(1, 0, 0, 1, 200, 0)"><g clip-path="url(#2fa4e057d4)"><g clip-path="url(#d451e39c88)"><g transform="matrix(1, 0, 0, 1, 1, 1)"><g clip-path="url(#ead0bd7159)"><g clip-path="url(#0e0911d9f3)"><g mask="url(#04b2b94523)"><g><g clip-path="url(#1c5e9de80b)"><g clip-path="url(#4f2ae56ff9)"><path fill="url(#3e58c21c5d)" d="M 8.320312 0.117188 L 8.320312 123.867188 L 145 123.867188 L 145 0.117188 Z M 8.320312 0.117188 " fill-rule="nonzero"/></g></g></g></g></g></g></g></g></g></g></g></g></g></svg>