<svg xmlns="http://www.w3.org/2000/svg" xmlns:xlink="http://www.w3.org/1999/xlink" width="500" zoomAndPan="magnify" viewBox="0 0 375 374.999991" height="500" preserveAspectRatio="xMidYMid meet" version="1.0"><defs><g/><clipPath id="a5c8dea3c5"><path d="M 148.042969 0.890625 L 189.53125 0.890625 L 189.53125 42 L 148.042969 42 Z M 148.042969 0.890625 " clip-rule="nonzero"/></clipPath><clipPath id="611fff1824"><rect x="0" width="317" y="0" height="93"/></clipPath></defs><g transform="matrix(1, 0, 0, 1, 29, 143)"><g clip-path="url(#611fff1824)"><g fill="#ffffff" fill-opacity="1"><g transform="translate(0.92028, 76.296313)"><g><path d="M 30.875 -32.359375 L 30.875 0 L 23 0 L 23 -13.328125 L 10.734375 -13.328125 L 10.734375 0 L 2.859375 0 L 2.859375 -32.359375 L 10.734375 -32.359375 L 10.734375 -19.6875 L 23 -19.6875 L 23 -32.359375 Z M 30.875 -32.359375 "/></g></g></g><g fill="#ffffff" fill-opacity="1"><g transform="translate(34.616527, 76.296313)"><g><path d="M 18.15625 0.328125 C 15.113281 0.328125 12.320312 -0.378906 9.78125 -1.796875 C 7.25 -3.210938 5.238281 -5.1875 3.75 -7.71875 C 2.257812 -10.25 1.515625 -13.097656 1.515625 -16.265625 C 1.515625 -19.429688 2.257812 -22.273438 3.75 -24.796875 C 5.238281 -27.316406 7.25 -29.28125 9.78125 -30.6875 C 12.320312 -32.101562 15.113281 -32.8125 18.15625 -32.8125 C 21.195312 -32.8125 23.984375 -32.101562 26.515625 -30.6875 C 29.054688 -29.28125 31.054688 -27.316406 32.515625 -24.796875 C 33.972656 -22.273438 34.703125 -19.429688 34.703125 -16.265625 C 34.703125 -13.097656 33.960938 -10.25 32.484375 -7.71875 C 31.015625 -5.1875 29.019531 -3.210938 26.5 -1.796875 C 23.976562 -0.378906 21.195312 0.328125 18.15625 0.328125 Z M 18.15625 -6.875 C 20.738281 -6.875 22.804688 -7.734375 24.359375 -9.453125 C 25.910156 -11.171875 26.6875 -13.441406 26.6875 -16.265625 C 26.6875 -19.128906 25.910156 -21.410156 24.359375 -23.109375 C 22.804688 -24.816406 20.738281 -25.671875 18.15625 -25.671875 C 15.550781 -25.671875 13.472656 -24.828125 11.921875 -23.140625 C 10.367188 -21.453125 9.59375 -19.160156 9.59375 -16.265625 C 9.59375 -13.410156 10.367188 -11.128906 11.921875 -9.421875 C 13.472656 -7.722656 15.550781 -6.875 18.15625 -6.875 Z M 18.15625 -6.875 "/></g></g></g><g fill="#ffffff" fill-opacity="1"><g transform="translate(70.848062, 76.296313)"><g><path d="M 19.359375 0 L 12.625 -12.21875 L 10.734375 -12.21875 L 10.734375 0 L 2.859375 0 L 2.859375 -32.359375 L 16.09375 -32.359375 C 18.632812 -32.359375 20.804688 -31.910156 22.609375 -31.015625 C 24.410156 -30.128906 25.753906 -28.910156 26.640625 -27.359375 C 27.535156 -25.804688 27.984375 -24.078125 27.984375 -22.171875 C 27.984375 -20.015625 27.375 -18.09375 26.15625 -16.40625 C 24.945312 -14.71875 23.15625 -13.519531 20.78125 -12.8125 L 28.25 0 Z M 10.734375 -17.796875 L 15.625 -17.796875 C 17.070312 -17.796875 18.15625 -18.144531 18.875 -18.84375 C 19.59375 -19.550781 19.953125 -20.550781 19.953125 -21.84375 C 19.953125 -23.070312 19.59375 -24.039062 18.875 -24.75 C 18.15625 -25.457031 17.070312 -25.8125 15.625 -25.8125 L 10.734375 -25.8125 Z M 10.734375 -17.796875 "/></g></g></g><g fill="#ffffff" fill-opacity="1"><g transform="translate(100.902724, 76.296313)"><g><path d="M 23 -5.71875 L 10.921875 -5.71875 L 8.984375 0 L 0.734375 0 L 12.4375 -32.359375 L 21.578125 -32.359375 L 33.28125 0 L 24.9375 0 Z M 20.96875 -11.796875 L 16.96875 -23.640625 L 13 -11.796875 Z M 20.96875 -11.796875 "/></g></g></g><g fill="#ffffff" fill-opacity="1"><g transform="translate(134.875555, 76.296313)"><g><path d="M 11.25 -6.453125 L 25.171875 -6.453125 L 25.171875 0 L 2.296875 0 L 2.296875 -5.984375 L 16.125 -25.90625 L 2.296875 -25.90625 L 2.296875 -32.359375 L 25.171875 -32.359375 L 25.171875 -26.359375 Z M 11.25 -6.453125 "/></g></g></g><g fill="#ffffff" fill-opacity="1"><g transform="translate(162.348832, 76.296313)"><g><path d="M 10.734375 -32.359375 L 10.734375 0 L 2.859375 0 L 2.859375 -32.359375 Z M 10.734375 -32.359375 "/></g></g></g><g fill="#ffffff" fill-opacity="1"><g transform="translate(175.947178, 76.296313)"><g><path d="M 18.15625 0.328125 C 15.113281 0.328125 12.320312 -0.378906 9.78125 -1.796875 C 7.25 -3.210938 5.238281 -5.1875 3.75 -7.71875 C 2.257812 -10.25 1.515625 -13.097656 1.515625 -16.265625 C 1.515625 -19.429688 2.257812 -22.273438 3.75 -24.796875 C 5.238281 -27.316406 7.25 -29.28125 9.78125 -30.6875 C 12.320312 -32.101562 15.113281 -32.8125 18.15625 -32.8125 C 21.195312 -32.8125 23.984375 -32.101562 26.515625 -30.6875 C 29.054688 -29.28125 31.054688 -27.316406 32.515625 -24.796875 C 33.972656 -22.273438 34.703125 -19.429688 34.703125 -16.265625 C 34.703125 -13.097656 33.960938 -10.25 32.484375 -7.71875 C 31.015625 -5.1875 29.019531 -3.210938 26.5 -1.796875 C 23.976562 -0.378906 21.195312 0.328125 18.15625 0.328125 Z M 18.15625 -6.875 C 20.738281 -6.875 22.804688 -7.734375 24.359375 -9.453125 C 25.910156 -11.171875 26.6875 -13.441406 26.6875 -16.265625 C 26.6875 -19.128906 25.910156 -21.410156 24.359375 -23.109375 C 22.804688 -24.816406 20.738281 -25.671875 18.15625 -25.671875 C 15.550781 -25.671875 13.472656 -24.828125 11.921875 -23.140625 C 10.367188 -21.453125 9.59375 -19.160156 9.59375 -16.265625 C 9.59375 -13.410156 10.367188 -11.128906 11.921875 -9.421875 C 13.472656 -7.722656 15.550781 -6.875 18.15625 -6.875 Z M 18.15625 -6.875 "/></g></g></g><g fill="#ffffff" fill-opacity="1"><g transform="translate(212.178713, 76.296313)"><g><path d="M 31.796875 0 L 23.921875 0 L 10.734375 -19.953125 L 10.734375 0 L 2.859375 0 L 2.859375 -32.359375 L 10.734375 -32.359375 L 23.921875 -12.3125 L 23.921875 -32.359375 L 31.796875 -32.359375 Z M 31.796875 0 "/></g></g></g><g clip-path="url(#a5c8dea3c5)"><path fill="#ffffff" d="M 169.082031 11.878906 C 169.144531 12.453125 169.253906 13.019531 169.410156 13.574219 C 169.570312 14.128906 169.773438 14.667969 170.023438 15.1875 C 170.273438 15.707031 170.566406 16.203125 170.898438 16.675781 C 171.234375 17.144531 171.605469 17.585938 172.011719 17.996094 C 172.421875 18.402344 172.859375 18.773438 173.332031 19.109375 C 173.800781 19.441406 174.296875 19.734375 174.820312 19.984375 C 175.339844 20.230469 175.878906 20.4375 176.433594 20.59375 C 176.988281 20.753906 177.554688 20.863281 178.128906 20.925781 C 180.902344 21.230469 184.488281 21.425781 189.117188 21.425781 C 184.488281 21.425781 180.902344 21.625 178.128906 21.929688 C 177.554688 21.992188 176.988281 22.101562 176.433594 22.261719 C 175.878906 22.417969 175.339844 22.621094 174.820312 22.871094 C 174.296875 23.121094 173.800781 23.414062 173.332031 23.746094 C 172.859375 24.082031 172.421875 24.453125 172.011719 24.859375 C 171.605469 25.269531 171.234375 25.707031 170.898438 26.179688 C 170.566406 26.652344 170.273438 27.144531 170.023438 27.667969 C 169.773438 28.1875 169.570312 28.726562 169.410156 29.28125 C 169.253906 29.835938 169.144531 30.402344 169.082031 30.976562 C 168.777344 33.75 168.578125 37.335938 168.578125 41.964844 C 168.578125 37.335938 168.382812 33.75 168.078125 30.976562 C 168.015625 30.402344 167.90625 29.835938 167.746094 29.28125 C 167.589844 28.726562 167.382812 28.1875 167.136719 27.667969 C 166.886719 27.144531 166.59375 26.652344 166.257812 26.179688 C 165.925781 25.707031 165.554688 25.269531 165.148438 24.859375 C 164.738281 24.453125 164.296875 24.082031 163.828125 23.746094 C 163.355469 23.414062 162.859375 23.121094 162.339844 22.871094 C 161.820312 22.621094 161.28125 22.417969 160.726562 22.261719 C 160.171875 22.101562 159.605469 21.992188 159.03125 21.929688 C 156.253906 21.625 152.671875 21.425781 148.042969 21.425781 C 152.671875 21.425781 156.253906 21.230469 159.03125 20.925781 C 159.605469 20.863281 160.171875 20.753906 160.726562 20.59375 C 161.28125 20.4375 161.820312 20.230469 162.339844 19.984375 C 162.859375 19.734375 163.355469 19.441406 163.828125 19.109375 C 164.296875 18.773438 164.738281 18.402344 165.148438 17.996094 C 165.554688 17.585938 165.925781 17.144531 166.257812 16.675781 C 166.59375 16.203125 166.886719 15.707031 167.136719 15.1875 C 167.382812 14.667969 167.589844 14.128906 167.746094 13.574219 C 167.90625 13.019531 168.015625 12.453125 168.078125 11.878906 C 168.382812 9.101562 168.578125 5.519531 168.578125 0.890625 C 168.578125 5.519531 168.777344 9.101562 169.082031 11.878906 Z M 169.082031 11.878906 " fill-opacity="1" fill-rule="nonzero"/></g><g fill="#ffffff" fill-opacity="1"><g transform="translate(246.820632, 65.533395)"><g><path d="M 6.984375 -12.84375 C 8.078125 -12.84375 9.03125 -12.601562 9.84375 -12.125 C 10.664062 -11.644531 11.28125 -11.046875 11.6875 -10.328125 L 11.6875 -12.625 L 13.8125 -12.625 L 13.8125 0.28125 C 13.8125 1.425781 13.5625 2.445312 13.0625 3.34375 C 12.570312 4.25 11.867188 4.953125 10.953125 5.453125 C 10.046875 5.960938 8.984375 6.21875 7.765625 6.21875 C 6.109375 6.21875 4.722656 5.828125 3.609375 5.046875 C 2.503906 4.265625 1.851562 3.195312 1.65625 1.84375 L 3.734375 1.84375 C 3.960938 2.613281 4.4375 3.234375 5.15625 3.703125 C 5.882812 4.171875 6.753906 4.40625 7.765625 4.40625 C 8.921875 4.40625 9.863281 4.039062 10.59375 3.3125 C 11.320312 2.59375 11.6875 1.582031 11.6875 0.28125 L 11.6875 -2.375 C 11.269531 -1.632812 10.65625 -1.019531 9.84375 -0.53125 C 9.03125 -0.0390625 8.078125 0.203125 6.984375 0.203125 C 5.859375 0.203125 4.835938 -0.0703125 3.921875 -0.625 C 3.015625 -1.175781 2.296875 -1.953125 1.765625 -2.953125 C 1.242188 -3.953125 0.984375 -5.085938 0.984375 -6.359375 C 0.984375 -7.648438 1.242188 -8.78125 1.765625 -9.75 C 2.296875 -10.726562 3.015625 -11.488281 3.921875 -12.03125 C 4.835938 -12.570312 5.859375 -12.84375 6.984375 -12.84375 Z M 11.6875 -6.34375 C 11.6875 -7.289062 11.492188 -8.117188 11.109375 -8.828125 C 10.722656 -9.535156 10.203125 -10.078125 9.546875 -10.453125 C 8.898438 -10.828125 8.179688 -11.015625 7.390625 -11.015625 C 6.609375 -11.015625 5.894531 -10.828125 5.25 -10.453125 C 4.601562 -10.085938 4.085938 -9.550781 3.703125 -8.84375 C 3.328125 -8.144531 3.140625 -7.316406 3.140625 -6.359375 C 3.140625 -5.390625 3.328125 -4.546875 3.703125 -3.828125 C 4.085938 -3.117188 4.601562 -2.578125 5.25 -2.203125 C 5.894531 -1.828125 6.609375 -1.640625 7.390625 -1.640625 C 8.179688 -1.640625 8.898438 -1.828125 9.546875 -2.203125 C 10.203125 -2.578125 10.722656 -3.117188 11.109375 -3.828125 C 11.492188 -4.546875 11.6875 -5.382812 11.6875 -6.34375 Z M 11.6875 -6.34375 "/></g></g></g><g fill="#ffffff" fill-opacity="1"><g transform="translate(262.396522, 65.533395)"><g><path d="M 3.875 -10.578125 C 4.238281 -11.296875 4.757812 -11.851562 5.4375 -12.25 C 6.125 -12.65625 6.960938 -12.859375 7.953125 -12.859375 L 7.953125 -10.6875 L 7.390625 -10.6875 C 5.046875 -10.6875 3.875 -9.414062 3.875 -6.875 L 3.875 0 L 1.78125 0 L 1.78125 -12.625 L 3.875 -12.625 Z M 3.875 -10.578125 "/></g></g></g><g fill="#ffffff" fill-opacity="1"><g transform="translate(270.990913, 65.533395)"><g><path d="M 7.28125 0.203125 C 6.101562 0.203125 5.03125 -0.0625 4.0625 -0.59375 C 3.101562 -1.132812 2.347656 -1.898438 1.796875 -2.890625 C 1.253906 -3.878906 0.984375 -5.03125 0.984375 -6.34375 C 0.984375 -7.632812 1.265625 -8.773438 1.828125 -9.765625 C 2.390625 -10.753906 3.15625 -11.515625 4.125 -12.046875 C 5.09375 -12.578125 6.175781 -12.84375 7.375 -12.84375 C 8.570312 -12.84375 9.65625 -12.578125 10.625 -12.046875 C 11.59375 -11.515625 12.359375 -10.753906 12.921875 -9.765625 C 13.484375 -8.785156 13.765625 -7.644531 13.765625 -6.34375 C 13.765625 -5.03125 13.472656 -3.878906 12.890625 -2.890625 C 12.316406 -1.898438 11.535156 -1.132812 10.546875 -0.59375 C 9.566406 -0.0625 8.476562 0.203125 7.28125 0.203125 Z M 7.28125 -1.640625 C 8.03125 -1.640625 8.734375 -1.816406 9.390625 -2.171875 C 10.054688 -2.523438 10.59375 -3.050781 11 -3.75 C 11.40625 -4.457031 11.609375 -5.320312 11.609375 -6.34375 C 11.609375 -7.351562 11.410156 -8.210938 11.015625 -8.921875 C 10.617188 -9.628906 10.097656 -10.15625 9.453125 -10.5 C 8.804688 -10.84375 8.109375 -11.015625 7.359375 -11.015625 C 6.585938 -11.015625 5.878906 -10.84375 5.234375 -10.5 C 4.597656 -10.15625 4.085938 -9.628906 3.703125 -8.921875 C 3.328125 -8.210938 3.140625 -7.351562 3.140625 -6.34375 C 3.140625 -5.3125 3.328125 -4.441406 3.703125 -3.734375 C 4.078125 -3.023438 4.578125 -2.5 5.203125 -2.15625 C 5.835938 -1.8125 6.53125 -1.640625 7.28125 -1.640625 Z M 7.28125 -1.640625 "/></g></g></g><g fill="#ffffff" fill-opacity="1"><g transform="translate(285.737314, 65.533395)"><g><path d="M 12.96875 -12.625 L 12.96875 0 L 10.875 0 L 10.875 -1.859375 C 10.476562 -1.222656 9.921875 -0.722656 9.203125 -0.359375 C 8.492188 0.00390625 7.707031 0.1875 6.84375 0.1875 C 5.863281 0.1875 4.976562 -0.015625 4.1875 -0.421875 C 3.40625 -0.828125 2.785156 -1.4375 2.328125 -2.25 C 1.878906 -3.070312 1.65625 -4.066406 1.65625 -5.234375 L 1.65625 -12.625 L 3.734375 -12.625 L 3.734375 -5.515625 C 3.734375 -4.265625 4.046875 -3.304688 4.671875 -2.640625 C 5.304688 -1.972656 6.171875 -1.640625 7.265625 -1.640625 C 8.378906 -1.640625 9.257812 -1.984375 9.90625 -2.671875 C 10.550781 -3.359375 10.875 -4.363281 10.875 -5.6875 L 10.875 -12.625 Z M 12.96875 -12.625 "/></g></g></g><g fill="#ffffff" fill-opacity="1"><g transform="translate(300.483716, 65.533395)"><g><path d="M 3.875 -10.296875 C 4.289062 -11.023438 4.90625 -11.628906 5.71875 -12.109375 C 6.539062 -12.597656 7.5 -12.84375 8.59375 -12.84375 C 9.71875 -12.84375 10.734375 -12.570312 11.640625 -12.03125 C 12.554688 -11.488281 13.273438 -10.726562 13.796875 -9.75 C 14.328125 -8.78125 14.59375 -7.648438 14.59375 -6.359375 C 14.59375 -5.085938 14.328125 -3.953125 13.796875 -2.953125 C 13.273438 -1.953125 12.554688 -1.175781 11.640625 -0.625 C 10.734375 -0.0703125 9.71875 0.203125 8.59375 0.203125 C 7.519531 0.203125 6.570312 -0.0351562 5.75 -0.515625 C 4.925781 -1.003906 4.300781 -1.609375 3.875 -2.328125 L 3.875 6 L 1.78125 6 L 1.78125 -12.625 L 3.875 -12.625 Z M 12.453125 -6.359375 C 12.453125 -7.316406 12.257812 -8.144531 11.875 -8.84375 C 11.488281 -9.550781 10.96875 -10.085938 10.3125 -10.453125 C 9.65625 -10.828125 8.9375 -11.015625 8.15625 -11.015625 C 7.382812 -11.015625 6.671875 -10.828125 6.015625 -10.453125 C 5.367188 -10.078125 4.847656 -9.53125 4.453125 -8.8125 C 4.066406 -8.101562 3.875 -7.28125 3.875 -6.34375 C 3.875 -5.382812 4.066406 -4.546875 4.453125 -3.828125 C 4.847656 -3.117188 5.367188 -2.578125 6.015625 -2.203125 C 6.671875 -1.828125 7.382812 -1.640625 8.15625 -1.640625 C 8.9375 -1.640625 9.65625 -1.828125 10.3125 -2.203125 C 10.96875 -2.578125 11.488281 -3.117188 11.875 -3.828125 C 12.257812 -4.546875 12.453125 -5.390625 12.453125 -6.359375 Z M 12.453125 -6.359375 "/></g></g></g></g></g></svg>