<svg xmlns="http://www.w3.org/2000/svg" xmlns:xlink="http://www.w3.org/1999/xlink" width="500" zoomAndPan="magnify" viewBox="0 0 375 374.999991" height="500" preserveAspectRatio="xMidYMid meet" version="1.0"><defs><filter x="0%" y="0%" width="100%" height="100%" id="cfcdb2f1f5"><feColorMatrix values="0 0 0 0 1 0 0 0 0 1 0 0 0 0 1 0 0 0 1 0" color-interpolation-filters="sRGB"/></filter><g/><clipPath id="2072859e49"><path d="M 147.410156 5.429688 L 188.902344 5.429688 L 188.902344 46.917969 L 147.410156 46.917969 Z M 147.410156 5.429688 " clip-rule="nonzero"/></clipPath><clipPath id="7bdb9ab45f"><path d="M 199 0.121094 L 364 0.121094 L 364 125.640625 L 199 125.640625 Z M 199 0.121094 " clip-rule="nonzero"/></clipPath><clipPath id="5020951710"><path d="M 1.4375 0.984375 L 165 0.984375 L 165 124.734375 L 1.4375 124.734375 Z M 1.4375 0.984375 " clip-rule="nonzero"/></clipPath><clipPath id="68ded83672"><path d="M 0.4375 0.984375 L 164 0.984375 L 164 124.734375 L 0.4375 124.734375 Z M 0.4375 0.984375 " clip-rule="nonzero"/></clipPath><clipPath id="4f750ddae8"><path d="M 9.441406 0.984375 L 164 0.984375 L 164 124.734375 L 9.441406 124.734375 Z M 9.441406 0.984375 " clip-rule="nonzero"/></clipPath><linearGradient x1="-48.671001" gradientTransform="matrix(0.748743, 0, 0, 0.745844, 45.883016, 46.828758)" y1="21.5" x2="157.753671" gradientUnits="userSpaceOnUse" y2="21.5" id="162c92f3ee"><stop stop-opacity="1" stop-color="rgb(71.369934%, 16.079712%, 18.03894%)" offset="0"/><stop stop-opacity="1" stop-color="rgb(71.369934%, 16.079712%, 18.03894%)" offset="0.25"/><stop stop-opacity="1" stop-color="rgb(71.369934%, 16.079712%, 18.03894%)" offset="0.28125"/><stop stop-opacity="1" stop-color="rgb(71.369934%, 16.079712%, 18.03894%)" offset="0.296875"/><stop stop-opacity="1" stop-color="rgb(70.773315%, 15.904236%, 18.086243%)" offset="0.300781"/><stop stop-opacity="1" stop-color="rgb(70.178223%, 15.730286%, 18.133545%)" offset="0.304688"/><stop stop-opacity="1" stop-color="rgb(69.503784%, 15.531921%, 18.185425%)" offset="0.308594"/><stop stop-opacity="1" stop-color="rgb(68.830872%, 15.335083%, 18.238831%)" offset="0.3125"/><stop stop-opacity="1" stop-color="rgb(68.156433%, 15.138245%, 18.29071%)" offset="0.316406"/><stop stop-opacity="1" stop-color="rgb(67.483521%, 14.941406%, 18.344116%)" offset="0.320313"/><stop stop-opacity="1" stop-color="rgb(66.810608%, 14.743042%, 18.395996%)" offset="0.324219"/><stop stop-opacity="1" stop-color="rgb(66.137695%, 14.546204%, 18.449402%)" offset="0.328125"/><stop stop-opacity="1" stop-color="rgb(65.463257%, 14.349365%, 18.502808%)" offset="0.332031"/><stop stop-opacity="1" stop-color="rgb(64.790344%, 14.152527%, 18.556213%)" offset="0.335938"/><stop stop-opacity="1" stop-color="rgb(64.117432%, 13.954163%, 18.608093%)" offset="0.339844"/><stop stop-opacity="1" stop-color="rgb(63.444519%, 13.757324%, 18.661499%)" offset="0.34375"/><stop stop-opacity="1" stop-color="rgb(62.770081%, 13.560486%, 18.713379%)" offset="0.347656"/><stop stop-opacity="1" stop-color="rgb(62.097168%, 13.363647%, 18.766785%)" offset="0.351562"/><stop stop-opacity="1" stop-color="rgb(61.422729%, 13.165283%, 18.82019%)" offset="0.355469"/><stop stop-opacity="1" stop-color="rgb(60.749817%, 12.968445%, 18.873596%)" offset="0.359375"/><stop stop-opacity="1" stop-color="rgb(60.076904%, 12.771606%, 18.925476%)" offset="0.363281"/><stop stop-opacity="1" stop-color="rgb(59.403992%, 12.574768%, 18.978882%)" offset="0.367188"/><stop stop-opacity="1" stop-color="rgb(58.729553%, 12.376404%, 19.030762%)" offset="0.371094"/><stop stop-opacity="1" stop-color="rgb(58.056641%, 12.179565%, 19.084167%)" offset="0.375"/><stop stop-opacity="1" stop-color="rgb(57.383728%, 11.982727%, 19.136047%)" offset="0.378906"/><stop stop-opacity="1" stop-color="rgb(56.710815%, 11.785889%, 19.189453%)" offset="0.382812"/><stop stop-opacity="1" stop-color="rgb(56.036377%, 11.587524%, 19.242859%)" offset="0.386719"/><stop stop-opacity="1" stop-color="rgb(55.363464%, 11.390686%, 19.296265%)" offset="0.390625"/><stop stop-opacity="1" stop-color="rgb(54.689026%, 11.193848%, 19.348145%)" offset="0.394531"/><stop stop-opacity="1" stop-color="rgb(54.016113%, 10.997009%, 19.40155%)" offset="0.398438"/><stop stop-opacity="1" stop-color="rgb(53.343201%, 10.798645%, 19.45343%)" offset="0.402344"/><stop stop-opacity="1" stop-color="rgb(52.670288%, 10.601807%, 19.506836%)" offset="0.40625"/><stop stop-opacity="1" stop-color="rgb(51.99585%, 10.404968%, 19.560242%)" offset="0.410156"/><stop stop-opacity="1" stop-color="rgb(51.322937%, 10.20813%, 19.613647%)" offset="0.414062"/><stop stop-opacity="1" stop-color="rgb(50.650024%, 10.009766%, 19.665527%)" offset="0.417969"/><stop stop-opacity="1" stop-color="rgb(49.977112%, 9.812927%, 19.718933%)" offset="0.421875"/><stop stop-opacity="1" stop-color="rgb(49.302673%, 9.616089%, 19.770813%)" offset="0.425781"/><stop stop-opacity="1" stop-color="rgb(48.629761%, 9.41925%, 19.824219%)" offset="0.429688"/><stop stop-opacity="1" stop-color="rgb(47.955322%, 9.220886%, 19.876099%)" offset="0.433594"/><stop stop-opacity="1" stop-color="rgb(47.28241%, 9.024048%, 19.929504%)" offset="0.4375"/><stop stop-opacity="1" stop-color="rgb(46.609497%, 8.827209%, 19.98291%)" offset="0.441406"/><stop stop-opacity="1" stop-color="rgb(45.936584%, 8.630371%, 20.036316%)" offset="0.445312"/><stop stop-opacity="1" stop-color="rgb(45.262146%, 8.432007%, 20.088196%)" offset="0.449219"/><stop stop-opacity="1" stop-color="rgb(44.589233%, 8.235168%, 20.141602%)" offset="0.453125"/><stop stop-opacity="1" stop-color="rgb(43.916321%, 8.03833%, 20.193481%)" offset="0.457031"/><stop stop-opacity="1" stop-color="rgb(43.243408%, 7.841492%, 20.246887%)" offset="0.460938"/><stop stop-opacity="1" stop-color="rgb(42.56897%, 7.643127%, 20.300293%)" offset="0.464844"/><stop stop-opacity="1" stop-color="rgb(41.896057%, 7.446289%, 20.353699%)" offset="0.46875"/><stop stop-opacity="1" stop-color="rgb(41.221619%, 7.249451%, 20.405579%)" offset="0.472656"/><stop stop-opacity="1" stop-color="rgb(40.548706%, 7.052612%, 20.458984%)" offset="0.476563"/><stop stop-opacity="1" stop-color="rgb(39.875793%, 6.854248%, 20.510864%)" offset="0.480469"/><stop stop-opacity="1" stop-color="rgb(39.202881%, 6.65741%, 20.56427%)" offset="0.484375"/><stop stop-opacity="1" stop-color="rgb(38.528442%, 6.460571%, 20.61615%)" offset="0.488281"/><stop stop-opacity="1" stop-color="rgb(37.85553%, 6.263733%, 20.669556%)" offset="0.492188"/><stop stop-opacity="1" stop-color="rgb(37.182617%, 6.065369%, 20.722961%)" offset="0.496094"/><stop stop-opacity="1" stop-color="rgb(36.509705%, 5.86853%, 20.776367%)" offset="0.5"/><stop stop-opacity="1" stop-color="rgb(35.835266%, 5.671692%, 20.828247%)" offset="0.503906"/><stop stop-opacity="1" stop-color="rgb(35.162354%, 5.474854%, 20.881653%)" offset="0.507812"/><stop stop-opacity="1" stop-color="rgb(34.489441%, 5.276489%, 20.933533%)" offset="0.511719"/><stop stop-opacity="1" stop-color="rgb(33.816528%, 5.079651%, 20.986938%)" offset="0.515625"/><stop stop-opacity="1" stop-color="rgb(33.14209%, 4.882812%, 21.040344%)" offset="0.519531"/><stop stop-opacity="1" stop-color="rgb(32.469177%, 4.685974%, 21.09375%)" offset="0.523438"/><stop stop-opacity="1" stop-color="rgb(31.794739%, 4.48761%, 21.14563%)" offset="0.527344"/><stop stop-opacity="1" stop-color="rgb(31.121826%, 4.290771%, 21.199036%)" offset="0.53125"/><stop stop-opacity="1" stop-color="rgb(30.448914%, 4.093933%, 21.250916%)" offset="0.535156"/><stop stop-opacity="1" stop-color="rgb(29.776001%, 3.897095%, 21.304321%)" offset="0.539062"/><stop stop-opacity="1" stop-color="rgb(29.101562%, 3.69873%, 21.356201%)" offset="0.542969"/><stop stop-opacity="1" stop-color="rgb(28.42865%, 3.501892%, 21.409607%)" offset="0.546875"/><stop stop-opacity="1" stop-color="rgb(27.755737%, 3.305054%, 21.463013%)" offset="0.550781"/><stop stop-opacity="1" stop-color="rgb(27.082825%, 3.108215%, 21.516418%)" offset="0.554688"/><stop stop-opacity="1" stop-color="rgb(26.408386%, 2.909851%, 21.568298%)" offset="0.558594"/><stop stop-opacity="1" stop-color="rgb(25.735474%, 2.713013%, 21.621704%)" offset="0.5625"/><stop stop-opacity="1" stop-color="rgb(25.061035%, 2.516174%, 21.673584%)" offset="0.566406"/><stop stop-opacity="1" stop-color="rgb(24.388123%, 2.319336%, 21.72699%)" offset="0.570312"/><stop stop-opacity="1" stop-color="rgb(23.71521%, 2.120972%, 21.780396%)" offset="0.574219"/><stop stop-opacity="1" stop-color="rgb(23.042297%, 1.924133%, 21.833801%)" offset="0.578125"/><stop stop-opacity="1" stop-color="rgb(22.367859%, 1.727295%, 21.885681%)" offset="0.582031"/><stop stop-opacity="1" stop-color="rgb(21.694946%, 1.530457%, 21.939087%)" offset="0.585938"/><stop stop-opacity="1" stop-color="rgb(21.022034%, 1.332092%, 21.990967%)" offset="0.589844"/><stop stop-opacity="1" stop-color="rgb(20.349121%, 1.135254%, 22.044373%)" offset="0.59375"/><stop stop-opacity="1" stop-color="rgb(19.674683%, 0.938416%, 22.096252%)" offset="0.597656"/><stop stop-opacity="1" stop-color="rgb(19.00177%, 0.741577%, 22.149658%)" offset="0.601562"/><stop stop-opacity="1" stop-color="rgb(18.327332%, 0.543213%, 22.203064%)" offset="0.605469"/><stop stop-opacity="1" stop-color="rgb(17.654419%, 0.346375%, 22.25647%)" offset="0.609375"/><stop stop-opacity="1" stop-color="rgb(17.042542%, 0.193787%, 22.306824%)" offset="0.613281"/><stop stop-opacity="1" stop-color="rgb(16.43219%, 0.0411987%, 22.357178%)" offset="0.617188"/><stop stop-opacity="1" stop-color="rgb(16.278076%, 0.219727%, 22.390747%)" offset="0.625"/><stop stop-opacity="1" stop-color="rgb(15.969849%, 0.575256%, 22.457886%)" offset="0.632812"/><stop stop-opacity="1" stop-color="rgb(15.663147%, 0.930786%, 22.525024%)" offset="0.640625"/><stop stop-opacity="1" stop-color="rgb(15.354919%, 1.286316%, 22.593689%)" offset="0.648437"/><stop stop-opacity="1" stop-color="rgb(15.046692%, 1.643372%, 22.660828%)" offset="0.65625"/><stop stop-opacity="1" stop-color="rgb(14.738464%, 1.998901%, 22.727966%)" offset="0.664062"/><stop stop-opacity="1" stop-color="rgb(14.431763%, 2.354431%, 22.795105%)" offset="0.671875"/><stop stop-opacity="1" stop-color="rgb(14.123535%, 2.711487%, 22.86377%)" offset="0.679688"/><stop stop-opacity="1" stop-color="rgb(13.815308%, 3.067017%, 22.930908%)" offset="0.6875"/><stop stop-opacity="1" stop-color="rgb(13.50708%, 3.422546%, 22.998047%)" offset="0.695312"/><stop stop-opacity="1" stop-color="rgb(13.200378%, 3.778076%, 23.065186%)" offset="0.703125"/><stop stop-opacity="1" stop-color="rgb(12.892151%, 4.135132%, 23.132324%)" offset="0.710938"/><stop stop-opacity="1" stop-color="rgb(12.583923%, 4.490662%, 23.200989%)" offset="0.71875"/><stop stop-opacity="1" stop-color="rgb(12.275696%, 4.846191%, 23.268127%)" offset="0.726562"/><stop stop-opacity="1" stop-color="rgb(11.968994%, 5.201721%, 23.335266%)" offset="0.734375"/><stop stop-opacity="1" stop-color="rgb(11.660767%, 5.558777%, 23.402405%)" offset="0.742188"/><stop stop-opacity="1" stop-color="rgb(11.352539%, 5.914307%, 23.469543%)" offset="0.75"/><stop stop-opacity="1" stop-color="rgb(11.044312%, 6.269836%, 23.538208%)" offset="0.757812"/><stop stop-opacity="1" stop-color="rgb(10.73761%, 6.625366%, 23.605347%)" offset="0.765625"/><stop stop-opacity="1" stop-color="rgb(10.429382%, 6.982422%, 23.672485%)" offset="0.773438"/><stop stop-opacity="1" stop-color="rgb(10.121155%, 7.337952%, 23.739624%)" offset="0.78125"/><stop stop-opacity="1" stop-color="rgb(9.812927%, 7.693481%, 23.806763%)" offset="0.789062"/><stop stop-opacity="1" stop-color="rgb(9.5047%, 8.050537%, 23.875427%)" offset="0.796875"/><stop stop-opacity="1" stop-color="rgb(9.197998%, 8.406067%, 23.942566%)" offset="0.804688"/><stop stop-opacity="1" stop-color="rgb(8.889771%, 8.761597%, 24.009705%)" offset="0.8125"/><stop stop-opacity="1" stop-color="rgb(8.581543%, 9.117126%, 24.076843%)" offset="0.820312"/><stop stop-opacity="1" stop-color="rgb(8.273315%, 9.474182%, 24.145508%)" offset="0.828125"/><stop stop-opacity="1" stop-color="rgb(7.966614%, 9.829712%, 24.212646%)" offset="0.835938"/><stop stop-opacity="1" stop-color="rgb(7.658386%, 10.185242%, 24.279785%)" offset="0.84375"/><stop stop-opacity="1" stop-color="rgb(7.350159%, 10.540771%, 24.346924%)" offset="0.851563"/><stop stop-opacity="1" stop-color="rgb(7.041931%, 10.897827%, 24.414062%)" offset="0.859375"/><stop stop-opacity="1" stop-color="rgb(6.735229%, 11.253357%, 24.482727%)" offset="0.867188"/><stop stop-opacity="1" stop-color="rgb(6.427002%, 11.608887%, 24.549866%)" offset="0.875"/><stop stop-opacity="1" stop-color="rgb(6.118774%, 11.965942%, 24.617004%)" offset="0.882812"/><stop stop-opacity="1" stop-color="rgb(5.810547%, 12.321472%, 24.684143%)" offset="0.890625"/><stop stop-opacity="1" stop-color="rgb(5.503845%, 12.677002%, 24.751282%)" offset="0.898438"/><stop stop-opacity="1" stop-color="rgb(5.195618%, 13.032532%, 24.819946%)" offset="0.90625"/><stop stop-opacity="1" stop-color="rgb(4.88739%, 13.389587%, 24.887085%)" offset="0.914063"/><stop stop-opacity="1" stop-color="rgb(4.579163%, 13.745117%, 24.954224%)" offset="0.921875"/><stop stop-opacity="1" stop-color="rgb(4.272461%, 14.100647%, 25.021362%)" offset="0.929688"/><stop stop-opacity="1" stop-color="rgb(4.019165%, 14.393616%, 25.076294%)" offset="0.9375"/><stop stop-opacity="1" stop-color="rgb(3.919983%, 14.509583%, 25.099182%)" offset="1"/></linearGradient><clipPath id="66090ead57"><rect x="0" width="164" y="0" height="125"/></clipPath><clipPath id="18aee0da35"><path d="M 0.4375 0.984375 L 164 0.984375 L 164 124.734375 L 0.4375 124.734375 Z M 0.4375 0.984375 " clip-rule="nonzero"/></clipPath><clipPath id="32e5a62803"><rect x="0" width="164" y="0" height="125"/></clipPath><clipPath id="7bd16ebe00"><rect x="0" width="164" y="0" height="125"/></clipPath><mask id="74fdd09f52"><g filter="url(#cfcdb2f1f5)"><g><g clip-path="url(#7bd16ebe00)"><g clip-path="url(#18aee0da35)"><g><g clip-path="url(#32e5a62803)"><g fill="#000000" fill-opacity="1"><g transform="translate(55.786208, 70.733205)"><g><path d="M 0.640625 -6.453125 C 0.640625 -7.773438 0.890625 -8.9375 1.390625 -9.9375 C 1.890625 -10.9375 2.566406 -11.703125 3.421875 -12.234375 C 4.285156 -12.773438 5.25 -13.046875 6.3125 -13.046875 C 7.21875 -13.046875 8.007812 -12.859375 8.6875 -12.484375 C 9.375 -12.117188 9.90625 -11.640625 10.28125 -11.046875 L 10.28125 -12.859375 L 14.21875 -12.859375 L 14.21875 0 L 10.28125 0 L 10.28125 -1.828125 C 9.894531 -1.222656 9.359375 -0.734375 8.671875 -0.359375 C 7.992188 0.00390625 7.203125 0.1875 6.296875 0.1875 C 5.242188 0.1875 4.285156 -0.0820312 3.421875 -0.625 C 2.566406 -1.175781 1.890625 -1.953125 1.390625 -2.953125 C 0.890625 -3.960938 0.640625 -5.128906 0.640625 -6.453125 Z M 10.28125 -6.4375 C 10.28125 -7.414062 10.003906 -8.1875 9.453125 -8.75 C 8.910156 -9.320312 8.25 -9.609375 7.46875 -9.609375 C 6.6875 -9.609375 6.019531 -9.328125 5.46875 -8.765625 C 4.925781 -8.203125 4.65625 -7.429688 4.65625 -6.453125 C 4.65625 -5.472656 4.925781 -4.691406 5.46875 -4.109375 C 6.019531 -3.535156 6.6875 -3.25 7.46875 -3.25 C 8.25 -3.25 8.910156 -3.53125 9.453125 -4.09375 C 10.003906 -4.664062 10.28125 -5.445312 10.28125 -6.4375 Z M 10.28125 -6.4375 "/></g></g></g><g fill="#000000" fill-opacity="1"><g transform="translate(71.429754, 70.733205)"><g><path d="M 0.640625 -6.4375 C 0.640625 -7.769531 0.910156 -8.9375 1.453125 -9.9375 C 2.003906 -10.9375 2.765625 -11.703125 3.734375 -12.234375 C 4.710938 -12.773438 5.832031 -13.046875 7.09375 -13.046875 C 8.707031 -13.046875 10.054688 -12.625 11.140625 -11.78125 C 12.222656 -10.9375 12.9375 -9.742188 13.28125 -8.203125 L 9.078125 -8.203125 C 8.722656 -9.191406 8.039062 -9.6875 7.03125 -9.6875 C 6.3125 -9.6875 5.734375 -9.40625 5.296875 -8.84375 C 4.867188 -8.28125 4.65625 -7.476562 4.65625 -6.4375 C 4.65625 -5.382812 4.867188 -4.578125 5.296875 -4.015625 C 5.734375 -3.460938 6.3125 -3.1875 7.03125 -3.1875 C 8.039062 -3.1875 8.722656 -3.675781 9.078125 -4.65625 L 13.28125 -4.65625 C 12.9375 -3.144531 12.21875 -1.957031 11.125 -1.09375 C 10.039062 -0.238281 8.695312 0.1875 7.09375 0.1875 C 5.832031 0.1875 4.710938 -0.078125 3.734375 -0.609375 C 2.765625 -1.148438 2.003906 -1.921875 1.453125 -2.921875 C 0.910156 -3.921875 0.640625 -5.09375 0.640625 -6.4375 Z M 0.640625 -6.4375 "/></g></g></g><g fill="#000000" fill-opacity="1"><g transform="translate(85.368405, 70.733205)"><g><path d="M 0.640625 -6.4375 C 0.640625 -7.769531 0.910156 -8.9375 1.453125 -9.9375 C 2.003906 -10.9375 2.765625 -11.703125 3.734375 -12.234375 C 4.710938 -12.773438 5.832031 -13.046875 7.09375 -13.046875 C 8.707031 -13.046875 10.054688 -12.625 11.140625 -11.78125 C 12.222656 -10.9375 12.9375 -9.742188 13.28125 -8.203125 L 9.078125 -8.203125 C 8.722656 -9.191406 8.039062 -9.6875 7.03125 -9.6875 C 6.3125 -9.6875 5.734375 -9.40625 5.296875 -8.84375 C 4.867188 -8.28125 4.65625 -7.476562 4.65625 -6.4375 C 4.65625 -5.382812 4.867188 -4.578125 5.296875 -4.015625 C 5.734375 -3.460938 6.3125 -3.1875 7.03125 -3.1875 C 8.039062 -3.1875 8.722656 -3.675781 9.078125 -4.65625 L 13.28125 -4.65625 C 12.9375 -3.144531 12.21875 -1.957031 11.125 -1.09375 C 10.039062 -0.238281 8.695312 0.1875 7.09375 0.1875 C 5.832031 0.1875 4.710938 -0.078125 3.734375 -0.609375 C 2.765625 -1.148438 2.003906 -1.921875 1.453125 -2.921875 C 0.910156 -3.921875 0.640625 -5.09375 0.640625 -6.4375 Z M 0.640625 -6.4375 "/></g></g></g><g fill="#000000" fill-opacity="1"><g transform="translate(99.307056, 70.733205)"><g><path d="M 7.28125 0.1875 C 6.019531 0.1875 4.882812 -0.078125 3.875 -0.609375 C 2.875 -1.148438 2.082031 -1.921875 1.5 -2.921875 C 0.925781 -3.921875 0.640625 -5.09375 0.640625 -6.4375 C 0.640625 -7.75 0.929688 -8.910156 1.515625 -9.921875 C 2.097656 -10.929688 2.894531 -11.703125 3.90625 -12.234375 C 4.925781 -12.773438 6.066406 -13.046875 7.328125 -13.046875 C 8.585938 -13.046875 9.722656 -12.773438 10.734375 -12.234375 C 11.753906 -11.703125 12.554688 -10.929688 13.140625 -9.921875 C 13.722656 -8.910156 14.015625 -7.75 14.015625 -6.4375 C 14.015625 -5.113281 13.71875 -3.945312 13.125 -2.9375 C 12.53125 -1.925781 11.722656 -1.148438 10.703125 -0.609375 C 9.679688 -0.078125 8.539062 0.1875 7.28125 0.1875 Z M 7.28125 -3.234375 C 8.03125 -3.234375 8.671875 -3.507812 9.203125 -4.0625 C 9.734375 -4.613281 10 -5.40625 10 -6.4375 C 10 -7.457031 9.738281 -8.242188 9.21875 -8.796875 C 8.707031 -9.359375 8.078125 -9.640625 7.328125 -9.640625 C 6.554688 -9.640625 5.914062 -9.363281 5.40625 -8.8125 C 4.90625 -8.269531 4.65625 -7.476562 4.65625 -6.4375 C 4.65625 -5.40625 4.90625 -4.613281 5.40625 -4.0625 C 5.90625 -3.507812 6.53125 -3.234375 7.28125 -3.234375 Z M 7.28125 -3.234375 "/></g></g></g><g fill="#000000" fill-opacity="1"><g transform="translate(113.982958, 70.733205)"><g><path d="M 14.125 -12.859375 L 14.125 0 L 10.1875 0 L 10.1875 -1.75 C 9.789062 -1.1875 9.25 -0.726562 8.5625 -0.375 C 7.875 -0.03125 7.117188 0.140625 6.296875 0.140625 C 5.304688 0.140625 4.4375 -0.078125 3.6875 -0.515625 C 2.9375 -0.953125 2.351562 -1.585938 1.9375 -2.421875 C 1.519531 -3.253906 1.3125 -4.226562 1.3125 -5.34375 L 1.3125 -12.859375 L 5.234375 -12.859375 L 5.234375 -5.875 C 5.234375 -5.019531 5.453125 -4.351562 5.890625 -3.875 C 6.335938 -3.394531 6.941406 -3.15625 7.703125 -3.15625 C 8.460938 -3.15625 9.066406 -3.394531 9.515625 -3.875 C 9.960938 -4.351562 10.1875 -5.019531 10.1875 -5.875 L 10.1875 -12.859375 Z M 14.125 -12.859375 "/></g></g></g><g fill="#000000" fill-opacity="1"><g transform="translate(129.511308, 70.733205)"><g><path d="M 9.265625 -13 C 10.773438 -13 11.976562 -12.507812 12.875 -11.53125 C 13.769531 -10.5625 14.21875 -9.222656 14.21875 -7.515625 L 14.21875 0 L 10.296875 0 L 10.296875 -6.984375 C 10.296875 -7.847656 10.070312 -8.515625 9.625 -8.984375 C 9.1875 -9.460938 8.59375 -9.703125 7.84375 -9.703125 C 7.082031 -9.703125 6.476562 -9.460938 6.03125 -8.984375 C 5.59375 -8.515625 5.375 -7.847656 5.375 -6.984375 L 5.375 0 L 1.421875 0 L 1.421875 -12.859375 L 5.375 -12.859375 L 5.375 -11.15625 C 5.769531 -11.71875 6.304688 -12.164062 6.984375 -12.5 C 7.660156 -12.832031 8.421875 -13 9.265625 -13 Z M 9.265625 -13 "/></g></g></g><g fill="#000000" fill-opacity="1"><g transform="translate(145.039658, 70.733205)"><g><path d="M 8.59375 -3.34375 L 8.59375 0 L 6.59375 0 C 5.164062 0 4.050781 -0.347656 3.25 -1.046875 C 2.445312 -1.742188 2.046875 -2.882812 2.046875 -4.46875 L 2.046875 -9.59375 L 0.484375 -9.59375 L 0.484375 -12.859375 L 2.046875 -12.859375 L 2.046875 -16 L 6 -16 L 6 -12.859375 L 8.578125 -12.859375 L 8.578125 -9.59375 L 6 -9.59375 L 6 -4.421875 C 6 -4.035156 6.085938 -3.757812 6.265625 -3.59375 C 6.453125 -3.425781 6.757812 -3.34375 7.1875 -3.34375 Z M 8.59375 -3.34375 "/></g></g></g></g></g></g></g></g></g></mask><clipPath id="a46f64d93c"><path d="M 9.441406 0.984375 L 164 0.984375 L 164 124.734375 L 9.441406 124.734375 Z M 9.441406 0.984375 " clip-rule="nonzero"/></clipPath><clipPath id="fe6350fb3f"><rect x="0" width="164" y="0" height="125"/></clipPath><clipPath id="af0373163d"><rect x="0" width="164" y="0" height="125"/></clipPath><clipPath id="a1ea064c36"><rect x="0" width="165" y="0" height="126"/></clipPath><clipPath id="0d70af4b8a"><rect x="0" width="364" y="0" height="126"/></clipPath></defs><g transform="matrix(1, 0, 0, 1, 11, 123)"><g clip-path="url(#0d70af4b8a)"><g fill="#000000" fill-opacity="1"><g transform="translate(0.288236, 80.834596)"><g><path d="M 30.875 -32.359375 L 30.875 0 L 23 0 L 23 -13.328125 L 10.734375 -13.328125 L 10.734375 0 L 2.859375 0 L 2.859375 -32.359375 L 10.734375 -32.359375 L 10.734375 -19.6875 L 23 -19.6875 L 23 -32.359375 Z M 30.875 -32.359375 "/></g></g></g><g fill="#000000" fill-opacity="1"><g transform="translate(33.984483, 80.834596)"><g><path d="M 18.15625 0.328125 C 15.113281 0.328125 12.320312 -0.378906 9.78125 -1.796875 C 7.25 -3.210938 5.238281 -5.1875 3.75 -7.71875 C 2.257812 -10.25 1.515625 -13.097656 1.515625 -16.265625 C 1.515625 -19.429688 2.257812 -22.273438 3.75 -24.796875 C 5.238281 -27.316406 7.25 -29.28125 9.78125 -30.6875 C 12.320312 -32.101562 15.113281 -32.8125 18.15625 -32.8125 C 21.195312 -32.8125 23.984375 -32.101562 26.515625 -30.6875 C 29.054688 -29.28125 31.054688 -27.316406 32.515625 -24.796875 C 33.972656 -22.273438 34.703125 -19.429688 34.703125 -16.265625 C 34.703125 -13.097656 33.960938 -10.25 32.484375 -7.71875 C 31.015625 -5.1875 29.019531 -3.210938 26.5 -1.796875 C 23.976562 -0.378906 21.195312 0.328125 18.15625 0.328125 Z M 18.15625 -6.875 C 20.738281 -6.875 22.804688 -7.734375 24.359375 -9.453125 C 25.910156 -11.171875 26.6875 -13.441406 26.6875 -16.265625 C 26.6875 -19.128906 25.910156 -21.410156 24.359375 -23.109375 C 22.804688 -24.816406 20.738281 -25.671875 18.15625 -25.671875 C 15.550781 -25.671875 13.472656 -24.828125 11.921875 -23.140625 C 10.367188 -21.453125 9.59375 -19.160156 9.59375 -16.265625 C 9.59375 -13.410156 10.367188 -11.128906 11.921875 -9.421875 C 13.472656 -7.722656 15.550781 -6.875 18.15625 -6.875 Z M 18.15625 -6.875 "/></g></g></g><g fill="#000000" fill-opacity="1"><g transform="translate(70.216018, 80.834596)"><g><path d="M 19.359375 0 L 12.625 -12.21875 L 10.734375 -12.21875 L 10.734375 0 L 2.859375 0 L 2.859375 -32.359375 L 16.09375 -32.359375 C 18.632812 -32.359375 20.804688 -31.910156 22.609375 -31.015625 C 24.410156 -30.128906 25.753906 -28.910156 26.640625 -27.359375 C 27.535156 -25.804688 27.984375 -24.078125 27.984375 -22.171875 C 27.984375 -20.015625 27.375 -18.09375 26.15625 -16.40625 C 24.945312 -14.71875 23.15625 -13.519531 20.78125 -12.8125 L 28.25 0 Z M 10.734375 -17.796875 L 15.625 -17.796875 C 17.070312 -17.796875 18.15625 -18.144531 18.875 -18.84375 C 19.59375 -19.550781 19.953125 -20.550781 19.953125 -21.84375 C 19.953125 -23.070312 19.59375 -24.039062 18.875 -24.75 C 18.15625 -25.457031 17.070312 -25.8125 15.625 -25.8125 L 10.734375 -25.8125 Z M 10.734375 -17.796875 "/></g></g></g><g fill="#000000" fill-opacity="1"><g transform="translate(100.27068, 80.834596)"><g><path d="M 23 -5.71875 L 10.921875 -5.71875 L 8.984375 0 L 0.734375 0 L 12.4375 -32.359375 L 21.578125 -32.359375 L 33.28125 0 L 24.9375 0 Z M 20.96875 -11.796875 L 16.96875 -23.640625 L 13 -11.796875 Z M 20.96875 -11.796875 "/></g></g></g><g fill="#000000" fill-opacity="1"><g transform="translate(134.243511, 80.834596)"><g><path d="M 11.25 -6.453125 L 25.171875 -6.453125 L 25.171875 0 L 2.296875 0 L 2.296875 -5.984375 L 16.125 -25.90625 L 2.296875 -25.90625 L 2.296875 -32.359375 L 25.171875 -32.359375 L 25.171875 -26.359375 Z M 11.25 -6.453125 "/></g></g></g><g fill="#000000" fill-opacity="1"><g transform="translate(161.716787, 80.834596)"><g><path d="M 10.734375 -32.359375 L 10.734375 0 L 2.859375 0 L 2.859375 -32.359375 Z M 10.734375 -32.359375 "/></g></g></g><g fill="#000000" fill-opacity="1"><g transform="translate(175.315134, 80.834596)"><g><path d="M 18.15625 0.328125 C 15.113281 0.328125 12.320312 -0.378906 9.78125 -1.796875 C 7.25 -3.210938 5.238281 -5.1875 3.75 -7.71875 C 2.257812 -10.25 1.515625 -13.097656 1.515625 -16.265625 C 1.515625 -19.429688 2.257812 -22.273438 3.75 -24.796875 C 5.238281 -27.316406 7.25 -29.28125 9.78125 -30.6875 C 12.320312 -32.101562 15.113281 -32.8125 18.15625 -32.8125 C 21.195312 -32.8125 23.984375 -32.101562 26.515625 -30.6875 C 29.054688 -29.28125 31.054688 -27.316406 32.515625 -24.796875 C 33.972656 -22.273438 34.703125 -19.429688 34.703125 -16.265625 C 34.703125 -13.097656 33.960938 -10.25 32.484375 -7.71875 C 31.015625 -5.1875 29.019531 -3.210938 26.5 -1.796875 C 23.976562 -0.378906 21.195312 0.328125 18.15625 0.328125 Z M 18.15625 -6.875 C 20.738281 -6.875 22.804688 -7.734375 24.359375 -9.453125 C 25.910156 -11.171875 26.6875 -13.441406 26.6875 -16.265625 C 26.6875 -19.128906 25.910156 -21.410156 24.359375 -23.109375 C 22.804688 -24.816406 20.738281 -25.671875 18.15625 -25.671875 C 15.550781 -25.671875 13.472656 -24.828125 11.921875 -23.140625 C 10.367188 -21.453125 9.59375 -19.160156 9.59375 -16.265625 C 9.59375 -13.410156 10.367188 -11.128906 11.921875 -9.421875 C 13.472656 -7.722656 15.550781 -6.875 18.15625 -6.875 Z M 18.15625 -6.875 "/></g></g></g><g fill="#000000" fill-opacity="1"><g transform="translate(211.546669, 80.834596)"><g><path d="M 31.796875 0 L 23.921875 0 L 10.734375 -19.953125 L 10.734375 0 L 2.859375 0 L 2.859375 -32.359375 L 10.734375 -32.359375 L 23.921875 -12.3125 L 23.921875 -32.359375 L 31.796875 -32.359375 Z M 31.796875 0 "/></g></g></g><g clip-path="url(#2072859e49)"><path fill="#000000" d="M 168.449219 16.417969 C 168.511719 16.992188 168.621094 17.554688 168.78125 18.113281 C 168.9375 18.667969 169.140625 19.203125 169.390625 19.726562 C 169.640625 20.246094 169.933594 20.742188 170.265625 21.214844 C 170.601562 21.683594 170.972656 22.125 171.378906 22.53125 C 171.789062 22.941406 172.226562 23.3125 172.699219 23.644531 C 173.171875 23.980469 173.667969 24.269531 174.1875 24.519531 C 174.707031 24.769531 175.246094 24.972656 175.800781 25.132812 C 176.355469 25.292969 176.921875 25.402344 177.496094 25.464844 C 180.273438 25.769531 183.855469 25.964844 188.484375 25.964844 C 183.855469 25.964844 180.273438 26.164062 177.496094 26.464844 C 176.921875 26.527344 176.355469 26.640625 175.800781 26.796875 C 175.246094 26.957031 174.707031 27.160156 174.1875 27.410156 C 173.667969 27.660156 173.171875 27.953125 172.699219 28.285156 C 172.226562 28.617188 171.789062 28.988281 171.378906 29.398438 C 170.972656 29.804688 170.601562 30.246094 170.265625 30.71875 C 169.933594 31.1875 169.640625 31.683594 169.390625 32.207031 C 169.140625 32.726562 168.9375 33.265625 168.78125 33.820312 C 168.621094 34.375 168.511719 34.9375 168.449219 35.511719 C 168.144531 38.289062 167.949219 41.875 167.949219 46.503906 C 167.949219 41.875 167.75 38.289062 167.445312 35.511719 C 167.382812 34.9375 167.273438 34.375 167.113281 33.820312 C 166.957031 33.265625 166.753906 32.726562 166.503906 32.207031 C 166.253906 31.683594 165.960938 31.1875 165.628906 30.71875 C 165.292969 30.246094 164.921875 29.804688 164.515625 29.398438 C 164.105469 28.988281 163.667969 28.617188 163.195312 28.285156 C 162.722656 27.953125 162.226562 27.660156 161.707031 27.410156 C 161.1875 27.160156 160.648438 26.957031 160.09375 26.796875 C 159.539062 26.640625 158.972656 26.527344 158.398438 26.464844 C 155.621094 26.164062 152.039062 25.964844 147.410156 25.964844 C 152.039062 25.964844 155.621094 25.769531 158.398438 25.464844 C 158.972656 25.402344 159.539062 25.292969 160.09375 25.132812 C 160.648438 24.972656 161.1875 24.769531 161.707031 24.519531 C 162.226562 24.269531 162.722656 23.980469 163.195312 23.644531 C 163.667969 23.3125 164.105469 22.941406 164.515625 22.53125 C 164.921875 22.125 165.292969 21.683594 165.628906 21.214844 C 165.960938 20.742188 166.253906 20.246094 166.503906 19.726562 C 166.753906 19.203125 166.957031 18.667969 167.113281 18.113281 C 167.273438 17.554688 167.382812 16.992188 167.445312 16.417969 C 167.75 13.640625 167.949219 10.054688 167.949219 5.429688 C 167.949219 10.054688 168.144531 13.640625 168.449219 16.417969 Z M 168.449219 16.417969 " fill-opacity="1" fill-rule="nonzero"/></g><g clip-path="url(#7bdb9ab45f)"><g transform="matrix(1, 0, 0, 1, 199, 0)"><g clip-path="url(#a1ea064c36)"><g clip-path="url(#5020951710)"><g transform="matrix(1, 0, 0, 1, 1, 0)"><g clip-path="url(#af0373163d)"><g clip-path="url(#68ded83672)"><g mask="url(#74fdd09f52)"><g><g clip-path="url(#fe6350fb3f)"><g clip-path="url(#a46f64d93c)"><path fill="url(#162c92f3ee)" d="M 9.441406 0.984375 L 9.441406 124.734375 L 164 124.734375 L 164 0.984375 Z M 9.441406 0.984375 " fill-rule="nonzero"/></g></g></g></g></g></g></g></g></g></g></g></g></g></svg>