<svg xmlns="http://www.w3.org/2000/svg" xmlns:xlink="http://www.w3.org/1999/xlink" width="500" zoomAndPan="magnify" viewBox="0 0 375 374.999991" height="500" preserveAspectRatio="xMidYMid meet" version="1.0"><defs><filter x="0%" y="0%" width="100%" height="100%" id="d85d9a753d"><feColorMatrix values="0 0 0 0 1 0 0 0 0 1 0 0 0 0 1 0 0 0 1 0" color-interpolation-filters="sRGB"/></filter><g/><clipPath id="fe6471c781"><path d="M 148.042969 5.5625 L 189.53125 5.5625 L 189.53125 47 L 148.042969 47 Z M 148.042969 5.5625 " clip-rule="nonzero"/></clipPath><clipPath id="05af7cd9af"><path d="M 200 0.28125 L 346 0.28125 L 346 125.800781 L 200 125.800781 Z M 200 0.28125 " clip-rule="nonzero"/></clipPath><clipPath id="fb012cd08f"><path d="M 1.070312 1.117188 L 146 1.117188 L 146 124.867188 L 1.070312 124.867188 Z M 1.070312 1.117188 " clip-rule="nonzero"/></clipPath><clipPath id="71580e1822"><path d="M 0.0703125 0.117188 L 145 0.117188 L 145 123.867188 L 0.0703125 123.867188 Z M 0.0703125 0.117188 " clip-rule="nonzero"/></clipPath><clipPath id="0daaed3d14"><path d="M 0.0703125 0.117188 L 145 0.117188 L 145 123.867188 L 0.0703125 123.867188 Z M 0.0703125 0.117188 " clip-rule="nonzero"/></clipPath><linearGradient x1="-61.452" gradientTransform="matrix(0.749124, 0, 0, 0.745844, 46.107067, 45.962977)" y1="21.5" x2="132.011402" gradientUnits="userSpaceOnUse" y2="21.5" id="ecbce36bfe"><stop stop-opacity="1" stop-color="rgb(100%, 100%, 100%)" offset="0"/><stop stop-opacity="1" stop-color="rgb(100%, 100%, 100%)" offset="0.25"/><stop stop-opacity="1" stop-color="rgb(100%, 100%, 100%)" offset="0.3125"/><stop stop-opacity="1" stop-color="rgb(99.786377%, 99.786377%, 99.786377%)" offset="0.316406"/><stop stop-opacity="1" stop-color="rgb(99.57428%, 99.57428%, 99.57428%)" offset="0.320312"/><stop stop-opacity="1" stop-color="rgb(98.931885%, 98.931885%, 98.931885%)" offset="0.324219"/><stop stop-opacity="1" stop-color="rgb(98.28949%, 98.28949%, 98.28949%)" offset="0.328125"/><stop stop-opacity="1" stop-color="rgb(97.647095%, 97.647095%, 97.647095%)" offset="0.332031"/><stop stop-opacity="1" stop-color="rgb(97.0047%, 97.0047%, 97.0047%)" offset="0.335938"/><stop stop-opacity="1" stop-color="rgb(96.362305%, 96.362305%, 96.362305%)" offset="0.339844"/><stop stop-opacity="1" stop-color="rgb(95.721436%, 95.721436%, 95.721436%)" offset="0.34375"/><stop stop-opacity="1" stop-color="rgb(95.079041%, 95.079041%, 95.079041%)" offset="0.347656"/><stop stop-opacity="1" stop-color="rgb(94.436646%, 94.436646%, 94.436646%)" offset="0.351562"/><stop stop-opacity="1" stop-color="rgb(93.79425%, 93.79425%, 93.79425%)" offset="0.355469"/><stop stop-opacity="1" stop-color="rgb(93.151855%, 93.151855%, 93.151855%)" offset="0.359375"/><stop stop-opacity="1" stop-color="rgb(92.50946%, 92.50946%, 92.50946%)" offset="0.363281"/><stop stop-opacity="1" stop-color="rgb(91.868591%, 91.868591%, 91.868591%)" offset="0.367188"/><stop stop-opacity="1" stop-color="rgb(91.226196%, 91.226196%, 91.226196%)" offset="0.371094"/><stop stop-opacity="1" stop-color="rgb(90.583801%, 90.583801%, 90.583801%)" offset="0.375"/><stop stop-opacity="1" stop-color="rgb(89.941406%, 89.941406%, 89.941406%)" offset="0.378906"/><stop stop-opacity="1" stop-color="rgb(89.299011%, 89.299011%, 89.299011%)" offset="0.382812"/><stop stop-opacity="1" stop-color="rgb(88.656616%, 88.656616%, 88.656616%)" offset="0.386719"/><stop stop-opacity="1" stop-color="rgb(88.015747%, 88.015747%, 88.015747%)" offset="0.390625"/><stop stop-opacity="1" stop-color="rgb(87.373352%, 87.373352%, 87.373352%)" offset="0.394531"/><stop stop-opacity="1" stop-color="rgb(86.730957%, 86.730957%, 86.730957%)" offset="0.398438"/><stop stop-opacity="1" stop-color="rgb(86.088562%, 86.088562%, 86.088562%)" offset="0.402344"/><stop stop-opacity="1" stop-color="rgb(85.446167%, 85.446167%, 85.446167%)" offset="0.40625"/><stop stop-opacity="1" stop-color="rgb(84.803772%, 84.803772%, 84.803772%)" offset="0.410156"/><stop stop-opacity="1" stop-color="rgb(84.161377%, 84.161377%, 84.161377%)" offset="0.414062"/><stop stop-opacity="1" stop-color="rgb(83.518982%, 83.518982%, 83.518982%)" offset="0.417969"/><stop stop-opacity="1" stop-color="rgb(82.878113%, 82.878113%, 82.878113%)" offset="0.421875"/><stop stop-opacity="1" stop-color="rgb(82.235718%, 82.235718%, 82.235718%)" offset="0.425781"/><stop stop-opacity="1" stop-color="rgb(81.593323%, 81.593323%, 81.593323%)" offset="0.429688"/><stop stop-opacity="1" stop-color="rgb(80.950928%, 80.950928%, 80.950928%)" offset="0.433594"/><stop stop-opacity="1" stop-color="rgb(80.308533%, 80.308533%, 80.308533%)" offset="0.4375"/><stop stop-opacity="1" stop-color="rgb(79.666138%, 79.666138%, 79.666138%)" offset="0.441406"/><stop stop-opacity="1" stop-color="rgb(79.025269%, 79.025269%, 79.025269%)" offset="0.445312"/><stop stop-opacity="1" stop-color="rgb(78.382874%, 78.382874%, 78.382874%)" offset="0.449219"/><stop stop-opacity="1" stop-color="rgb(77.740479%, 77.740479%, 77.740479%)" offset="0.453125"/><stop stop-opacity="1" stop-color="rgb(77.098083%, 77.098083%, 77.098083%)" offset="0.457031"/><stop stop-opacity="1" stop-color="rgb(76.455688%, 76.455688%, 76.455688%)" offset="0.460938"/><stop stop-opacity="1" stop-color="rgb(75.813293%, 75.813293%, 75.813293%)" offset="0.464844"/><stop stop-opacity="1" stop-color="rgb(75.172424%, 75.172424%, 75.172424%)" offset="0.46875"/><stop stop-opacity="1" stop-color="rgb(74.530029%, 74.530029%, 74.530029%)" offset="0.472656"/><stop stop-opacity="1" stop-color="rgb(73.887634%, 73.887634%, 73.887634%)" offset="0.476562"/><stop stop-opacity="1" stop-color="rgb(73.245239%, 73.245239%, 73.245239%)" offset="0.480469"/><stop stop-opacity="1" stop-color="rgb(72.602844%, 72.602844%, 72.602844%)" offset="0.484375"/><stop stop-opacity="1" stop-color="rgb(71.960449%, 71.960449%, 71.960449%)" offset="0.488281"/><stop stop-opacity="1" stop-color="rgb(71.31958%, 71.31958%, 71.31958%)" offset="0.492188"/><stop stop-opacity="1" stop-color="rgb(70.677185%, 70.677185%, 70.677185%)" offset="0.496094"/><stop stop-opacity="1" stop-color="rgb(70.03479%, 70.03479%, 70.03479%)" offset="0.5"/><stop stop-opacity="1" stop-color="rgb(69.392395%, 69.392395%, 69.392395%)" offset="0.503906"/><stop stop-opacity="1" stop-color="rgb(68.75%, 68.75%, 68.75%)" offset="0.507812"/><stop stop-opacity="1" stop-color="rgb(68.107605%, 68.107605%, 68.107605%)" offset="0.511719"/><stop stop-opacity="1" stop-color="rgb(67.466736%, 67.466736%, 67.466736%)" offset="0.515625"/><stop stop-opacity="1" stop-color="rgb(66.824341%, 66.824341%, 66.824341%)" offset="0.519531"/><stop stop-opacity="1" stop-color="rgb(66.181946%, 66.181946%, 66.181946%)" offset="0.523438"/><stop stop-opacity="1" stop-color="rgb(65.539551%, 65.539551%, 65.539551%)" offset="0.527344"/><stop stop-opacity="1" stop-color="rgb(64.897156%, 64.897156%, 64.897156%)" offset="0.53125"/><stop stop-opacity="1" stop-color="rgb(64.254761%, 64.254761%, 64.254761%)" offset="0.535156"/><stop stop-opacity="1" stop-color="rgb(63.613892%, 63.613892%, 63.613892%)" offset="0.539062"/><stop stop-opacity="1" stop-color="rgb(62.971497%, 62.971497%, 62.971497%)" offset="0.542969"/><stop stop-opacity="1" stop-color="rgb(62.329102%, 62.329102%, 62.329102%)" offset="0.546875"/><stop stop-opacity="1" stop-color="rgb(61.686707%, 61.686707%, 61.686707%)" offset="0.550781"/><stop stop-opacity="1" stop-color="rgb(61.044312%, 61.044312%, 61.044312%)" offset="0.554688"/><stop stop-opacity="1" stop-color="rgb(60.91156%, 60.91156%, 60.91156%)" offset="0.5625"/><stop stop-opacity="1" stop-color="rgb(60.778809%, 60.778809%, 60.778809%)" offset="0.625"/><stop stop-opacity="1" stop-color="rgb(60.778809%, 60.778809%, 60.778809%)" offset="0.75"/><stop stop-opacity="1" stop-color="rgb(60.778809%, 60.778809%, 60.778809%)" offset="1"/></linearGradient><clipPath id="0d0a766af3"><rect x="0" width="145" y="0" height="124"/></clipPath><clipPath id="5b64a4eb49"><path d="M 0.0703125 0.117188 L 145 0.117188 L 145 123.867188 L 0.0703125 123.867188 Z M 0.0703125 0.117188 " clip-rule="nonzero"/></clipPath><clipPath id="de3dc0b57e"><rect x="0" width="145" y="0" height="124"/></clipPath><clipPath id="a86c755474"><rect x="0" width="145" y="0" height="124"/></clipPath><mask id="68c406d1a6"><g filter="url(#d85d9a753d)"><g><g clip-path="url(#a86c755474)"><g clip-path="url(#5b64a4eb49)"><g><g clip-path="url(#de3dc0b57e)"><g fill="#000000" fill-opacity="1"><g transform="translate(45.832351, 69.867424)"><g><path d="M 6.984375 -12.84375 C 8.078125 -12.84375 9.03125 -12.601562 9.84375 -12.125 C 10.664062 -11.644531 11.28125 -11.046875 11.6875 -10.328125 L 11.6875 -12.625 L 13.8125 -12.625 L 13.8125 0.28125 C 13.8125 1.425781 13.5625 2.445312 13.0625 3.34375 C 12.570312 4.25 11.867188 4.953125 10.953125 5.453125 C 10.046875 5.960938 8.984375 6.21875 7.765625 6.21875 C 6.109375 6.21875 4.722656 5.828125 3.609375 5.046875 C 2.503906 4.265625 1.851562 3.195312 1.65625 1.84375 L 3.734375 1.84375 C 3.960938 2.613281 4.4375 3.234375 5.15625 3.703125 C 5.882812 4.171875 6.753906 4.40625 7.765625 4.40625 C 8.921875 4.40625 9.863281 4.039062 10.59375 3.3125 C 11.320312 2.59375 11.6875 1.582031 11.6875 0.28125 L 11.6875 -2.375 C 11.269531 -1.632812 10.65625 -1.019531 9.84375 -0.53125 C 9.03125 -0.0390625 8.078125 0.203125 6.984375 0.203125 C 5.859375 0.203125 4.835938 -0.0703125 3.921875 -0.625 C 3.015625 -1.175781 2.296875 -1.953125 1.765625 -2.953125 C 1.242188 -3.953125 0.984375 -5.085938 0.984375 -6.359375 C 0.984375 -7.648438 1.242188 -8.78125 1.765625 -9.75 C 2.296875 -10.726562 3.015625 -11.488281 3.921875 -12.03125 C 4.835938 -12.570312 5.859375 -12.84375 6.984375 -12.84375 Z M 11.6875 -6.34375 C 11.6875 -7.289062 11.492188 -8.117188 11.109375 -8.828125 C 10.722656 -9.535156 10.203125 -10.078125 9.546875 -10.453125 C 8.898438 -10.828125 8.179688 -11.015625 7.390625 -11.015625 C 6.609375 -11.015625 5.894531 -10.828125 5.25 -10.453125 C 4.601562 -10.085938 4.085938 -9.550781 3.703125 -8.84375 C 3.328125 -8.144531 3.140625 -7.316406 3.140625 -6.359375 C 3.140625 -5.390625 3.328125 -4.546875 3.703125 -3.828125 C 4.085938 -3.117188 4.601562 -2.578125 5.25 -2.203125 C 5.894531 -1.828125 6.609375 -1.640625 7.390625 -1.640625 C 8.179688 -1.640625 8.898438 -1.828125 9.546875 -2.203125 C 10.203125 -2.578125 10.722656 -3.117188 11.109375 -3.828125 C 11.492188 -4.546875 11.6875 -5.382812 11.6875 -6.34375 Z M 11.6875 -6.34375 "/></g></g></g><g fill="#000000" fill-opacity="1"><g transform="translate(61.406786, 69.867424)"><g><path d="M 3.875 -10.578125 C 4.238281 -11.296875 4.757812 -11.851562 5.4375 -12.25 C 6.125 -12.65625 6.960938 -12.859375 7.953125 -12.859375 L 7.953125 -10.6875 L 7.390625 -10.6875 C 5.046875 -10.6875 3.875 -9.414062 3.875 -6.875 L 3.875 0 L 1.78125 0 L 1.78125 -12.625 L 3.875 -12.625 Z M 3.875 -10.578125 "/></g></g></g><g fill="#000000" fill-opacity="1"><g transform="translate(70.000371, 69.867424)"><g><path d="M 7.28125 0.203125 C 6.101562 0.203125 5.03125 -0.0625 4.0625 -0.59375 C 3.101562 -1.132812 2.347656 -1.898438 1.796875 -2.890625 C 1.253906 -3.878906 0.984375 -5.03125 0.984375 -6.34375 C 0.984375 -7.632812 1.265625 -8.773438 1.828125 -9.765625 C 2.390625 -10.753906 3.15625 -11.515625 4.125 -12.046875 C 5.09375 -12.578125 6.175781 -12.84375 7.375 -12.84375 C 8.570312 -12.84375 9.65625 -12.578125 10.625 -12.046875 C 11.59375 -11.515625 12.359375 -10.753906 12.921875 -9.765625 C 13.484375 -8.785156 13.765625 -7.644531 13.765625 -6.34375 C 13.765625 -5.03125 13.472656 -3.878906 12.890625 -2.890625 C 12.316406 -1.898438 11.535156 -1.132812 10.546875 -0.59375 C 9.566406 -0.0625 8.476562 0.203125 7.28125 0.203125 Z M 7.28125 -1.640625 C 8.03125 -1.640625 8.734375 -1.816406 9.390625 -2.171875 C 10.054688 -2.523438 10.59375 -3.050781 11 -3.75 C 11.40625 -4.457031 11.609375 -5.320312 11.609375 -6.34375 C 11.609375 -7.351562 11.410156 -8.210938 11.015625 -8.921875 C 10.617188 -9.628906 10.097656 -10.15625 9.453125 -10.5 C 8.804688 -10.84375 8.109375 -11.015625 7.359375 -11.015625 C 6.585938 -11.015625 5.878906 -10.84375 5.234375 -10.5 C 4.597656 -10.15625 4.085938 -9.628906 3.703125 -8.921875 C 3.328125 -8.210938 3.140625 -7.351562 3.140625 -6.34375 C 3.140625 -5.3125 3.328125 -4.441406 3.703125 -3.734375 C 4.078125 -3.023438 4.578125 -2.5 5.203125 -2.15625 C 5.835938 -1.8125 6.53125 -1.640625 7.28125 -1.640625 Z M 7.28125 -1.640625 "/></g></g></g><g fill="#000000" fill-opacity="1"><g transform="translate(84.745396, 69.867424)"><g><path d="M 12.96875 -12.625 L 12.96875 0 L 10.875 0 L 10.875 -1.859375 C 10.476562 -1.222656 9.921875 -0.722656 9.203125 -0.359375 C 8.492188 0.00390625 7.707031 0.1875 6.84375 0.1875 C 5.863281 0.1875 4.976562 -0.015625 4.1875 -0.421875 C 3.40625 -0.828125 2.785156 -1.4375 2.328125 -2.25 C 1.878906 -3.070312 1.65625 -4.066406 1.65625 -5.234375 L 1.65625 -12.625 L 3.734375 -12.625 L 3.734375 -5.515625 C 3.734375 -4.265625 4.046875 -3.304688 4.671875 -2.640625 C 5.304688 -1.972656 6.171875 -1.640625 7.265625 -1.640625 C 8.378906 -1.640625 9.257812 -1.984375 9.90625 -2.671875 C 10.550781 -3.359375 10.875 -4.363281 10.875 -5.6875 L 10.875 -12.625 Z M 12.96875 -12.625 "/></g></g></g><g fill="#000000" fill-opacity="1"><g transform="translate(99.49042, 69.867424)"><g><path d="M 3.875 -10.296875 C 4.289062 -11.023438 4.90625 -11.628906 5.71875 -12.109375 C 6.539062 -12.597656 7.5 -12.84375 8.59375 -12.84375 C 9.71875 -12.84375 10.734375 -12.570312 11.640625 -12.03125 C 12.554688 -11.488281 13.273438 -10.726562 13.796875 -9.75 C 14.328125 -8.78125 14.59375 -7.648438 14.59375 -6.359375 C 14.59375 -5.085938 14.328125 -3.953125 13.796875 -2.953125 C 13.273438 -1.953125 12.554688 -1.175781 11.640625 -0.625 C 10.734375 -0.0703125 9.71875 0.203125 8.59375 0.203125 C 7.519531 0.203125 6.570312 -0.0351562 5.75 -0.515625 C 4.925781 -1.003906 4.300781 -1.609375 3.875 -2.328125 L 3.875 6 L 1.78125 6 L 1.78125 -12.625 L 3.875 -12.625 Z M 12.453125 -6.359375 C 12.453125 -7.316406 12.257812 -8.144531 11.875 -8.84375 C 11.488281 -9.550781 10.96875 -10.085938 10.3125 -10.453125 C 9.65625 -10.828125 8.9375 -11.015625 8.15625 -11.015625 C 7.382812 -11.015625 6.671875 -10.828125 6.015625 -10.453125 C 5.367188 -10.078125 4.847656 -9.53125 4.453125 -8.8125 C 4.066406 -8.101562 3.875 -7.28125 3.875 -6.34375 C 3.875 -5.382812 4.066406 -4.546875 4.453125 -3.828125 C 4.847656 -3.117188 5.367188 -2.578125 6.015625 -2.203125 C 6.671875 -1.828125 7.382812 -1.640625 8.15625 -1.640625 C 8.9375 -1.640625 9.65625 -1.828125 10.3125 -2.203125 C 10.96875 -2.578125 11.488281 -3.117188 11.875 -3.828125 C 12.257812 -4.546875 12.453125 -5.390625 12.453125 -6.359375 Z M 12.453125 -6.359375 "/></g></g></g></g></g></g></g></g></g></mask><clipPath id="c552b5c5e6"><path d="M 0.0703125 0.117188 L 145 0.117188 L 145 123.867188 L 0.0703125 123.867188 Z M 0.0703125 0.117188 " clip-rule="nonzero"/></clipPath><clipPath id="addae045c4"><rect x="0" width="145" y="0" height="124"/></clipPath><clipPath id="4470a4c004"><rect x="0" width="145" y="0" height="124"/></clipPath><clipPath id="8f9d71a36b"><rect x="0" width="146" y="0" height="126"/></clipPath><clipPath id="f013aaf445"><rect x="0" width="141" y="0" height="19"/></clipPath><clipPath id="a1cd8292b6"><rect x="0" width="346" y="0" height="126"/></clipPath></defs><g transform="matrix(1, 0, 0, 1, 29, 125)"><g clip-path="url(#a1cd8292b6)"><g fill="#ffffff" fill-opacity="1"><g transform="translate(0.92028, 80.968814)"><g><path d="M 30.875 -32.359375 L 30.875 0 L 23 0 L 23 -13.328125 L 10.734375 -13.328125 L 10.734375 0 L 2.859375 0 L 2.859375 -32.359375 L 10.734375 -32.359375 L 10.734375 -19.6875 L 23 -19.6875 L 23 -32.359375 Z M 30.875 -32.359375 "/></g></g></g><g fill="#ffffff" fill-opacity="1"><g transform="translate(34.616527, 80.968814)"><g><path d="M 18.15625 0.328125 C 15.113281 0.328125 12.320312 -0.378906 9.78125 -1.796875 C 7.25 -3.210938 5.238281 -5.1875 3.75 -7.71875 C 2.257812 -10.25 1.515625 -13.097656 1.515625 -16.265625 C 1.515625 -19.429688 2.257812 -22.273438 3.75 -24.796875 C 5.238281 -27.316406 7.25 -29.28125 9.78125 -30.6875 C 12.320312 -32.101562 15.113281 -32.8125 18.15625 -32.8125 C 21.195312 -32.8125 23.984375 -32.101562 26.515625 -30.6875 C 29.054688 -29.28125 31.054688 -27.316406 32.515625 -24.796875 C 33.972656 -22.273438 34.703125 -19.429688 34.703125 -16.265625 C 34.703125 -13.097656 33.960938 -10.25 32.484375 -7.71875 C 31.015625 -5.1875 29.019531 -3.210938 26.5 -1.796875 C 23.976562 -0.378906 21.195312 0.328125 18.15625 0.328125 Z M 18.15625 -6.875 C 20.738281 -6.875 22.804688 -7.734375 24.359375 -9.453125 C 25.910156 -11.171875 26.6875 -13.441406 26.6875 -16.265625 C 26.6875 -19.128906 25.910156 -21.410156 24.359375 -23.109375 C 22.804688 -24.816406 20.738281 -25.671875 18.15625 -25.671875 C 15.550781 -25.671875 13.472656 -24.828125 11.921875 -23.140625 C 10.367188 -21.453125 9.59375 -19.160156 9.59375 -16.265625 C 9.59375 -13.410156 10.367188 -11.128906 11.921875 -9.421875 C 13.472656 -7.722656 15.550781 -6.875 18.15625 -6.875 Z M 18.15625 -6.875 "/></g></g></g><g fill="#ffffff" fill-opacity="1"><g transform="translate(70.848062, 80.968814)"><g><path d="M 19.359375 0 L 12.625 -12.21875 L 10.734375 -12.21875 L 10.734375 0 L 2.859375 0 L 2.859375 -32.359375 L 16.09375 -32.359375 C 18.632812 -32.359375 20.804688 -31.910156 22.609375 -31.015625 C 24.410156 -30.128906 25.753906 -28.910156 26.640625 -27.359375 C 27.535156 -25.804688 27.984375 -24.078125 27.984375 -22.171875 C 27.984375 -20.015625 27.375 -18.09375 26.15625 -16.40625 C 24.945312 -14.71875 23.15625 -13.519531 20.78125 -12.8125 L 28.25 0 Z M 10.734375 -17.796875 L 15.625 -17.796875 C 17.070312 -17.796875 18.15625 -18.144531 18.875 -18.84375 C 19.59375 -19.550781 19.953125 -20.550781 19.953125 -21.84375 C 19.953125 -23.070312 19.59375 -24.039062 18.875 -24.75 C 18.15625 -25.457031 17.070312 -25.8125 15.625 -25.8125 L 10.734375 -25.8125 Z M 10.734375 -17.796875 "/></g></g></g><g fill="#ffffff" fill-opacity="1"><g transform="translate(100.902724, 80.968814)"><g><path d="M 23 -5.71875 L 10.921875 -5.71875 L 8.984375 0 L 0.734375 0 L 12.4375 -32.359375 L 21.578125 -32.359375 L 33.28125 0 L 24.9375 0 Z M 20.96875 -11.796875 L 16.96875 -23.640625 L 13 -11.796875 Z M 20.96875 -11.796875 "/></g></g></g><g fill="#ffffff" fill-opacity="1"><g transform="translate(134.875555, 80.968814)"><g><path d="M 11.25 -6.453125 L 25.171875 -6.453125 L 25.171875 0 L 2.296875 0 L 2.296875 -5.984375 L 16.125 -25.90625 L 2.296875 -25.90625 L 2.296875 -32.359375 L 25.171875 -32.359375 L 25.171875 -26.359375 Z M 11.25 -6.453125 "/></g></g></g><g fill="#ffffff" fill-opacity="1"><g transform="translate(162.348832, 80.968814)"><g><path d="M 10.734375 -32.359375 L 10.734375 0 L 2.859375 0 L 2.859375 -32.359375 Z M 10.734375 -32.359375 "/></g></g></g><g fill="#ffffff" fill-opacity="1"><g transform="translate(175.947178, 80.968814)"><g><path d="M 18.15625 0.328125 C 15.113281 0.328125 12.320312 -0.378906 9.78125 -1.796875 C 7.25 -3.210938 5.238281 -5.1875 3.75 -7.71875 C 2.257812 -10.25 1.515625 -13.097656 1.515625 -16.265625 C 1.515625 -19.429688 2.257812 -22.273438 3.75 -24.796875 C 5.238281 -27.316406 7.25 -29.28125 9.78125 -30.6875 C 12.320312 -32.101562 15.113281 -32.8125 18.15625 -32.8125 C 21.195312 -32.8125 23.984375 -32.101562 26.515625 -30.6875 C 29.054688 -29.28125 31.054688 -27.316406 32.515625 -24.796875 C 33.972656 -22.273438 34.703125 -19.429688 34.703125 -16.265625 C 34.703125 -13.097656 33.960938 -10.25 32.484375 -7.71875 C 31.015625 -5.1875 29.019531 -3.210938 26.5 -1.796875 C 23.976562 -0.378906 21.195312 0.328125 18.15625 0.328125 Z M 18.15625 -6.875 C 20.738281 -6.875 22.804688 -7.734375 24.359375 -9.453125 C 25.910156 -11.171875 26.6875 -13.441406 26.6875 -16.265625 C 26.6875 -19.128906 25.910156 -21.410156 24.359375 -23.109375 C 22.804688 -24.816406 20.738281 -25.671875 18.15625 -25.671875 C 15.550781 -25.671875 13.472656 -24.828125 11.921875 -23.140625 C 10.367188 -21.453125 9.59375 -19.160156 9.59375 -16.265625 C 9.59375 -13.410156 10.367188 -11.128906 11.921875 -9.421875 C 13.472656 -7.722656 15.550781 -6.875 18.15625 -6.875 Z M 18.15625 -6.875 "/></g></g></g><g fill="#ffffff" fill-opacity="1"><g transform="translate(212.178713, 80.968814)"><g><path d="M 31.796875 0 L 23.921875 0 L 10.734375 -19.953125 L 10.734375 0 L 2.859375 0 L 2.859375 -32.359375 L 10.734375 -32.359375 L 23.921875 -12.3125 L 23.921875 -32.359375 L 31.796875 -32.359375 Z M 31.796875 0 "/></g></g></g><g clip-path="url(#fe6471c781)"><path fill="#ffffff" d="M 169.082031 16.550781 C 169.144531 17.125 169.253906 17.691406 169.410156 18.246094 C 169.570312 18.800781 169.773438 19.339844 170.023438 19.859375 C 170.273438 20.378906 170.566406 20.875 170.898438 21.347656 C 171.234375 21.820312 171.605469 22.257812 172.011719 22.667969 C 172.421875 23.074219 172.859375 23.445312 173.332031 23.78125 C 173.800781 24.113281 174.296875 24.40625 174.820312 24.65625 C 175.339844 24.90625 175.878906 25.109375 176.433594 25.265625 C 176.988281 25.425781 177.554688 25.535156 178.128906 25.597656 C 180.902344 25.902344 184.488281 26.101562 189.117188 26.101562 C 184.488281 26.101562 180.902344 26.296875 178.128906 26.601562 C 177.554688 26.664062 176.988281 26.773438 176.433594 26.933594 C 175.878906 27.089844 175.339844 27.292969 174.820312 27.542969 C 174.296875 27.792969 173.800781 28.085938 173.332031 28.417969 C 172.859375 28.753906 172.421875 29.125 172.011719 29.53125 C 171.605469 29.941406 171.234375 30.378906 170.898438 30.851562 C 170.566406 31.324219 170.273438 31.820312 170.023438 32.339844 C 169.773438 32.859375 169.570312 33.398438 169.410156 33.953125 C 169.253906 34.507812 169.144531 35.074219 169.082031 35.648438 C 168.777344 38.425781 168.578125 42.007812 168.578125 46.636719 C 168.578125 42.007812 168.382812 38.425781 168.078125 35.648438 C 168.015625 35.074219 167.90625 34.507812 167.746094 33.953125 C 167.589844 33.398438 167.382812 32.859375 167.136719 32.339844 C 166.886719 31.820312 166.59375 31.324219 166.257812 30.851562 C 165.925781 30.378906 165.554688 29.941406 165.148438 29.53125 C 164.738281 29.125 164.296875 28.753906 163.828125 28.417969 C 163.355469 28.085938 162.859375 27.792969 162.339844 27.542969 C 161.820312 27.292969 161.28125 27.089844 160.726562 26.933594 C 160.171875 26.773438 159.605469 26.664062 159.03125 26.601562 C 156.253906 26.296875 152.671875 26.101562 148.042969 26.101562 C 152.671875 26.101562 156.253906 25.902344 159.03125 25.597656 C 159.605469 25.535156 160.171875 25.425781 160.726562 25.265625 C 161.28125 25.109375 161.820312 24.90625 162.339844 24.65625 C 162.859375 24.40625 163.355469 24.113281 163.828125 23.78125 C 164.296875 23.445312 164.738281 23.074219 165.148438 22.667969 C 165.554688 22.257812 165.925781 21.820312 166.257812 21.347656 C 166.59375 20.875 166.886719 20.378906 167.136719 19.859375 C 167.382812 19.339844 167.589844 18.800781 167.746094 18.246094 C 167.90625 17.691406 168.015625 17.125 168.078125 16.550781 C 168.382812 13.773438 168.578125 10.191406 168.578125 5.5625 C 168.578125 10.191406 168.777344 13.773438 169.082031 16.550781 Z M 169.082031 16.550781 " fill-opacity="1" fill-rule="nonzero"/></g><g clip-path="url(#05af7cd9af)"><g transform="matrix(1, 0, 0, 1, 200, 0)"><g clip-path="url(#8f9d71a36b)"><g clip-path="url(#fb012cd08f)"><g transform="matrix(1, 0, 0, 1, 1, 1)"><g clip-path="url(#4470a4c004)"><g clip-path="url(#71580e1822)"><g mask="url(#68c406d1a6)"><g><g clip-path="url(#addae045c4)"><g clip-path="url(#c552b5c5e6)"><path fill="url(#ecbce36bfe)" d="M 0.0703125 0.117188 L 0.0703125 123.867188 L 145 123.867188 L 145 0.117188 Z M 0.0703125 0.117188 " fill-rule="nonzero"/></g></g></g></g></g></g></g></g></g></g></g><g transform="matrix(1, 0, 0, 1, 88, 83)"><g clip-path="url(#f013aaf445)"><g fill="#ffffff" fill-opacity="1"><g transform="translate(1.079162, 13.529185)"><g><path d="M 0.515625 -4.1875 C 0.515625 -5 0.695312 -5.734375 1.0625 -6.390625 C 1.4375 -7.046875 1.941406 -7.554688 2.578125 -7.921875 C 3.210938 -8.285156 3.914062 -8.46875 4.6875 -8.46875 C 5.601562 -8.46875 6.398438 -8.25 7.078125 -7.8125 C 7.753906 -7.375 8.25 -6.75 8.5625 -5.9375 L 7.265625 -5.9375 C 7.023438 -6.445312 6.6875 -6.835938 6.25 -7.109375 C 5.820312 -7.378906 5.300781 -7.515625 4.6875 -7.515625 C 4.101562 -7.515625 3.578125 -7.378906 3.109375 -7.109375 C 2.648438 -6.835938 2.285156 -6.453125 2.015625 -5.953125 C 1.753906 -5.453125 1.625 -4.863281 1.625 -4.1875 C 1.625 -3.519531 1.753906 -2.9375 2.015625 -2.4375 C 2.285156 -1.9375 2.648438 -1.550781 3.109375 -1.28125 C 3.578125 -1.007812 4.101562 -0.875 4.6875 -0.875 C 5.300781 -0.875 5.820312 -1.007812 6.25 -1.28125 C 6.6875 -1.550781 7.023438 -1.9375 7.265625 -2.4375 L 8.5625 -2.4375 C 8.25 -1.632812 7.753906 -1.015625 7.078125 -0.578125 C 6.398438 -0.140625 5.601562 0.078125 4.6875 0.078125 C 3.914062 0.078125 3.210938 -0.101562 2.578125 -0.46875 C 1.941406 -0.832031 1.4375 -1.335938 1.0625 -1.984375 C 0.695312 -2.640625 0.515625 -3.375 0.515625 -4.1875 Z M 0.515625 -4.1875 "/></g></g></g><g fill="#ffffff" fill-opacity="1"><g transform="translate(10.343176, 13.529185)"><g><path d="M 3.796875 0.109375 C 3.179688 0.109375 2.625 -0.03125 2.125 -0.3125 C 1.625 -0.59375 1.226562 -0.988281 0.9375 -1.5 C 0.65625 -2.019531 0.515625 -2.617188 0.515625 -3.296875 C 0.515625 -3.972656 0.660156 -4.566406 0.953125 -5.078125 C 1.242188 -5.597656 1.640625 -5.992188 2.140625 -6.265625 C 2.648438 -6.546875 3.21875 -6.6875 3.84375 -6.6875 C 4.46875 -6.6875 5.03125 -6.546875 5.53125 -6.265625 C 6.03125 -5.992188 6.425781 -5.597656 6.71875 -5.078125 C 7.007812 -4.566406 7.15625 -3.972656 7.15625 -3.296875 C 7.15625 -2.617188 7.003906 -2.019531 6.703125 -1.5 C 6.410156 -0.988281 6.007812 -0.59375 5.5 -0.3125 C 4.988281 -0.03125 4.421875 0.109375 3.796875 0.109375 Z M 3.796875 -0.859375 C 4.179688 -0.859375 4.546875 -0.945312 4.890625 -1.125 C 5.234375 -1.3125 5.507812 -1.585938 5.71875 -1.953125 C 5.9375 -2.328125 6.046875 -2.773438 6.046875 -3.296875 C 6.046875 -3.828125 5.941406 -4.273438 5.734375 -4.640625 C 5.523438 -5.015625 5.253906 -5.289062 4.921875 -5.46875 C 4.585938 -5.644531 4.222656 -5.734375 3.828125 -5.734375 C 3.429688 -5.734375 3.066406 -5.644531 2.734375 -5.46875 C 2.398438 -5.289062 2.128906 -5.015625 1.921875 -4.640625 C 1.722656 -4.273438 1.625 -3.828125 1.625 -3.296875 C 1.625 -2.765625 1.722656 -2.3125 1.921875 -1.9375 C 2.117188 -1.570312 2.378906 -1.300781 2.703125 -1.125 C 3.035156 -0.945312 3.398438 -0.859375 3.796875 -0.859375 Z M 3.796875 -0.859375 "/></g></g></g><g fill="#ffffff" fill-opacity="1"><g transform="translate(18.023191, 13.529185)"><g><path d="M 4.125 -6.703125 C 4.925781 -6.703125 5.570312 -6.457031 6.0625 -5.96875 C 6.5625 -5.488281 6.8125 -4.789062 6.8125 -3.875 L 6.8125 0 L 5.734375 0 L 5.734375 -3.71875 C 5.734375 -4.375 5.566406 -4.875 5.234375 -5.21875 C 4.910156 -5.570312 4.46875 -5.75 3.90625 -5.75 C 3.320312 -5.75 2.859375 -5.566406 2.515625 -5.203125 C 2.179688 -4.847656 2.015625 -4.328125 2.015625 -3.640625 L 2.015625 0 L 0.921875 0 L 0.921875 -6.578125 L 2.015625 -6.578125 L 2.015625 -5.640625 C 2.234375 -5.972656 2.523438 -6.234375 2.890625 -6.421875 C 3.265625 -6.609375 3.675781 -6.703125 4.125 -6.703125 Z M 4.125 -6.703125 "/></g></g></g><g fill="#ffffff" fill-opacity="1"><g transform="translate(25.703207, 13.529185)"><g><path d="M 2.25 -5.671875 L 2.25 -1.796875 C 2.25 -1.472656 2.316406 -1.242188 2.453125 -1.109375 C 2.585938 -0.984375 2.828125 -0.921875 3.171875 -0.921875 L 3.96875 -0.921875 L 3.96875 0 L 2.984375 0 C 2.378906 0 1.921875 -0.140625 1.609375 -0.421875 C 1.304688 -0.703125 1.15625 -1.160156 1.15625 -1.796875 L 1.15625 -5.671875 L 0.3125 -5.671875 L 0.3125 -6.578125 L 1.15625 -6.578125 L 1.15625 -8.234375 L 2.25 -8.234375 L 2.25 -6.578125 L 3.96875 -6.578125 L 3.96875 -5.671875 Z M 2.25 -5.671875 "/></g></g></g><g fill="#ffffff" fill-opacity="1"><g transform="translate(30.07121, 13.529185)"><g><path d="M 6.921875 -3.546875 C 6.921875 -3.335938 6.910156 -3.113281 6.890625 -2.875 L 1.625 -2.875 C 1.664062 -2.226562 1.890625 -1.722656 2.296875 -1.359375 C 2.703125 -0.992188 3.191406 -0.8125 3.765625 -0.8125 C 4.234375 -0.8125 4.625 -0.921875 4.9375 -1.140625 C 5.257812 -1.359375 5.484375 -1.65625 5.609375 -2.03125 L 6.796875 -2.03125 C 6.617188 -1.394531 6.265625 -0.878906 5.734375 -0.484375 C 5.203125 -0.0859375 4.546875 0.109375 3.765625 0.109375 C 3.140625 0.109375 2.582031 -0.03125 2.09375 -0.3125 C 1.601562 -0.59375 1.21875 -0.988281 0.9375 -1.5 C 0.65625 -2.019531 0.515625 -2.617188 0.515625 -3.296875 C 0.515625 -3.972656 0.648438 -4.566406 0.921875 -5.078125 C 1.191406 -5.597656 1.570312 -5.992188 2.0625 -6.265625 C 2.5625 -6.546875 3.128906 -6.6875 3.765625 -6.6875 C 4.390625 -6.6875 4.941406 -6.550781 5.421875 -6.28125 C 5.898438 -6.007812 6.269531 -5.632812 6.53125 -5.15625 C 6.789062 -4.675781 6.921875 -4.140625 6.921875 -3.546875 Z M 5.796875 -3.765625 C 5.796875 -4.179688 5.703125 -4.539062 5.515625 -4.84375 C 5.335938 -5.144531 5.085938 -5.375 4.765625 -5.53125 C 4.453125 -5.6875 4.101562 -5.765625 3.71875 -5.765625 C 3.164062 -5.765625 2.695312 -5.585938 2.3125 -5.234375 C 1.925781 -4.878906 1.703125 -4.390625 1.640625 -3.765625 Z M 5.796875 -3.765625 "/></g></g></g><g fill="#ffffff" fill-opacity="1"><g transform="translate(37.51122, 13.529185)"><g><path d="M 6.75 -6.578125 L 6.75 0 L 5.65625 0 L 5.65625 -0.96875 C 5.457031 -0.632812 5.171875 -0.375 4.796875 -0.1875 C 4.421875 0 4.007812 0.09375 3.5625 0.09375 C 3.050781 0.09375 2.59375 -0.0078125 2.1875 -0.21875 C 1.78125 -0.4375 1.457031 -0.753906 1.21875 -1.171875 C 0.976562 -1.597656 0.859375 -2.113281 0.859375 -2.71875 L 0.859375 -6.578125 L 1.9375 -6.578125 L 1.9375 -2.875 C 1.9375 -2.21875 2.097656 -1.71875 2.421875 -1.375 C 2.753906 -1.03125 3.207031 -0.859375 3.78125 -0.859375 C 4.363281 -0.859375 4.820312 -1.035156 5.15625 -1.390625 C 5.488281 -1.753906 5.65625 -2.28125 5.65625 -2.96875 L 5.65625 -6.578125 Z M 5.015625 -8.4375 L 2.453125 -7.0625 L 2.453125 -7.890625 L 5.015625 -9.390625 Z M 5.015625 -8.4375 "/></g></g></g><g fill="#ffffff" fill-opacity="1"><g transform="translate(45.191235, 13.529185)"><g><path d="M 0.515625 -3.3125 C 0.515625 -3.976562 0.648438 -4.566406 0.921875 -5.078125 C 1.191406 -5.585938 1.566406 -5.984375 2.046875 -6.265625 C 2.523438 -6.546875 3.054688 -6.6875 3.640625 -6.6875 C 4.160156 -6.6875 4.640625 -6.566406 5.078125 -6.328125 C 5.515625 -6.085938 5.847656 -5.78125 6.078125 -5.40625 L 6.078125 -8.875 L 7.1875 -8.875 L 7.1875 0 L 6.078125 0 L 6.078125 -1.234375 C 5.867188 -0.835938 5.550781 -0.515625 5.125 -0.265625 C 4.695312 -0.015625 4.203125 0.109375 3.640625 0.109375 C 3.054688 0.109375 2.523438 -0.03125 2.046875 -0.3125 C 1.566406 -0.601562 1.191406 -1.007812 0.921875 -1.53125 C 0.648438 -2.050781 0.515625 -2.644531 0.515625 -3.3125 Z M 6.078125 -3.296875 C 6.078125 -3.796875 5.976562 -4.226562 5.78125 -4.59375 C 5.582031 -4.957031 5.3125 -5.238281 4.96875 -5.4375 C 4.632812 -5.632812 4.265625 -5.734375 3.859375 -5.734375 C 3.441406 -5.734375 3.066406 -5.632812 2.734375 -5.4375 C 2.398438 -5.25 2.128906 -4.972656 1.921875 -4.609375 C 1.722656 -4.242188 1.625 -3.8125 1.625 -3.3125 C 1.625 -2.8125 1.722656 -2.375 1.921875 -2 C 2.128906 -1.625 2.398438 -1.335938 2.734375 -1.140625 C 3.066406 -0.953125 3.441406 -0.859375 3.859375 -0.859375 C 4.265625 -0.859375 4.632812 -0.953125 4.96875 -1.140625 C 5.3125 -1.335938 5.582031 -1.625 5.78125 -2 C 5.976562 -2.375 6.078125 -2.804688 6.078125 -3.296875 Z M 6.078125 -3.296875 "/></g></g></g><g fill="#ffffff" fill-opacity="1"><g transform="translate(53.303253, 13.529185)"><g><path d="M 3.796875 0.109375 C 3.179688 0.109375 2.625 -0.03125 2.125 -0.3125 C 1.625 -0.59375 1.226562 -0.988281 0.9375 -1.5 C 0.65625 -2.019531 0.515625 -2.617188 0.515625 -3.296875 C 0.515625 -3.972656 0.660156 -4.566406 0.953125 -5.078125 C 1.242188 -5.597656 1.640625 -5.992188 2.140625 -6.265625 C 2.648438 -6.546875 3.21875 -6.6875 3.84375 -6.6875 C 4.46875 -6.6875 5.03125 -6.546875 5.53125 -6.265625 C 6.03125 -5.992188 6.425781 -5.597656 6.71875 -5.078125 C 7.007812 -4.566406 7.15625 -3.972656 7.15625 -3.296875 C 7.15625 -2.617188 7.003906 -2.019531 6.703125 -1.5 C 6.410156 -0.988281 6.007812 -0.59375 5.5 -0.3125 C 4.988281 -0.03125 4.421875 0.109375 3.796875 0.109375 Z M 3.796875 -0.859375 C 4.179688 -0.859375 4.546875 -0.945312 4.890625 -1.125 C 5.234375 -1.3125 5.507812 -1.585938 5.71875 -1.953125 C 5.9375 -2.328125 6.046875 -2.773438 6.046875 -3.296875 C 6.046875 -3.828125 5.941406 -4.273438 5.734375 -4.640625 C 5.523438 -5.015625 5.253906 -5.289062 4.921875 -5.46875 C 4.585938 -5.644531 4.222656 -5.734375 3.828125 -5.734375 C 3.429688 -5.734375 3.066406 -5.644531 2.734375 -5.46875 C 2.398438 -5.289062 2.128906 -5.015625 1.921875 -4.640625 C 1.722656 -4.273438 1.625 -3.828125 1.625 -3.296875 C 1.625 -2.765625 1.722656 -2.3125 1.921875 -1.9375 C 2.117188 -1.570312 2.378906 -1.300781 2.703125 -1.125 C 3.035156 -0.945312 3.398438 -0.859375 3.796875 -0.859375 Z M 3.796875 -0.859375 "/></g></g></g><g fill="#ffffff" fill-opacity="1"><g transform="translate(60.983268, 13.529185)"><g/></g></g><g fill="#ffffff" fill-opacity="1"><g transform="translate(64.18727, 13.529185)"><g><path d="M 7.34375 0 L 6.25 -1.109375 C 5.84375 -0.679688 5.40625 -0.363281 4.9375 -0.15625 C 4.476562 0.0390625 3.957031 0.140625 3.375 0.140625 C 2.800781 0.140625 2.289062 0.0351562 1.84375 -0.171875 C 1.394531 -0.378906 1.046875 -0.671875 0.796875 -1.046875 C 0.554688 -1.429688 0.4375 -1.882812 0.4375 -2.40625 C 0.4375 -2.988281 0.601562 -3.5 0.9375 -3.9375 C 1.269531 -4.382812 1.757812 -4.734375 2.40625 -4.984375 C 2.15625 -5.296875 1.972656 -5.578125 1.859375 -5.828125 C 1.742188 -6.085938 1.6875 -6.367188 1.6875 -6.671875 C 1.6875 -7.023438 1.773438 -7.34375 1.953125 -7.625 C 2.140625 -7.90625 2.398438 -8.125 2.734375 -8.28125 C 3.066406 -8.445312 3.457031 -8.53125 3.90625 -8.53125 C 4.332031 -8.53125 4.707031 -8.445312 5.03125 -8.28125 C 5.351562 -8.113281 5.59375 -7.878906 5.75 -7.578125 C 5.90625 -7.273438 5.976562 -6.941406 5.96875 -6.578125 L 4.875 -6.578125 C 4.882812 -6.898438 4.789062 -7.15625 4.59375 -7.34375 C 4.40625 -7.53125 4.160156 -7.625 3.859375 -7.625 C 3.535156 -7.625 3.273438 -7.535156 3.078125 -7.359375 C 2.878906 -7.179688 2.78125 -6.953125 2.78125 -6.671875 C 2.78125 -6.429688 2.847656 -6.195312 2.984375 -5.96875 C 3.117188 -5.75 3.335938 -5.472656 3.640625 -5.140625 L 6.140625 -2.640625 L 6.359375 -2.96875 L 7.171875 -4.34375 L 8.359375 -4.34375 L 7.375 -2.640625 C 7.226562 -2.398438 7.066406 -2.148438 6.890625 -1.890625 L 8.765625 0 Z M 3.375 -0.796875 C 3.800781 -0.796875 4.1875 -0.878906 4.53125 -1.046875 C 4.882812 -1.210938 5.21875 -1.472656 5.53125 -1.828125 L 3.078125 -4.296875 C 2.046875 -3.898438 1.53125 -3.28125 1.53125 -2.4375 C 1.53125 -1.96875 1.703125 -1.578125 2.046875 -1.265625 C 2.390625 -0.953125 2.832031 -0.796875 3.375 -0.796875 Z M 3.375 -0.796875 "/></g></g></g><g fill="#ffffff" fill-opacity="1"><g transform="translate(73.055285, 13.529185)"><g/></g></g><g fill="#ffffff" fill-opacity="1"><g transform="translate(76.259287, 13.529185)"><g><path d="M 2.015625 -7.46875 L 2.015625 -4.6875 L 5.0625 -4.6875 L 5.0625 -3.78125 L 2.015625 -3.78125 L 2.015625 -0.90625 L 5.421875 -0.90625 L 5.421875 0 L 0.921875 0 L 0.921875 -8.375 L 5.421875 -8.375 L 5.421875 -7.46875 Z M 2.015625 -7.46875 "/></g></g></g><g fill="#ffffff" fill-opacity="1"><g transform="translate(82.415304, 13.529185)"><g><path d="M 0.515625 -3.3125 C 0.515625 -3.976562 0.648438 -4.566406 0.921875 -5.078125 C 1.191406 -5.585938 1.566406 -5.984375 2.046875 -6.265625 C 2.523438 -6.546875 3.054688 -6.6875 3.640625 -6.6875 C 4.160156 -6.6875 4.640625 -6.566406 5.078125 -6.328125 C 5.515625 -6.085938 5.847656 -5.78125 6.078125 -5.40625 L 6.078125 -8.875 L 7.1875 -8.875 L 7.1875 0 L 6.078125 0 L 6.078125 -1.234375 C 5.867188 -0.835938 5.550781 -0.515625 5.125 -0.265625 C 4.695312 -0.015625 4.203125 0.109375 3.640625 0.109375 C 3.054688 0.109375 2.523438 -0.03125 2.046875 -0.3125 C 1.566406 -0.601562 1.191406 -1.007812 0.921875 -1.53125 C 0.648438 -2.050781 0.515625 -2.644531 0.515625 -3.3125 Z M 6.078125 -3.296875 C 6.078125 -3.796875 5.976562 -4.226562 5.78125 -4.59375 C 5.582031 -4.957031 5.3125 -5.238281 4.96875 -5.4375 C 4.632812 -5.632812 4.265625 -5.734375 3.859375 -5.734375 C 3.441406 -5.734375 3.066406 -5.632812 2.734375 -5.4375 C 2.398438 -5.25 2.128906 -4.972656 1.921875 -4.609375 C 1.722656 -4.242188 1.625 -3.8125 1.625 -3.3125 C 1.625 -2.8125 1.722656 -2.375 1.921875 -2 C 2.128906 -1.625 2.398438 -1.335938 2.734375 -1.140625 C 3.066406 -0.953125 3.441406 -0.859375 3.859375 -0.859375 C 4.265625 -0.859375 4.632812 -0.953125 4.96875 -1.140625 C 5.3125 -1.335938 5.582031 -1.625 5.78125 -2 C 5.976562 -2.375 6.078125 -2.804688 6.078125 -3.296875 Z M 6.078125 -3.296875 "/></g></g></g><g fill="#ffffff" fill-opacity="1"><g transform="translate(90.527322, 13.529185)"><g><path d="M 6.75 -6.578125 L 6.75 0 L 5.65625 0 L 5.65625 -0.96875 C 5.457031 -0.632812 5.171875 -0.375 4.796875 -0.1875 C 4.421875 0 4.007812 0.09375 3.5625 0.09375 C 3.050781 0.09375 2.59375 -0.0078125 2.1875 -0.21875 C 1.78125 -0.4375 1.457031 -0.753906 1.21875 -1.171875 C 0.976562 -1.597656 0.859375 -2.113281 0.859375 -2.71875 L 0.859375 -6.578125 L 1.9375 -6.578125 L 1.9375 -2.875 C 1.9375 -2.21875 2.097656 -1.71875 2.421875 -1.375 C 2.753906 -1.03125 3.207031 -0.859375 3.78125 -0.859375 C 4.363281 -0.859375 4.820312 -1.035156 5.15625 -1.390625 C 5.488281 -1.753906 5.65625 -2.28125 5.65625 -2.96875 L 5.65625 -6.578125 Z M 6.75 -6.578125 "/></g></g></g><g fill="#ffffff" fill-opacity="1"><g transform="translate(98.207337, 13.529185)"><g><path d="M 0.515625 -3.296875 C 0.515625 -3.972656 0.648438 -4.566406 0.921875 -5.078125 C 1.191406 -5.585938 1.566406 -5.984375 2.046875 -6.265625 C 2.535156 -6.546875 3.09375 -6.6875 3.71875 -6.6875 C 4.53125 -6.6875 5.195312 -6.488281 5.71875 -6.09375 C 6.238281 -5.707031 6.582031 -5.164062 6.75 -4.46875 L 5.578125 -4.46875 C 5.460938 -4.863281 5.242188 -5.175781 4.921875 -5.40625 C 4.597656 -5.644531 4.195312 -5.765625 3.71875 -5.765625 C 3.09375 -5.765625 2.585938 -5.546875 2.203125 -5.109375 C 1.816406 -4.679688 1.625 -4.078125 1.625 -3.296875 C 1.625 -2.503906 1.816406 -1.890625 2.203125 -1.453125 C 2.585938 -1.023438 3.09375 -0.8125 3.71875 -0.8125 C 4.195312 -0.8125 4.597656 -0.921875 4.921875 -1.140625 C 5.242188 -1.367188 5.460938 -1.691406 5.578125 -2.109375 L 6.75 -2.109375 C 6.570312 -1.441406 6.21875 -0.90625 5.6875 -0.5 C 5.164062 -0.09375 4.507812 0.109375 3.71875 0.109375 C 3.09375 0.109375 2.535156 -0.03125 2.046875 -0.3125 C 1.566406 -0.59375 1.191406 -0.988281 0.921875 -1.5 C 0.648438 -2.007812 0.515625 -2.609375 0.515625 -3.296875 Z M 0.515625 -3.296875 "/></g></g></g><g fill="#ffffff" fill-opacity="1"><g transform="translate(105.491352, 13.529185)"><g><path d="M 0.515625 -3.3125 C 0.515625 -3.976562 0.648438 -4.566406 0.921875 -5.078125 C 1.191406 -5.585938 1.566406 -5.984375 2.046875 -6.265625 C 2.523438 -6.546875 3.054688 -6.6875 3.640625 -6.6875 C 4.210938 -6.6875 4.707031 -6.5625 5.125 -6.3125 C 5.550781 -6.0625 5.867188 -5.75 6.078125 -5.375 L 6.078125 -6.578125 L 7.1875 -6.578125 L 7.1875 0 L 6.078125 0 L 6.078125 -1.21875 C 5.867188 -0.832031 5.546875 -0.515625 5.109375 -0.265625 C 4.679688 -0.015625 4.1875 0.109375 3.625 0.109375 C 3.039062 0.109375 2.507812 -0.03125 2.03125 -0.3125 C 1.5625 -0.601562 1.191406 -1.007812 0.921875 -1.53125 C 0.648438 -2.050781 0.515625 -2.644531 0.515625 -3.3125 Z M 6.078125 -3.296875 C 6.078125 -3.796875 5.976562 -4.226562 5.78125 -4.59375 C 5.582031 -4.957031 5.3125 -5.238281 4.96875 -5.4375 C 4.632812 -5.632812 4.265625 -5.734375 3.859375 -5.734375 C 3.441406 -5.734375 3.066406 -5.632812 2.734375 -5.4375 C 2.398438 -5.25 2.128906 -4.972656 1.921875 -4.609375 C 1.722656 -4.242188 1.625 -3.8125 1.625 -3.3125 C 1.625 -2.8125 1.722656 -2.375 1.921875 -2 C 2.128906 -1.625 2.398438 -1.335938 2.734375 -1.140625 C 3.066406 -0.953125 3.441406 -0.859375 3.859375 -0.859375 C 4.265625 -0.859375 4.632812 -0.953125 4.96875 -1.140625 C 5.3125 -1.335938 5.582031 -1.625 5.78125 -2 C 5.976562 -2.375 6.078125 -2.804688 6.078125 -3.296875 Z M 6.078125 -3.296875 "/></g></g></g><g fill="#ffffff" fill-opacity="1"><g transform="translate(113.60337, 13.529185)"><g><path d="M 3.71875 -0.8125 C 4.195312 -0.8125 4.597656 -0.921875 4.921875 -1.140625 C 5.242188 -1.367188 5.460938 -1.691406 5.578125 -2.109375 L 6.75 -2.109375 C 6.59375 -1.484375 6.28125 -0.972656 5.8125 -0.578125 C 5.34375 -0.179688 4.757812 0.0390625 4.0625 0.09375 L 4.0625 0.703125 C 4.53125 0.691406 4.90625 0.789062 5.1875 1 C 5.46875 1.207031 5.609375 1.503906 5.609375 1.890625 C 5.609375 2.265625 5.46875 2.5625 5.1875 2.78125 C 4.914062 3.007812 4.566406 3.125 4.140625 3.125 L 2.765625 3.125 L 2.765625 2.40625 L 3.921875 2.40625 C 4.179688 2.40625 4.375 2.363281 4.5 2.28125 C 4.625 2.207031 4.6875 2.078125 4.6875 1.890625 C 4.6875 1.703125 4.625 1.566406 4.5 1.484375 C 4.375 1.410156 4.179688 1.375 3.921875 1.375 L 3.328125 1.375 L 3.328125 0.078125 C 2.773438 0.0234375 2.285156 -0.144531 1.859375 -0.4375 C 1.429688 -0.726562 1.097656 -1.117188 0.859375 -1.609375 C 0.628906 -2.109375 0.515625 -2.671875 0.515625 -3.296875 C 0.515625 -3.972656 0.648438 -4.566406 0.921875 -5.078125 C 1.191406 -5.585938 1.566406 -5.984375 2.046875 -6.265625 C 2.535156 -6.546875 3.09375 -6.6875 3.71875 -6.6875 C 4.53125 -6.6875 5.195312 -6.488281 5.71875 -6.09375 C 6.238281 -5.707031 6.582031 -5.164062 6.75 -4.46875 L 5.578125 -4.46875 C 5.460938 -4.863281 5.242188 -5.175781 4.921875 -5.40625 C 4.597656 -5.644531 4.195312 -5.765625 3.71875 -5.765625 C 3.09375 -5.765625 2.585938 -5.546875 2.203125 -5.109375 C 1.816406 -4.679688 1.625 -4.078125 1.625 -3.296875 C 1.625 -2.503906 1.816406 -1.890625 2.203125 -1.453125 C 2.585938 -1.023438 3.09375 -0.8125 3.71875 -0.8125 Z M 3.71875 -0.8125 "/></g></g></g><g fill="#ffffff" fill-opacity="1"><g transform="translate(120.887386, 13.529185)"><g><path d="M 0.515625 -3.3125 C 0.515625 -3.976562 0.648438 -4.566406 0.921875 -5.078125 C 1.191406 -5.585938 1.566406 -5.984375 2.046875 -6.265625 C 2.523438 -6.546875 3.054688 -6.6875 3.640625 -6.6875 C 4.210938 -6.6875 4.707031 -6.5625 5.125 -6.3125 C 5.550781 -6.0625 5.867188 -5.75 6.078125 -5.375 L 6.078125 -6.578125 L 7.1875 -6.578125 L 7.1875 0 L 6.078125 0 L 6.078125 -1.21875 C 5.867188 -0.832031 5.546875 -0.515625 5.109375 -0.265625 C 4.679688 -0.015625 4.1875 0.109375 3.625 0.109375 C 3.039062 0.109375 2.507812 -0.03125 2.03125 -0.3125 C 1.5625 -0.601562 1.191406 -1.007812 0.921875 -1.53125 C 0.648438 -2.050781 0.515625 -2.644531 0.515625 -3.3125 Z M 6.078125 -3.296875 C 6.078125 -3.796875 5.976562 -4.226562 5.78125 -4.59375 C 5.582031 -4.957031 5.3125 -5.238281 4.96875 -5.4375 C 4.632812 -5.632812 4.265625 -5.734375 3.859375 -5.734375 C 3.441406 -5.734375 3.066406 -5.632812 2.734375 -5.4375 C 2.398438 -5.25 2.128906 -4.972656 1.921875 -4.609375 C 1.722656 -4.242188 1.625 -3.8125 1.625 -3.3125 C 1.625 -2.8125 1.722656 -2.375 1.921875 -2 C 2.128906 -1.625 2.398438 -1.335938 2.734375 -1.140625 C 3.066406 -0.953125 3.441406 -0.859375 3.859375 -0.859375 C 4.265625 -0.859375 4.632812 -0.953125 4.96875 -1.140625 C 5.3125 -1.335938 5.582031 -1.625 5.78125 -2 C 5.976562 -2.375 6.078125 -2.804688 6.078125 -3.296875 Z M 2.296875 -7.28125 C 2.347656 -7.6875 2.476562 -8 2.6875 -8.21875 C 2.90625 -8.4375 3.175781 -8.546875 3.5 -8.546875 C 3.644531 -8.546875 3.769531 -8.519531 3.875 -8.46875 C 3.988281 -8.414062 4.125 -8.34375 4.28125 -8.25 C 4.394531 -8.164062 4.492188 -8.097656 4.578125 -8.046875 C 4.660156 -8.003906 4.753906 -7.984375 4.859375 -7.984375 C 4.992188 -7.984375 5.109375 -8.023438 5.203125 -8.109375 C 5.304688 -8.203125 5.367188 -8.335938 5.390625 -8.515625 L 6.015625 -8.515625 C 5.972656 -8.109375 5.84375 -7.796875 5.625 -7.578125 C 5.40625 -7.367188 5.132812 -7.265625 4.8125 -7.265625 C 4.664062 -7.265625 4.53125 -7.289062 4.40625 -7.34375 C 4.289062 -7.394531 4.164062 -7.472656 4.03125 -7.578125 C 3.894531 -7.648438 3.789062 -7.707031 3.71875 -7.75 C 3.644531 -7.789062 3.554688 -7.8125 3.453125 -7.8125 C 3.316406 -7.8125 3.203125 -7.765625 3.109375 -7.671875 C 3.015625 -7.585938 2.957031 -7.457031 2.9375 -7.28125 Z M 2.296875 -7.28125 "/></g></g></g><g fill="#ffffff" fill-opacity="1"><g transform="translate(128.999404, 13.529185)"><g><path d="M 3.796875 0.109375 C 3.179688 0.109375 2.625 -0.03125 2.125 -0.3125 C 1.625 -0.59375 1.226562 -0.988281 0.9375 -1.5 C 0.65625 -2.019531 0.515625 -2.617188 0.515625 -3.296875 C 0.515625 -3.972656 0.660156 -4.566406 0.953125 -5.078125 C 1.242188 -5.597656 1.640625 -5.992188 2.140625 -6.265625 C 2.648438 -6.546875 3.21875 -6.6875 3.84375 -6.6875 C 4.46875 -6.6875 5.03125 -6.546875 5.53125 -6.265625 C 6.03125 -5.992188 6.425781 -5.597656 6.71875 -5.078125 C 7.007812 -4.566406 7.15625 -3.972656 7.15625 -3.296875 C 7.15625 -2.617188 7.003906 -2.019531 6.703125 -1.5 C 6.410156 -0.988281 6.007812 -0.59375 5.5 -0.3125 C 4.988281 -0.03125 4.421875 0.109375 3.796875 0.109375 Z M 3.796875 -0.859375 C 4.179688 -0.859375 4.546875 -0.945312 4.890625 -1.125 C 5.234375 -1.3125 5.507812 -1.585938 5.71875 -1.953125 C 5.9375 -2.328125 6.046875 -2.773438 6.046875 -3.296875 C 6.046875 -3.828125 5.941406 -4.273438 5.734375 -4.640625 C 5.523438 -5.015625 5.253906 -5.289062 4.921875 -5.46875 C 4.585938 -5.644531 4.222656 -5.734375 3.828125 -5.734375 C 3.429688 -5.734375 3.066406 -5.644531 2.734375 -5.46875 C 2.398438 -5.289062 2.128906 -5.015625 1.921875 -4.640625 C 1.722656 -4.273438 1.625 -3.828125 1.625 -3.296875 C 1.625 -2.765625 1.722656 -2.3125 1.921875 -1.9375 C 2.117188 -1.570312 2.378906 -1.300781 2.703125 -1.125 C 3.035156 -0.945312 3.398438 -0.859375 3.796875 -0.859375 Z M 3.796875 -0.859375 "/></g></g></g><g fill="#ffffff" fill-opacity="1"><g transform="translate(136.688532, 13.529185)"><g/></g></g></g></g></g></g></svg>