<svg xmlns="http://www.w3.org/2000/svg" xmlns:xlink="http://www.w3.org/1999/xlink" width="500" zoomAndPan="magnify" viewBox="0 0 375 374.999991" height="500" preserveAspectRatio="xMidYMid meet" version="1.0"><defs><filter x="0%" y="0%" width="100%" height="100%" id="83cecfce0b"><feColorMatrix values="0 0 0 0 1 0 0 0 0 1 0 0 0 0 1 0 0 0 1 0" color-interpolation-filters="sRGB"/></filter><g/><clipPath id="027a7110b0"><path d="M 148.042969 5.5625 L 189.53125 5.5625 L 189.53125 47 L 148.042969 47 Z M 148.042969 5.5625 " clip-rule="nonzero"/></clipPath><clipPath id="24c65f79d7"><path d="M 200 0.28125 L 346 0.28125 L 346 125.800781 L 200 125.800781 Z M 200 0.28125 " clip-rule="nonzero"/></clipPath><clipPath id="a3e1c8f1d9"><path d="M 1.070312 1.117188 L 146 1.117188 L 146 124.867188 L 1.070312 124.867188 Z M 1.070312 1.117188 " clip-rule="nonzero"/></clipPath><clipPath id="2d99c2fa4f"><path d="M 0.0703125 0.117188 L 145 0.117188 L 145 123.867188 L 0.0703125 123.867188 Z M 0.0703125 0.117188 " clip-rule="nonzero"/></clipPath><clipPath id="cfa15f19f0"><path d="M 7.570312 0.117188 L 145 0.117188 L 145 123.867188 L 7.570312 123.867188 Z M 7.570312 0.117188 " clip-rule="nonzero"/></clipPath><linearGradient x1="-50.639" gradientTransform="matrix(0.751454, 0, 0, 0.745844, 45.624137, 45.962977)" y1="21.5" x2="132.244798" gradientUnits="userSpaceOnUse" y2="21.5" id="b0027466e3"><stop stop-opacity="1" stop-color="rgb(71.369934%, 16.079712%, 18.03894%)" offset="0"/><stop stop-opacity="1" stop-color="rgb(71.369934%, 16.079712%, 18.03894%)" offset="0.25"/><stop stop-opacity="1" stop-color="rgb(71.369934%, 16.079712%, 18.03894%)" offset="0.3125"/><stop stop-opacity="1" stop-color="rgb(71.369934%, 16.079712%, 18.03894%)" offset="0.328125"/><stop stop-opacity="1" stop-color="rgb(71.369934%, 16.079712%, 18.03894%)" offset="0.335938"/><stop stop-opacity="1" stop-color="rgb(70.281982%, 15.760803%, 18.12439%)" offset="0.339844"/><stop stop-opacity="1" stop-color="rgb(69.195557%, 15.441895%, 18.209839%)" offset="0.34375"/><stop stop-opacity="1" stop-color="rgb(68.086243%, 15.116882%, 18.296814%)" offset="0.347656"/><stop stop-opacity="1" stop-color="rgb(66.976929%, 14.79187%, 18.383789%)" offset="0.351562"/><stop stop-opacity="1" stop-color="rgb(65.866089%, 14.466858%, 18.470764%)" offset="0.355469"/><stop stop-opacity="1" stop-color="rgb(64.756775%, 14.141846%, 18.557739%)" offset="0.359375"/><stop stop-opacity="1" stop-color="rgb(63.647461%, 13.816833%, 18.644714%)" offset="0.363281"/><stop stop-opacity="1" stop-color="rgb(62.538147%, 13.491821%, 18.733215%)" offset="0.367188"/><stop stop-opacity="1" stop-color="rgb(61.427307%, 13.166809%, 18.82019%)" offset="0.371094"/><stop stop-opacity="1" stop-color="rgb(60.317993%, 12.841797%, 18.907166%)" offset="0.375"/><stop stop-opacity="1" stop-color="rgb(59.208679%, 12.516785%, 18.994141%)" offset="0.378906"/><stop stop-opacity="1" stop-color="rgb(58.099365%, 12.191772%, 19.081116%)" offset="0.382812"/><stop stop-opacity="1" stop-color="rgb(56.988525%, 11.86676%, 19.168091%)" offset="0.386719"/><stop stop-opacity="1" stop-color="rgb(55.879211%, 11.541748%, 19.255066%)" offset="0.390625"/><stop stop-opacity="1" stop-color="rgb(54.769897%, 11.216736%, 19.342041%)" offset="0.394531"/><stop stop-opacity="1" stop-color="rgb(53.660583%, 10.891724%, 19.429016%)" offset="0.398438"/><stop stop-opacity="1" stop-color="rgb(52.549744%, 10.566711%, 19.515991%)" offset="0.402344"/><stop stop-opacity="1" stop-color="rgb(51.44043%, 10.241699%, 19.602966%)" offset="0.40625"/><stop stop-opacity="1" stop-color="rgb(50.331116%, 9.916687%, 19.689941%)" offset="0.410156"/><stop stop-opacity="1" stop-color="rgb(49.221802%, 9.591675%, 19.778442%)" offset="0.414062"/><stop stop-opacity="1" stop-color="rgb(48.110962%, 9.266663%, 19.865417%)" offset="0.417969"/><stop stop-opacity="1" stop-color="rgb(47.001648%, 8.94165%, 19.952393%)" offset="0.421875"/><stop stop-opacity="1" stop-color="rgb(45.892334%, 8.616638%, 20.039368%)" offset="0.425781"/><stop stop-opacity="1" stop-color="rgb(44.78302%, 8.291626%, 20.126343%)" offset="0.429688"/><stop stop-opacity="1" stop-color="rgb(43.673706%, 7.966614%, 20.213318%)" offset="0.433594"/><stop stop-opacity="1" stop-color="rgb(42.564392%, 7.641602%, 20.300293%)" offset="0.4375"/><stop stop-opacity="1" stop-color="rgb(41.453552%, 7.316589%, 20.387268%)" offset="0.441406"/><stop stop-opacity="1" stop-color="rgb(40.344238%, 6.991577%, 20.474243%)" offset="0.445312"/><stop stop-opacity="1" stop-color="rgb(39.234924%, 6.666565%, 20.561218%)" offset="0.449219"/><stop stop-opacity="1" stop-color="rgb(38.12561%, 6.341553%, 20.649719%)" offset="0.453125"/><stop stop-opacity="1" stop-color="rgb(37.014771%, 6.016541%, 20.736694%)" offset="0.457031"/><stop stop-opacity="1" stop-color="rgb(35.905457%, 5.691528%, 20.823669%)" offset="0.460938"/><stop stop-opacity="1" stop-color="rgb(34.796143%, 5.366516%, 20.910645%)" offset="0.464844"/><stop stop-opacity="1" stop-color="rgb(33.686829%, 5.041504%, 20.99762%)" offset="0.46875"/><stop stop-opacity="1" stop-color="rgb(32.575989%, 4.716492%, 21.084595%)" offset="0.472656"/><stop stop-opacity="1" stop-color="rgb(31.466675%, 4.391479%, 21.17157%)" offset="0.476562"/><stop stop-opacity="1" stop-color="rgb(30.357361%, 4.066467%, 21.258545%)" offset="0.480469"/><stop stop-opacity="1" stop-color="rgb(29.248047%, 3.741455%, 21.34552%)" offset="0.484375"/><stop stop-opacity="1" stop-color="rgb(28.137207%, 3.416443%, 21.432495%)" offset="0.488281"/><stop stop-opacity="1" stop-color="rgb(27.027893%, 3.091431%, 21.520996%)" offset="0.492188"/><stop stop-opacity="1" stop-color="rgb(25.918579%, 2.766418%, 21.607971%)" offset="0.496094"/><stop stop-opacity="1" stop-color="rgb(24.809265%, 2.441406%, 21.694946%)" offset="0.5"/><stop stop-opacity="1" stop-color="rgb(23.698425%, 2.116394%, 21.781921%)" offset="0.503906"/><stop stop-opacity="1" stop-color="rgb(22.589111%, 1.791382%, 21.868896%)" offset="0.507812"/><stop stop-opacity="1" stop-color="rgb(21.479797%, 1.46637%, 21.955872%)" offset="0.511719"/><stop stop-opacity="1" stop-color="rgb(20.370483%, 1.141357%, 22.042847%)" offset="0.515625"/><stop stop-opacity="1" stop-color="rgb(19.261169%, 0.816345%, 22.129822%)" offset="0.519531"/><stop stop-opacity="1" stop-color="rgb(18.151855%, 0.491333%, 22.216797%)" offset="0.523438"/><stop stop-opacity="1" stop-color="rgb(17.248535%, 0.315857%, 22.296143%)" offset="0.527344"/><stop stop-opacity="1" stop-color="rgb(16.346741%, 0.141907%, 22.375488%)" offset="0.53125"/><stop stop-opacity="1" stop-color="rgb(16.091919%, 0.434875%, 22.43042%)" offset="0.535156"/><stop stop-opacity="1" stop-color="rgb(15.838623%, 0.727844%, 22.486877%)" offset="0.539062"/><stop stop-opacity="1" stop-color="rgb(15.585327%, 1.020813%, 22.541809%)" offset="0.542969"/><stop stop-opacity="1" stop-color="rgb(15.332031%, 1.313782%, 22.598267%)" offset="0.546875"/><stop stop-opacity="1" stop-color="rgb(15.077209%, 1.60675%, 22.653198%)" offset="0.550781"/><stop stop-opacity="1" stop-color="rgb(14.823914%, 1.901245%, 22.709656%)" offset="0.554688"/><stop stop-opacity="1" stop-color="rgb(14.570618%, 2.194214%, 22.764587%)" offset="0.558594"/><stop stop-opacity="1" stop-color="rgb(14.317322%, 2.487183%, 22.821045%)" offset="0.5625"/><stop stop-opacity="1" stop-color="rgb(14.0625%, 2.780151%, 22.875977%)" offset="0.566406"/><stop stop-opacity="1" stop-color="rgb(13.809204%, 3.074646%, 22.932434%)" offset="0.570312"/><stop stop-opacity="1" stop-color="rgb(13.555908%, 3.367615%, 22.987366%)" offset="0.574219"/><stop stop-opacity="1" stop-color="rgb(13.302612%, 3.660583%, 23.043823%)" offset="0.578125"/><stop stop-opacity="1" stop-color="rgb(13.047791%, 3.953552%, 23.098755%)" offset="0.582031"/><stop stop-opacity="1" stop-color="rgb(12.794495%, 4.246521%, 23.153687%)" offset="0.585938"/><stop stop-opacity="1" stop-color="rgb(12.541199%, 4.53949%, 23.208618%)" offset="0.589844"/><stop stop-opacity="1" stop-color="rgb(12.287903%, 4.833984%, 23.265076%)" offset="0.59375"/><stop stop-opacity="1" stop-color="rgb(12.033081%, 5.126953%, 23.320007%)" offset="0.597656"/><stop stop-opacity="1" stop-color="rgb(11.779785%, 5.419922%, 23.376465%)" offset="0.601563"/><stop stop-opacity="1" stop-color="rgb(11.526489%, 5.712891%, 23.431396%)" offset="0.605469"/><stop stop-opacity="1" stop-color="rgb(11.273193%, 6.007385%, 23.487854%)" offset="0.609375"/><stop stop-opacity="1" stop-color="rgb(11.018372%, 6.300354%, 23.542786%)" offset="0.613281"/><stop stop-opacity="1" stop-color="rgb(10.765076%, 6.593323%, 23.599243%)" offset="0.617188"/><stop stop-opacity="1" stop-color="rgb(10.51178%, 6.886292%, 23.654175%)" offset="0.621094"/><stop stop-opacity="1" stop-color="rgb(10.258484%, 7.180786%, 23.710632%)" offset="0.625"/><stop stop-opacity="1" stop-color="rgb(10.003662%, 7.473755%, 23.765564%)" offset="0.628906"/><stop stop-opacity="1" stop-color="rgb(9.750366%, 7.766724%, 23.822021%)" offset="0.632812"/><stop stop-opacity="1" stop-color="rgb(9.49707%, 8.059692%, 23.876953%)" offset="0.636719"/><stop stop-opacity="1" stop-color="rgb(9.243774%, 8.352661%, 23.931885%)" offset="0.640625"/><stop stop-opacity="1" stop-color="rgb(8.988953%, 8.64563%, 23.986816%)" offset="0.644531"/><stop stop-opacity="1" stop-color="rgb(8.735657%, 8.940125%, 24.043274%)" offset="0.648437"/><stop stop-opacity="1" stop-color="rgb(8.482361%, 9.233093%, 24.098206%)" offset="0.652344"/><stop stop-opacity="1" stop-color="rgb(8.229065%, 9.526062%, 24.154663%)" offset="0.65625"/><stop stop-opacity="1" stop-color="rgb(7.974243%, 9.819031%, 24.209595%)" offset="0.660156"/><stop stop-opacity="1" stop-color="rgb(7.720947%, 10.113525%, 24.266052%)" offset="0.664062"/><stop stop-opacity="1" stop-color="rgb(7.467651%, 10.406494%, 24.320984%)" offset="0.667969"/><stop stop-opacity="1" stop-color="rgb(7.214355%, 10.699463%, 24.377441%)" offset="0.671875"/><stop stop-opacity="1" stop-color="rgb(6.96106%, 10.992432%, 24.432373%)" offset="0.675781"/><stop stop-opacity="1" stop-color="rgb(6.707764%, 11.2854%, 24.488831%)" offset="0.679688"/><stop stop-opacity="1" stop-color="rgb(6.452942%, 11.578369%, 24.543762%)" offset="0.683594"/><stop stop-opacity="1" stop-color="rgb(6.199646%, 11.872864%, 24.60022%)" offset="0.6875"/><stop stop-opacity="1" stop-color="rgb(5.94635%, 12.165833%, 24.655151%)" offset="0.691406"/><stop stop-opacity="1" stop-color="rgb(5.693054%, 12.458801%, 24.710083%)" offset="0.695312"/><stop stop-opacity="1" stop-color="rgb(5.438232%, 12.75177%, 24.765015%)" offset="0.699219"/><stop stop-opacity="1" stop-color="rgb(5.184937%, 13.046265%, 24.821472%)" offset="0.703125"/><stop stop-opacity="1" stop-color="rgb(4.931641%, 13.339233%, 24.876404%)" offset="0.707031"/><stop stop-opacity="1" stop-color="rgb(4.678345%, 13.632202%, 24.932861%)" offset="0.710938"/><stop stop-opacity="1" stop-color="rgb(4.423523%, 13.925171%, 24.987793%)" offset="0.714844"/><stop stop-opacity="1" stop-color="rgb(4.170227%, 14.21814%, 25.04425%)" offset="0.71875"/><stop stop-opacity="1" stop-color="rgb(4.045105%, 14.363098%, 25.071716%)" offset="0.75"/><stop stop-opacity="1" stop-color="rgb(3.919983%, 14.509583%, 25.099182%)" offset="1"/></linearGradient><clipPath id="5ade83d74c"><rect x="0" width="145" y="0" height="124"/></clipPath><clipPath id="0a19162a4e"><path d="M 0.0703125 0.117188 L 145 0.117188 L 145 123.867188 L 0.0703125 123.867188 Z M 0.0703125 0.117188 " clip-rule="nonzero"/></clipPath><clipPath id="9cd134b287"><rect x="0" width="145" y="0" height="124"/></clipPath><clipPath id="d3b7c0aaf1"><rect x="0" width="145" y="0" height="124"/></clipPath><mask id="20f31fbf1a"><g filter="url(#83cecfce0b)"><g><g clip-path="url(#d3b7c0aaf1)"><g clip-path="url(#0a19162a4e)"><g><g clip-path="url(#9cd134b287)"><g fill="#000000" fill-opacity="1"><g transform="translate(53.941725, 69.867424)"><g><path d="M 8.59375 -3.34375 L 8.59375 0 L 6.59375 0 C 5.164062 0 4.050781 -0.347656 3.25 -1.046875 C 2.445312 -1.742188 2.046875 -2.882812 2.046875 -4.46875 L 2.046875 -9.59375 L 0.484375 -9.59375 L 0.484375 -12.859375 L 2.046875 -12.859375 L 2.046875 -16 L 6 -16 L 6 -12.859375 L 8.578125 -12.859375 L 8.578125 -9.59375 L 6 -9.59375 L 6 -4.421875 C 6 -4.035156 6.085938 -3.757812 6.265625 -3.59375 C 6.453125 -3.425781 6.757812 -3.34375 7.1875 -3.34375 Z M 8.59375 -3.34375 "/></g></g></g><g fill="#000000" fill-opacity="1"><g transform="translate(63.295599, 69.867424)"><g><path d="M 13.546875 -6.640625 C 13.546875 -6.265625 13.523438 -5.878906 13.484375 -5.484375 L 4.5625 -5.484375 C 4.625 -4.679688 4.878906 -4.066406 5.328125 -3.640625 C 5.785156 -3.222656 6.34375 -3.015625 7 -3.015625 C 7.988281 -3.015625 8.675781 -3.429688 9.0625 -4.265625 L 13.25 -4.265625 C 13.03125 -3.421875 12.640625 -2.660156 12.078125 -1.984375 C 11.523438 -1.304688 10.828125 -0.773438 9.984375 -0.390625 C 9.140625 -0.00390625 8.191406 0.1875 7.140625 0.1875 C 5.878906 0.1875 4.757812 -0.078125 3.78125 -0.609375 C 2.800781 -1.148438 2.03125 -1.921875 1.46875 -2.921875 C 0.914062 -3.921875 0.640625 -5.09375 0.640625 -6.4375 C 0.640625 -7.769531 0.910156 -8.9375 1.453125 -9.9375 C 2.003906 -10.9375 2.769531 -11.703125 3.75 -12.234375 C 4.738281 -12.773438 5.867188 -13.046875 7.140625 -13.046875 C 8.390625 -13.046875 9.5 -12.785156 10.46875 -12.265625 C 11.4375 -11.742188 12.191406 -11 12.734375 -10.03125 C 13.273438 -9.0625 13.546875 -7.929688 13.546875 -6.640625 Z M 9.515625 -7.671875 C 9.515625 -8.347656 9.285156 -8.882812 8.828125 -9.28125 C 8.367188 -9.6875 7.789062 -9.890625 7.09375 -9.890625 C 6.4375 -9.890625 5.878906 -9.695312 5.421875 -9.3125 C 4.972656 -8.925781 4.695312 -8.378906 4.59375 -7.671875 Z M 9.515625 -7.671875 "/></g></g></g><g fill="#000000" fill-opacity="1"><g transform="translate(77.487691, 69.867424)"><g><path d="M 0.640625 -6.4375 C 0.640625 -7.769531 0.910156 -8.9375 1.453125 -9.9375 C 2.003906 -10.9375 2.765625 -11.703125 3.734375 -12.234375 C 4.710938 -12.773438 5.832031 -13.046875 7.09375 -13.046875 C 8.707031 -13.046875 10.054688 -12.625 11.140625 -11.78125 C 12.222656 -10.9375 12.9375 -9.742188 13.28125 -8.203125 L 9.078125 -8.203125 C 8.722656 -9.191406 8.039062 -9.6875 7.03125 -9.6875 C 6.3125 -9.6875 5.734375 -9.40625 5.296875 -8.84375 C 4.867188 -8.28125 4.65625 -7.476562 4.65625 -6.4375 C 4.65625 -5.382812 4.867188 -4.578125 5.296875 -4.015625 C 5.734375 -3.460938 6.3125 -3.1875 7.03125 -3.1875 C 8.039062 -3.1875 8.722656 -3.675781 9.078125 -4.65625 L 13.28125 -4.65625 C 12.9375 -3.144531 12.21875 -1.957031 11.125 -1.09375 C 10.039062 -0.238281 8.695312 0.1875 7.09375 0.1875 C 5.832031 0.1875 4.710938 -0.078125 3.734375 -0.609375 C 2.765625 -1.148438 2.003906 -1.921875 1.453125 -2.921875 C 0.910156 -3.921875 0.640625 -5.09375 0.640625 -6.4375 Z M 0.640625 -6.4375 "/></g></g></g><g fill="#000000" fill-opacity="1"><g transform="translate(91.426342, 69.867424)"><g><path d="M 9.328125 -13 C 10.804688 -13 11.988281 -12.507812 12.875 -11.53125 C 13.769531 -10.5625 14.21875 -9.222656 14.21875 -7.515625 L 14.21875 0 L 10.296875 0 L 10.296875 -6.984375 C 10.296875 -7.847656 10.070312 -8.515625 9.625 -8.984375 C 9.1875 -9.460938 8.59375 -9.703125 7.84375 -9.703125 C 7.082031 -9.703125 6.476562 -9.460938 6.03125 -8.984375 C 5.59375 -8.515625 5.375 -7.847656 5.375 -6.984375 L 5.375 0 L 1.421875 0 L 1.421875 -17.0625 L 5.375 -17.0625 L 5.375 -11.125 C 5.769531 -11.695312 6.3125 -12.148438 7 -12.484375 C 7.695312 -12.828125 8.472656 -13 9.328125 -13 Z M 9.328125 -13 "/></g></g></g></g></g></g></g></g></g></mask><clipPath id="fc2a489356"><path d="M 7.570312 0.117188 L 145 0.117188 L 145 123.867188 L 7.570312 123.867188 Z M 7.570312 0.117188 " clip-rule="nonzero"/></clipPath><clipPath id="7acc0cbd87"><rect x="0" width="145" y="0" height="124"/></clipPath><clipPath id="e7caf2fdfe"><rect x="0" width="145" y="0" height="124"/></clipPath><clipPath id="b214513541"><rect x="0" width="146" y="0" height="126"/></clipPath><clipPath id="10120daa42"><rect x="0" width="346" y="0" height="126"/></clipPath></defs><g transform="matrix(1, 0, 0, 1, 29, 125)"><g clip-path="url(#10120daa42)"><g fill="#000000" fill-opacity="1"><g transform="translate(0.92028, 80.968814)"><g><path d="M 30.875 -32.359375 L 30.875 0 L 23 0 L 23 -13.328125 L 10.734375 -13.328125 L 10.734375 0 L 2.859375 0 L 2.859375 -32.359375 L 10.734375 -32.359375 L 10.734375 -19.6875 L 23 -19.6875 L 23 -32.359375 Z M 30.875 -32.359375 "/></g></g></g><g fill="#000000" fill-opacity="1"><g transform="translate(34.616527, 80.968814)"><g><path d="M 18.15625 0.328125 C 15.113281 0.328125 12.320312 -0.378906 9.78125 -1.796875 C 7.25 -3.210938 5.238281 -5.1875 3.75 -7.71875 C 2.257812 -10.25 1.515625 -13.097656 1.515625 -16.265625 C 1.515625 -19.429688 2.257812 -22.273438 3.75 -24.796875 C 5.238281 -27.316406 7.25 -29.28125 9.78125 -30.6875 C 12.320312 -32.101562 15.113281 -32.8125 18.15625 -32.8125 C 21.195312 -32.8125 23.984375 -32.101562 26.515625 -30.6875 C 29.054688 -29.28125 31.054688 -27.316406 32.515625 -24.796875 C 33.972656 -22.273438 34.703125 -19.429688 34.703125 -16.265625 C 34.703125 -13.097656 33.960938 -10.25 32.484375 -7.71875 C 31.015625 -5.1875 29.019531 -3.210938 26.5 -1.796875 C 23.976562 -0.378906 21.195312 0.328125 18.15625 0.328125 Z M 18.15625 -6.875 C 20.738281 -6.875 22.804688 -7.734375 24.359375 -9.453125 C 25.910156 -11.171875 26.6875 -13.441406 26.6875 -16.265625 C 26.6875 -19.128906 25.910156 -21.410156 24.359375 -23.109375 C 22.804688 -24.816406 20.738281 -25.671875 18.15625 -25.671875 C 15.550781 -25.671875 13.472656 -24.828125 11.921875 -23.140625 C 10.367188 -21.453125 9.59375 -19.160156 9.59375 -16.265625 C 9.59375 -13.410156 10.367188 -11.128906 11.921875 -9.421875 C 13.472656 -7.722656 15.550781 -6.875 18.15625 -6.875 Z M 18.15625 -6.875 "/></g></g></g><g fill="#000000" fill-opacity="1"><g transform="translate(70.848062, 80.968814)"><g><path d="M 19.359375 0 L 12.625 -12.21875 L 10.734375 -12.21875 L 10.734375 0 L 2.859375 0 L 2.859375 -32.359375 L 16.09375 -32.359375 C 18.632812 -32.359375 20.804688 -31.910156 22.609375 -31.015625 C 24.410156 -30.128906 25.753906 -28.910156 26.640625 -27.359375 C 27.535156 -25.804688 27.984375 -24.078125 27.984375 -22.171875 C 27.984375 -20.015625 27.375 -18.09375 26.15625 -16.40625 C 24.945312 -14.71875 23.15625 -13.519531 20.78125 -12.8125 L 28.25 0 Z M 10.734375 -17.796875 L 15.625 -17.796875 C 17.070312 -17.796875 18.15625 -18.144531 18.875 -18.84375 C 19.59375 -19.550781 19.953125 -20.550781 19.953125 -21.84375 C 19.953125 -23.070312 19.59375 -24.039062 18.875 -24.75 C 18.15625 -25.457031 17.070312 -25.8125 15.625 -25.8125 L 10.734375 -25.8125 Z M 10.734375 -17.796875 "/></g></g></g><g fill="#000000" fill-opacity="1"><g transform="translate(100.902724, 80.968814)"><g><path d="M 23 -5.71875 L 10.921875 -5.71875 L 8.984375 0 L 0.734375 0 L 12.4375 -32.359375 L 21.578125 -32.359375 L 33.28125 0 L 24.9375 0 Z M 20.96875 -11.796875 L 16.96875 -23.640625 L 13 -11.796875 Z M 20.96875 -11.796875 "/></g></g></g><g fill="#000000" fill-opacity="1"><g transform="translate(134.875555, 80.968814)"><g><path d="M 11.25 -6.453125 L 25.171875 -6.453125 L 25.171875 0 L 2.296875 0 L 2.296875 -5.984375 L 16.125 -25.90625 L 2.296875 -25.90625 L 2.296875 -32.359375 L 25.171875 -32.359375 L 25.171875 -26.359375 Z M 11.25 -6.453125 "/></g></g></g><g fill="#000000" fill-opacity="1"><g transform="translate(162.348832, 80.968814)"><g><path d="M 10.734375 -32.359375 L 10.734375 0 L 2.859375 0 L 2.859375 -32.359375 Z M 10.734375 -32.359375 "/></g></g></g><g fill="#000000" fill-opacity="1"><g transform="translate(175.947178, 80.968814)"><g><path d="M 18.15625 0.328125 C 15.113281 0.328125 12.320312 -0.378906 9.78125 -1.796875 C 7.25 -3.210938 5.238281 -5.1875 3.75 -7.71875 C 2.257812 -10.25 1.515625 -13.097656 1.515625 -16.265625 C 1.515625 -19.429688 2.257812 -22.273438 3.75 -24.796875 C 5.238281 -27.316406 7.25 -29.28125 9.78125 -30.6875 C 12.320312 -32.101562 15.113281 -32.8125 18.15625 -32.8125 C 21.195312 -32.8125 23.984375 -32.101562 26.515625 -30.6875 C 29.054688 -29.28125 31.054688 -27.316406 32.515625 -24.796875 C 33.972656 -22.273438 34.703125 -19.429688 34.703125 -16.265625 C 34.703125 -13.097656 33.960938 -10.25 32.484375 -7.71875 C 31.015625 -5.1875 29.019531 -3.210938 26.5 -1.796875 C 23.976562 -0.378906 21.195312 0.328125 18.15625 0.328125 Z M 18.15625 -6.875 C 20.738281 -6.875 22.804688 -7.734375 24.359375 -9.453125 C 25.910156 -11.171875 26.6875 -13.441406 26.6875 -16.265625 C 26.6875 -19.128906 25.910156 -21.410156 24.359375 -23.109375 C 22.804688 -24.816406 20.738281 -25.671875 18.15625 -25.671875 C 15.550781 -25.671875 13.472656 -24.828125 11.921875 -23.140625 C 10.367188 -21.453125 9.59375 -19.160156 9.59375 -16.265625 C 9.59375 -13.410156 10.367188 -11.128906 11.921875 -9.421875 C 13.472656 -7.722656 15.550781 -6.875 18.15625 -6.875 Z M 18.15625 -6.875 "/></g></g></g><g fill="#000000" fill-opacity="1"><g transform="translate(212.178713, 80.968814)"><g><path d="M 31.796875 0 L 23.921875 0 L 10.734375 -19.953125 L 10.734375 0 L 2.859375 0 L 2.859375 -32.359375 L 10.734375 -32.359375 L 23.921875 -12.3125 L 23.921875 -32.359375 L 31.796875 -32.359375 Z M 31.796875 0 "/></g></g></g><g clip-path="url(#027a7110b0)"><path fill="#000000" d="M 169.082031 16.550781 C 169.144531 17.125 169.253906 17.691406 169.410156 18.246094 C 169.570312 18.800781 169.773438 19.339844 170.023438 19.859375 C 170.273438 20.378906 170.566406 20.875 170.898438 21.347656 C 171.234375 21.820312 171.605469 22.257812 172.011719 22.667969 C 172.421875 23.074219 172.859375 23.445312 173.332031 23.78125 C 173.800781 24.113281 174.296875 24.40625 174.820312 24.65625 C 175.339844 24.90625 175.878906 25.109375 176.433594 25.265625 C 176.988281 25.425781 177.554688 25.535156 178.128906 25.597656 C 180.902344 25.902344 184.488281 26.101562 189.117188 26.101562 C 184.488281 26.101562 180.902344 26.296875 178.128906 26.601562 C 177.554688 26.664062 176.988281 26.773438 176.433594 26.933594 C 175.878906 27.089844 175.339844 27.292969 174.820312 27.542969 C 174.296875 27.792969 173.800781 28.085938 173.332031 28.417969 C 172.859375 28.753906 172.421875 29.125 172.011719 29.53125 C 171.605469 29.941406 171.234375 30.378906 170.898438 30.851562 C 170.566406 31.324219 170.273438 31.820312 170.023438 32.339844 C 169.773438 32.859375 169.570312 33.398438 169.410156 33.953125 C 169.253906 34.507812 169.144531 35.074219 169.082031 35.648438 C 168.777344 38.425781 168.578125 42.007812 168.578125 46.636719 C 168.578125 42.007812 168.382812 38.425781 168.078125 35.648438 C 168.015625 35.074219 167.90625 34.507812 167.746094 33.953125 C 167.589844 33.398438 167.382812 32.859375 167.136719 32.339844 C 166.886719 31.820312 166.59375 31.324219 166.257812 30.851562 C 165.925781 30.378906 165.554688 29.941406 165.148438 29.53125 C 164.738281 29.125 164.296875 28.753906 163.828125 28.417969 C 163.355469 28.085938 162.859375 27.792969 162.339844 27.542969 C 161.820312 27.292969 161.28125 27.089844 160.726562 26.933594 C 160.171875 26.773438 159.605469 26.664062 159.03125 26.601562 C 156.253906 26.296875 152.671875 26.101562 148.042969 26.101562 C 152.671875 26.101562 156.253906 25.902344 159.03125 25.597656 C 159.605469 25.535156 160.171875 25.425781 160.726562 25.265625 C 161.28125 25.109375 161.820312 24.90625 162.339844 24.65625 C 162.859375 24.40625 163.355469 24.113281 163.828125 23.78125 C 164.296875 23.445312 164.738281 23.074219 165.148438 22.667969 C 165.554688 22.257812 165.925781 21.820312 166.257812 21.347656 C 166.59375 20.875 166.886719 20.378906 167.136719 19.859375 C 167.382812 19.339844 167.589844 18.800781 167.746094 18.246094 C 167.90625 17.691406 168.015625 17.125 168.078125 16.550781 C 168.382812 13.773438 168.578125 10.191406 168.578125 5.5625 C 168.578125 10.191406 168.777344 13.773438 169.082031 16.550781 Z M 169.082031 16.550781 " fill-opacity="1" fill-rule="nonzero"/></g><g clip-path="url(#24c65f79d7)"><g transform="matrix(1, 0, 0, 1, 200, 0)"><g clip-path="url(#b214513541)"><g clip-path="url(#a3e1c8f1d9)"><g transform="matrix(1, 0, 0, 1, 1, 1)"><g clip-path="url(#e7caf2fdfe)"><g clip-path="url(#2d99c2fa4f)"><g mask="url(#20f31fbf1a)"><g><g clip-path="url(#7acc0cbd87)"><g clip-path="url(#fc2a489356)"><path fill="url(#b0027466e3)" d="M 7.570312 0.117188 L 7.570312 123.867188 L 145 123.867188 L 145 0.117188 Z M 7.570312 0.117188 " fill-rule="nonzero"/></g></g></g></g></g></g></g></g></g></g></g></g></g></svg>