<svg xmlns="http://www.w3.org/2000/svg" xmlns:xlink="http://www.w3.org/1999/xlink" width="500" zoomAndPan="magnify" viewBox="0 0 375 374.999991" height="500" preserveAspectRatio="xMidYMid meet" version="1.0"><defs><filter x="0%" y="0%" width="100%" height="100%" id="ff9c0ccb49"><feColorMatrix values="0 0 0 0 1 0 0 0 0 1 0 0 0 0 1 0 0 0 1 0" color-interpolation-filters="sRGB"/></filter><g/><clipPath id="5c37a92911"><path d="M 147.410156 5.429688 L 188.902344 5.429688 L 188.902344 46.917969 L 147.410156 46.917969 Z M 147.410156 5.429688 " clip-rule="nonzero"/></clipPath><clipPath id="593c191bfb"><path d="M 199 0.121094 L 364 0.121094 L 364 125.640625 L 199 125.640625 Z M 199 0.121094 " clip-rule="nonzero"/></clipPath><clipPath id="72ac6ebaaf"><path d="M 1.4375 0.984375 L 165 0.984375 L 165 124.734375 L 1.4375 124.734375 Z M 1.4375 0.984375 " clip-rule="nonzero"/></clipPath><clipPath id="961ae34d09"><path d="M 0.4375 0.984375 L 164 0.984375 L 164 124.734375 L 0.4375 124.734375 Z M 0.4375 0.984375 " clip-rule="nonzero"/></clipPath><clipPath id="2bdacf5f28"><path d="M 12.441406 0.984375 L 164 0.984375 L 164 124.734375 L 12.441406 124.734375 Z M 12.441406 0.984375 " clip-rule="nonzero"/></clipPath><linearGradient x1="-44.654999" gradientTransform="matrix(0.748847, 0, 0, 0.745844, 45.880496, 46.82864)" y1="21.5" x2="157.735205" gradientUnits="userSpaceOnUse" y2="21.5" id="5191d7130a"><stop stop-opacity="1" stop-color="rgb(71.369934%, 16.079712%, 18.03894%)" offset="0"/><stop stop-opacity="1" stop-color="rgb(71.369934%, 16.079712%, 18.03894%)" offset="0.25"/><stop stop-opacity="1" stop-color="rgb(71.369934%, 16.079712%, 18.03894%)" offset="0.28125"/><stop stop-opacity="1" stop-color="rgb(71.369934%, 16.079712%, 18.03894%)" offset="0.296875"/><stop stop-opacity="1" stop-color="rgb(71.281433%, 16.053772%, 18.045044%)" offset="0.304688"/><stop stop-opacity="1" stop-color="rgb(70.489502%, 15.821838%, 18.107605%)" offset="0.308594"/><stop stop-opacity="1" stop-color="rgb(69.786072%, 15.615845%, 18.164062%)" offset="0.3125"/><stop stop-opacity="1" stop-color="rgb(69.082642%, 15.409851%, 18.218994%)" offset="0.316406"/><stop stop-opacity="1" stop-color="rgb(68.380737%, 15.203857%, 18.273926%)" offset="0.320312"/><stop stop-opacity="1" stop-color="rgb(67.677307%, 14.997864%, 18.328857%)" offset="0.324219"/><stop stop-opacity="1" stop-color="rgb(66.973877%, 14.79187%, 18.383789%)" offset="0.328125"/><stop stop-opacity="1" stop-color="rgb(66.270447%, 14.585876%, 18.438721%)" offset="0.332031"/><stop stop-opacity="1" stop-color="rgb(65.567017%, 14.379883%, 18.495178%)" offset="0.335938"/><stop stop-opacity="1" stop-color="rgb(64.863586%, 14.173889%, 18.55011%)" offset="0.339844"/><stop stop-opacity="1" stop-color="rgb(64.160156%, 13.967896%, 18.605042%)" offset="0.34375"/><stop stop-opacity="1" stop-color="rgb(63.456726%, 13.761902%, 18.659973%)" offset="0.347656"/><stop stop-opacity="1" stop-color="rgb(62.754822%, 13.555908%, 18.714905%)" offset="0.351562"/><stop stop-opacity="1" stop-color="rgb(62.051392%, 13.349915%, 18.769836%)" offset="0.355469"/><stop stop-opacity="1" stop-color="rgb(61.347961%, 13.143921%, 18.826294%)" offset="0.359375"/><stop stop-opacity="1" stop-color="rgb(60.644531%, 12.937927%, 18.881226%)" offset="0.363281"/><stop stop-opacity="1" stop-color="rgb(59.941101%, 12.731934%, 18.936157%)" offset="0.367188"/><stop stop-opacity="1" stop-color="rgb(59.237671%, 12.52594%, 18.991089%)" offset="0.371094"/><stop stop-opacity="1" stop-color="rgb(58.534241%, 12.319946%, 19.047546%)" offset="0.375"/><stop stop-opacity="1" stop-color="rgb(57.830811%, 12.113953%, 19.102478%)" offset="0.378906"/><stop stop-opacity="1" stop-color="rgb(57.128906%, 11.907959%, 19.15741%)" offset="0.382812"/><stop stop-opacity="1" stop-color="rgb(56.425476%, 11.701965%, 19.212341%)" offset="0.386719"/><stop stop-opacity="1" stop-color="rgb(55.722046%, 11.495972%, 19.267273%)" offset="0.390625"/><stop stop-opacity="1" stop-color="rgb(55.018616%, 11.289978%, 19.322205%)" offset="0.394531"/><stop stop-opacity="1" stop-color="rgb(54.315186%, 11.083984%, 19.378662%)" offset="0.398438"/><stop stop-opacity="1" stop-color="rgb(53.611755%, 10.877991%, 19.433594%)" offset="0.402344"/><stop stop-opacity="1" stop-color="rgb(52.908325%, 10.671997%, 19.488525%)" offset="0.40625"/><stop stop-opacity="1" stop-color="rgb(52.204895%, 10.466003%, 19.543457%)" offset="0.410156"/><stop stop-opacity="1" stop-color="rgb(51.502991%, 10.26001%, 19.598389%)" offset="0.414062"/><stop stop-opacity="1" stop-color="rgb(50.799561%, 10.054016%, 19.65332%)" offset="0.417969"/><stop stop-opacity="1" stop-color="rgb(50.09613%, 9.848022%, 19.709778%)" offset="0.421875"/><stop stop-opacity="1" stop-color="rgb(49.3927%, 9.642029%, 19.764709%)" offset="0.425781"/><stop stop-opacity="1" stop-color="rgb(48.68927%, 9.436035%, 19.819641%)" offset="0.429688"/><stop stop-opacity="1" stop-color="rgb(47.98584%, 9.230042%, 19.874573%)" offset="0.433594"/><stop stop-opacity="1" stop-color="rgb(47.28241%, 9.024048%, 19.929504%)" offset="0.4375"/><stop stop-opacity="1" stop-color="rgb(46.578979%, 8.818054%, 19.984436%)" offset="0.441406"/><stop stop-opacity="1" stop-color="rgb(45.877075%, 8.612061%, 20.040894%)" offset="0.445313"/><stop stop-opacity="1" stop-color="rgb(45.173645%, 8.406067%, 20.095825%)" offset="0.449219"/><stop stop-opacity="1" stop-color="rgb(44.470215%, 8.200073%, 20.150757%)" offset="0.453125"/><stop stop-opacity="1" stop-color="rgb(43.766785%, 7.99408%, 20.205688%)" offset="0.457031"/><stop stop-opacity="1" stop-color="rgb(43.063354%, 7.788086%, 20.262146%)" offset="0.460938"/><stop stop-opacity="1" stop-color="rgb(42.359924%, 7.582092%, 20.317078%)" offset="0.464844"/><stop stop-opacity="1" stop-color="rgb(41.656494%, 7.376099%, 20.372009%)" offset="0.46875"/><stop stop-opacity="1" stop-color="rgb(40.953064%, 7.170105%, 20.426941%)" offset="0.472656"/><stop stop-opacity="1" stop-color="rgb(40.25116%, 6.964111%, 20.481873%)" offset="0.476563"/><stop stop-opacity="1" stop-color="rgb(39.547729%, 6.758118%, 20.536804%)" offset="0.480469"/><stop stop-opacity="1" stop-color="rgb(38.844299%, 6.552124%, 20.593262%)" offset="0.484375"/><stop stop-opacity="1" stop-color="rgb(38.140869%, 6.34613%, 20.648193%)" offset="0.488281"/><stop stop-opacity="1" stop-color="rgb(37.437439%, 6.140137%, 20.703125%)" offset="0.492188"/><stop stop-opacity="1" stop-color="rgb(36.734009%, 5.934143%, 20.758057%)" offset="0.496094"/><stop stop-opacity="1" stop-color="rgb(36.030579%, 5.728149%, 20.812988%)" offset="0.5"/><stop stop-opacity="1" stop-color="rgb(35.327148%, 5.522156%, 20.86792%)" offset="0.503906"/><stop stop-opacity="1" stop-color="rgb(34.625244%, 5.316162%, 20.924377%)" offset="0.507812"/><stop stop-opacity="1" stop-color="rgb(33.921814%, 5.110168%, 20.979309%)" offset="0.511719"/><stop stop-opacity="1" stop-color="rgb(33.218384%, 4.904175%, 21.034241%)" offset="0.515625"/><stop stop-opacity="1" stop-color="rgb(32.514954%, 4.698181%, 21.089172%)" offset="0.519531"/><stop stop-opacity="1" stop-color="rgb(31.811523%, 4.493713%, 21.144104%)" offset="0.523438"/><stop stop-opacity="1" stop-color="rgb(31.108093%, 4.28772%, 21.199036%)" offset="0.527344"/><stop stop-opacity="1" stop-color="rgb(30.404663%, 4.081726%, 21.255493%)" offset="0.53125"/><stop stop-opacity="1" stop-color="rgb(29.701233%, 3.875732%, 21.310425%)" offset="0.535156"/><stop stop-opacity="1" stop-color="rgb(28.999329%, 3.669739%, 21.365356%)" offset="0.539062"/><stop stop-opacity="1" stop-color="rgb(28.295898%, 3.463745%, 21.420288%)" offset="0.542969"/><stop stop-opacity="1" stop-color="rgb(27.592468%, 3.257751%, 21.476746%)" offset="0.546875"/><stop stop-opacity="1" stop-color="rgb(26.889038%, 3.051758%, 21.531677%)" offset="0.550781"/><stop stop-opacity="1" stop-color="rgb(26.185608%, 2.845764%, 21.586609%)" offset="0.554688"/><stop stop-opacity="1" stop-color="rgb(25.482178%, 2.639771%, 21.641541%)" offset="0.558594"/><stop stop-opacity="1" stop-color="rgb(24.778748%, 2.433777%, 21.696472%)" offset="0.5625"/><stop stop-opacity="1" stop-color="rgb(24.075317%, 2.227783%, 21.751404%)" offset="0.566406"/><stop stop-opacity="1" stop-color="rgb(23.373413%, 2.02179%, 21.807861%)" offset="0.570312"/><stop stop-opacity="1" stop-color="rgb(22.669983%, 1.815796%, 21.862793%)" offset="0.574219"/><stop stop-opacity="1" stop-color="rgb(21.966553%, 1.609802%, 21.917725%)" offset="0.578125"/><stop stop-opacity="1" stop-color="rgb(21.263123%, 1.403809%, 21.972656%)" offset="0.582031"/><stop stop-opacity="1" stop-color="rgb(20.559692%, 1.197815%, 22.027588%)" offset="0.585938"/><stop stop-opacity="1" stop-color="rgb(19.856262%, 0.991821%, 22.08252%)" offset="0.589844"/><stop stop-opacity="1" stop-color="rgb(19.152832%, 0.785828%, 22.138977%)" offset="0.59375"/><stop stop-opacity="1" stop-color="rgb(18.449402%, 0.579834%, 22.193909%)" offset="0.597656"/><stop stop-opacity="1" stop-color="rgb(17.745972%, 0.37384%, 22.24884%)" offset="0.601562"/><stop stop-opacity="1" stop-color="rgb(17.092896%, 0.202942%, 22.302246%)" offset="0.605469"/><stop stop-opacity="1" stop-color="rgb(16.439819%, 0.0335693%, 22.355652%)" offset="0.609375"/><stop stop-opacity="1" stop-color="rgb(16.278076%, 0.218201%, 22.390747%)" offset="0.617188"/><stop stop-opacity="1" stop-color="rgb(15.957642%, 0.590515%, 22.460938%)" offset="0.625"/><stop stop-opacity="1" stop-color="rgb(15.635681%, 0.96283%, 22.531128%)" offset="0.632812"/><stop stop-opacity="1" stop-color="rgb(15.313721%, 1.333618%, 22.602844%)" offset="0.640625"/><stop stop-opacity="1" stop-color="rgb(14.99176%, 1.705933%, 22.673035%)" offset="0.648438"/><stop stop-opacity="1" stop-color="rgb(14.671326%, 2.078247%, 22.743225%)" offset="0.65625"/><stop stop-opacity="1" stop-color="rgb(14.349365%, 2.449036%, 22.813416%)" offset="0.664062"/><stop stop-opacity="1" stop-color="rgb(14.027405%, 2.82135%, 22.883606%)" offset="0.671875"/><stop stop-opacity="1" stop-color="rgb(13.70697%, 3.192139%, 22.953796%)" offset="0.679688"/><stop stop-opacity="1" stop-color="rgb(13.38501%, 3.564453%, 23.025513%)" offset="0.6875"/><stop stop-opacity="1" stop-color="rgb(13.063049%, 3.936768%, 23.095703%)" offset="0.695312"/><stop stop-opacity="1" stop-color="rgb(12.741089%, 4.307556%, 23.165894%)" offset="0.703125"/><stop stop-opacity="1" stop-color="rgb(12.420654%, 4.679871%, 23.236084%)" offset="0.710937"/><stop stop-opacity="1" stop-color="rgb(12.098694%, 5.052185%, 23.306274%)" offset="0.71875"/><stop stop-opacity="1" stop-color="rgb(11.776733%, 5.422974%, 23.376465%)" offset="0.726563"/><stop stop-opacity="1" stop-color="rgb(11.456299%, 5.795288%, 23.448181%)" offset="0.734375"/><stop stop-opacity="1" stop-color="rgb(11.134338%, 6.166077%, 23.518372%)" offset="0.742188"/><stop stop-opacity="1" stop-color="rgb(10.812378%, 6.538391%, 23.588562%)" offset="0.75"/><stop stop-opacity="1" stop-color="rgb(10.490417%, 6.910706%, 23.658752%)" offset="0.757813"/><stop stop-opacity="1" stop-color="rgb(10.169983%, 7.281494%, 23.728943%)" offset="0.765625"/><stop stop-opacity="1" stop-color="rgb(9.848022%, 7.653809%, 23.799133%)" offset="0.773438"/><stop stop-opacity="1" stop-color="rgb(9.526062%, 8.024597%, 23.87085%)" offset="0.78125"/><stop stop-opacity="1" stop-color="rgb(9.205627%, 8.396912%, 23.94104%)" offset="0.789062"/><stop stop-opacity="1" stop-color="rgb(8.883667%, 8.769226%, 24.01123%)" offset="0.796875"/><stop stop-opacity="1" stop-color="rgb(8.561707%, 9.140015%, 24.081421%)" offset="0.804688"/><stop stop-opacity="1" stop-color="rgb(8.239746%, 9.512329%, 24.151611%)" offset="0.8125"/><stop stop-opacity="1" stop-color="rgb(7.919312%, 9.884644%, 24.221802%)" offset="0.820312"/><stop stop-opacity="1" stop-color="rgb(7.597351%, 10.255432%, 24.293518%)" offset="0.828125"/><stop stop-opacity="1" stop-color="rgb(7.275391%, 10.627747%, 24.363708%)" offset="0.835938"/><stop stop-opacity="1" stop-color="rgb(6.954956%, 10.998535%, 24.433899%)" offset="0.84375"/><stop stop-opacity="1" stop-color="rgb(6.632996%, 11.37085%, 24.504089%)" offset="0.851562"/><stop stop-opacity="1" stop-color="rgb(6.311035%, 11.743164%, 24.57428%)" offset="0.859375"/><stop stop-opacity="1" stop-color="rgb(5.989075%, 12.113953%, 24.645996%)" offset="0.867188"/><stop stop-opacity="1" stop-color="rgb(5.66864%, 12.486267%, 24.716187%)" offset="0.875"/><stop stop-opacity="1" stop-color="rgb(5.34668%, 12.858582%, 24.786377%)" offset="0.882812"/><stop stop-opacity="1" stop-color="rgb(5.024719%, 13.22937%, 24.856567%)" offset="0.890625"/><stop stop-opacity="1" stop-color="rgb(4.704285%, 13.601685%, 24.926758%)" offset="0.898437"/><stop stop-opacity="1" stop-color="rgb(4.382324%, 13.972473%, 24.996948%)" offset="0.90625"/><stop stop-opacity="1" stop-color="rgb(4.071045%, 14.334106%, 25.065613%)" offset="0.9375"/><stop stop-opacity="1" stop-color="rgb(3.919983%, 14.509583%, 25.099182%)" offset="1"/></linearGradient><clipPath id="717b67a4ed"><rect x="0" width="164" y="0" height="125"/></clipPath><clipPath id="b24dba9fe8"><path d="M 0.4375 0.984375 L 164 0.984375 L 164 124.734375 L 0.4375 124.734375 Z M 0.4375 0.984375 " clip-rule="nonzero"/></clipPath><clipPath id="5fcb7f9429"><rect x="0" width="164" y="0" height="125"/></clipPath><clipPath id="f4f7dbf7a4"><rect x="0" width="164" y="0" height="125"/></clipPath><mask id="9e5fbc58be"><g filter="url(#ff9c0ccb49)"><g><g clip-path="url(#f4f7dbf7a4)"><g clip-path="url(#b24dba9fe8)"><g><g clip-path="url(#5fcb7f9429)"><g fill="#000000" fill-opacity="1"><g transform="translate(58.797927, 70.733087)"><g><path d="M 0.640625 -6.4375 C 0.640625 -7.769531 0.910156 -8.9375 1.453125 -9.9375 C 2.003906 -10.9375 2.765625 -11.703125 3.734375 -12.234375 C 4.710938 -12.773438 5.832031 -13.046875 7.09375 -13.046875 C 8.707031 -13.046875 10.054688 -12.625 11.140625 -11.78125 C 12.222656 -10.9375 12.9375 -9.742188 13.28125 -8.203125 L 9.078125 -8.203125 C 8.722656 -9.191406 8.039062 -9.6875 7.03125 -9.6875 C 6.3125 -9.6875 5.734375 -9.40625 5.296875 -8.84375 C 4.867188 -8.28125 4.65625 -7.476562 4.65625 -6.4375 C 4.65625 -5.382812 4.867188 -4.578125 5.296875 -4.015625 C 5.734375 -3.460938 6.3125 -3.1875 7.03125 -3.1875 C 8.039062 -3.1875 8.722656 -3.675781 9.078125 -4.65625 L 13.28125 -4.65625 C 12.9375 -3.144531 12.21875 -1.957031 11.125 -1.09375 C 10.039062 -0.238281 8.695312 0.1875 7.09375 0.1875 C 5.832031 0.1875 4.710938 -0.078125 3.734375 -0.609375 C 2.765625 -1.148438 2.003906 -1.921875 1.453125 -2.921875 C 0.910156 -3.921875 0.640625 -5.09375 0.640625 -6.4375 Z M 0.640625 -6.4375 "/></g></g></g><g fill="#000000" fill-opacity="1"><g transform="translate(72.736577, 70.733087)"><g><path d="M 7.28125 0.1875 C 6.019531 0.1875 4.882812 -0.078125 3.875 -0.609375 C 2.875 -1.148438 2.082031 -1.921875 1.5 -2.921875 C 0.925781 -3.921875 0.640625 -5.09375 0.640625 -6.4375 C 0.640625 -7.75 0.929688 -8.910156 1.515625 -9.921875 C 2.097656 -10.929688 2.894531 -11.703125 3.90625 -12.234375 C 4.925781 -12.773438 6.066406 -13.046875 7.328125 -13.046875 C 8.585938 -13.046875 9.722656 -12.773438 10.734375 -12.234375 C 11.753906 -11.703125 12.554688 -10.929688 13.140625 -9.921875 C 13.722656 -8.910156 14.015625 -7.75 14.015625 -6.4375 C 14.015625 -5.113281 13.71875 -3.945312 13.125 -2.9375 C 12.53125 -1.925781 11.722656 -1.148438 10.703125 -0.609375 C 9.679688 -0.078125 8.539062 0.1875 7.28125 0.1875 Z M 7.28125 -3.234375 C 8.03125 -3.234375 8.671875 -3.507812 9.203125 -4.0625 C 9.734375 -4.613281 10 -5.40625 10 -6.4375 C 10 -7.457031 9.738281 -8.242188 9.21875 -8.796875 C 8.707031 -9.359375 8.078125 -9.640625 7.328125 -9.640625 C 6.554688 -9.640625 5.914062 -9.363281 5.40625 -8.8125 C 4.90625 -8.269531 4.65625 -7.476562 4.65625 -6.4375 C 4.65625 -5.40625 4.90625 -4.613281 5.40625 -4.0625 C 5.90625 -3.507812 6.53125 -3.234375 7.28125 -3.234375 Z M 7.28125 -3.234375 "/></g></g></g><g fill="#000000" fill-opacity="1"><g transform="translate(87.41248, 70.733087)"><g><path d="M 9.265625 -13 C 10.773438 -13 11.976562 -12.507812 12.875 -11.53125 C 13.769531 -10.5625 14.21875 -9.222656 14.21875 -7.515625 L 14.21875 0 L 10.296875 0 L 10.296875 -6.984375 C 10.296875 -7.847656 10.070312 -8.515625 9.625 -8.984375 C 9.1875 -9.460938 8.59375 -9.703125 7.84375 -9.703125 C 7.082031 -9.703125 6.476562 -9.460938 6.03125 -8.984375 C 5.59375 -8.515625 5.375 -7.847656 5.375 -6.984375 L 5.375 0 L 1.421875 0 L 1.421875 -12.859375 L 5.375 -12.859375 L 5.375 -11.15625 C 5.769531 -11.71875 6.304688 -12.164062 6.984375 -12.5 C 7.660156 -12.832031 8.421875 -13 9.265625 -13 Z M 9.265625 -13 "/></g></g></g><g fill="#000000" fill-opacity="1"><g transform="translate(102.94083, 70.733087)"><g><path d="M 8.59375 -3.34375 L 8.59375 0 L 6.59375 0 C 5.164062 0 4.050781 -0.347656 3.25 -1.046875 C 2.445312 -1.742188 2.046875 -2.882812 2.046875 -4.46875 L 2.046875 -9.59375 L 0.484375 -9.59375 L 0.484375 -12.859375 L 2.046875 -12.859375 L 2.046875 -16 L 6 -16 L 6 -12.859375 L 8.578125 -12.859375 L 8.578125 -9.59375 L 6 -9.59375 L 6 -4.421875 C 6 -4.035156 6.085938 -3.757812 6.265625 -3.59375 C 6.453125 -3.425781 6.757812 -3.34375 7.1875 -3.34375 Z M 8.59375 -3.34375 "/></g></g></g><g fill="#000000" fill-opacity="1"><g transform="translate(112.294703, 70.733087)"><g><path d="M 13.546875 -6.640625 C 13.546875 -6.265625 13.523438 -5.878906 13.484375 -5.484375 L 4.5625 -5.484375 C 4.625 -4.679688 4.878906 -4.066406 5.328125 -3.640625 C 5.785156 -3.222656 6.34375 -3.015625 7 -3.015625 C 7.988281 -3.015625 8.675781 -3.429688 9.0625 -4.265625 L 13.25 -4.265625 C 13.03125 -3.421875 12.640625 -2.660156 12.078125 -1.984375 C 11.523438 -1.304688 10.828125 -0.773438 9.984375 -0.390625 C 9.140625 -0.00390625 8.191406 0.1875 7.140625 0.1875 C 5.878906 0.1875 4.757812 -0.078125 3.78125 -0.609375 C 2.800781 -1.148438 2.03125 -1.921875 1.46875 -2.921875 C 0.914062 -3.921875 0.640625 -5.09375 0.640625 -6.4375 C 0.640625 -7.769531 0.910156 -8.9375 1.453125 -9.9375 C 2.003906 -10.9375 2.769531 -11.703125 3.75 -12.234375 C 4.738281 -12.773438 5.867188 -13.046875 7.140625 -13.046875 C 8.390625 -13.046875 9.5 -12.785156 10.46875 -12.265625 C 11.4375 -11.742188 12.191406 -11 12.734375 -10.03125 C 13.273438 -9.0625 13.546875 -7.929688 13.546875 -6.640625 Z M 9.515625 -7.671875 C 9.515625 -8.347656 9.285156 -8.882812 8.828125 -9.28125 C 8.367188 -9.6875 7.789062 -9.890625 7.09375 -9.890625 C 6.4375 -9.890625 5.878906 -9.695312 5.421875 -9.3125 C 4.972656 -8.925781 4.695312 -8.378906 4.59375 -7.671875 Z M 9.515625 -7.671875 "/></g></g></g><g fill="#000000" fill-opacity="1"><g transform="translate(126.486796, 70.733087)"><g><path d="M 9.265625 -13 C 10.773438 -13 11.976562 -12.507812 12.875 -11.53125 C 13.769531 -10.5625 14.21875 -9.222656 14.21875 -7.515625 L 14.21875 0 L 10.296875 0 L 10.296875 -6.984375 C 10.296875 -7.847656 10.070312 -8.515625 9.625 -8.984375 C 9.1875 -9.460938 8.59375 -9.703125 7.84375 -9.703125 C 7.082031 -9.703125 6.476562 -9.460938 6.03125 -8.984375 C 5.59375 -8.515625 5.375 -7.847656 5.375 -6.984375 L 5.375 0 L 1.421875 0 L 1.421875 -12.859375 L 5.375 -12.859375 L 5.375 -11.15625 C 5.769531 -11.71875 6.304688 -12.164062 6.984375 -12.5 C 7.660156 -12.832031 8.421875 -13 9.265625 -13 Z M 9.265625 -13 "/></g></g></g><g fill="#000000" fill-opacity="1"><g transform="translate(142.015146, 70.733087)"><g><path d="M 8.59375 -3.34375 L 8.59375 0 L 6.59375 0 C 5.164062 0 4.050781 -0.347656 3.25 -1.046875 C 2.445312 -1.742188 2.046875 -2.882812 2.046875 -4.46875 L 2.046875 -9.59375 L 0.484375 -9.59375 L 0.484375 -12.859375 L 2.046875 -12.859375 L 2.046875 -16 L 6 -16 L 6 -12.859375 L 8.578125 -12.859375 L 8.578125 -9.59375 L 6 -9.59375 L 6 -4.421875 C 6 -4.035156 6.085938 -3.757812 6.265625 -3.59375 C 6.453125 -3.425781 6.757812 -3.34375 7.1875 -3.34375 Z M 8.59375 -3.34375 "/></g></g></g></g></g></g></g></g></g></mask><clipPath id="cca7649721"><path d="M 12.441406 0.984375 L 164 0.984375 L 164 124.734375 L 12.441406 124.734375 Z M 12.441406 0.984375 " clip-rule="nonzero"/></clipPath><clipPath id="acaa9f1ea1"><rect x="0" width="164" y="0" height="125"/></clipPath><clipPath id="544d739589"><rect x="0" width="164" y="0" height="125"/></clipPath><clipPath id="9224f37d4d"><rect x="0" width="165" y="0" height="126"/></clipPath><clipPath id="0ecd863433"><rect x="0" width="364" y="0" height="126"/></clipPath></defs><g transform="matrix(1, 0, 0, 1, 11, 123)"><g clip-path="url(#0ecd863433)"><g fill="#000000" fill-opacity="1"><g transform="translate(0.288236, 80.834478)"><g><path d="M 30.875 -32.359375 L 30.875 0 L 23 0 L 23 -13.328125 L 10.734375 -13.328125 L 10.734375 0 L 2.859375 0 L 2.859375 -32.359375 L 10.734375 -32.359375 L 10.734375 -19.6875 L 23 -19.6875 L 23 -32.359375 Z M 30.875 -32.359375 "/></g></g></g><g fill="#000000" fill-opacity="1"><g transform="translate(33.984483, 80.834478)"><g><path d="M 18.15625 0.328125 C 15.113281 0.328125 12.320312 -0.378906 9.78125 -1.796875 C 7.25 -3.210938 5.238281 -5.1875 3.75 -7.71875 C 2.257812 -10.25 1.515625 -13.097656 1.515625 -16.265625 C 1.515625 -19.429688 2.257812 -22.273438 3.75 -24.796875 C 5.238281 -27.316406 7.25 -29.28125 9.78125 -30.6875 C 12.320312 -32.101562 15.113281 -32.8125 18.15625 -32.8125 C 21.195312 -32.8125 23.984375 -32.101562 26.515625 -30.6875 C 29.054688 -29.28125 31.054688 -27.316406 32.515625 -24.796875 C 33.972656 -22.273438 34.703125 -19.429688 34.703125 -16.265625 C 34.703125 -13.097656 33.960938 -10.25 32.484375 -7.71875 C 31.015625 -5.1875 29.019531 -3.210938 26.5 -1.796875 C 23.976562 -0.378906 21.195312 0.328125 18.15625 0.328125 Z M 18.15625 -6.875 C 20.738281 -6.875 22.804688 -7.734375 24.359375 -9.453125 C 25.910156 -11.171875 26.6875 -13.441406 26.6875 -16.265625 C 26.6875 -19.128906 25.910156 -21.410156 24.359375 -23.109375 C 22.804688 -24.816406 20.738281 -25.671875 18.15625 -25.671875 C 15.550781 -25.671875 13.472656 -24.828125 11.921875 -23.140625 C 10.367188 -21.453125 9.59375 -19.160156 9.59375 -16.265625 C 9.59375 -13.410156 10.367188 -11.128906 11.921875 -9.421875 C 13.472656 -7.722656 15.550781 -6.875 18.15625 -6.875 Z M 18.15625 -6.875 "/></g></g></g><g fill="#000000" fill-opacity="1"><g transform="translate(70.216018, 80.834478)"><g><path d="M 19.359375 0 L 12.625 -12.21875 L 10.734375 -12.21875 L 10.734375 0 L 2.859375 0 L 2.859375 -32.359375 L 16.09375 -32.359375 C 18.632812 -32.359375 20.804688 -31.910156 22.609375 -31.015625 C 24.410156 -30.128906 25.753906 -28.910156 26.640625 -27.359375 C 27.535156 -25.804688 27.984375 -24.078125 27.984375 -22.171875 C 27.984375 -20.015625 27.375 -18.09375 26.15625 -16.40625 C 24.945312 -14.71875 23.15625 -13.519531 20.78125 -12.8125 L 28.25 0 Z M 10.734375 -17.796875 L 15.625 -17.796875 C 17.070312 -17.796875 18.15625 -18.144531 18.875 -18.84375 C 19.59375 -19.550781 19.953125 -20.550781 19.953125 -21.84375 C 19.953125 -23.070312 19.59375 -24.039062 18.875 -24.75 C 18.15625 -25.457031 17.070312 -25.8125 15.625 -25.8125 L 10.734375 -25.8125 Z M 10.734375 -17.796875 "/></g></g></g><g fill="#000000" fill-opacity="1"><g transform="translate(100.27068, 80.834478)"><g><path d="M 23 -5.71875 L 10.921875 -5.71875 L 8.984375 0 L 0.734375 0 L 12.4375 -32.359375 L 21.578125 -32.359375 L 33.28125 0 L 24.9375 0 Z M 20.96875 -11.796875 L 16.96875 -23.640625 L 13 -11.796875 Z M 20.96875 -11.796875 "/></g></g></g><g fill="#000000" fill-opacity="1"><g transform="translate(134.243511, 80.834478)"><g><path d="M 11.25 -6.453125 L 25.171875 -6.453125 L 25.171875 0 L 2.296875 0 L 2.296875 -5.984375 L 16.125 -25.90625 L 2.296875 -25.90625 L 2.296875 -32.359375 L 25.171875 -32.359375 L 25.171875 -26.359375 Z M 11.25 -6.453125 "/></g></g></g><g fill="#000000" fill-opacity="1"><g transform="translate(161.716787, 80.834478)"><g><path d="M 10.734375 -32.359375 L 10.734375 0 L 2.859375 0 L 2.859375 -32.359375 Z M 10.734375 -32.359375 "/></g></g></g><g fill="#000000" fill-opacity="1"><g transform="translate(175.315134, 80.834478)"><g><path d="M 18.15625 0.328125 C 15.113281 0.328125 12.320312 -0.378906 9.78125 -1.796875 C 7.25 -3.210938 5.238281 -5.1875 3.75 -7.71875 C 2.257812 -10.25 1.515625 -13.097656 1.515625 -16.265625 C 1.515625 -19.429688 2.257812 -22.273438 3.75 -24.796875 C 5.238281 -27.316406 7.25 -29.28125 9.78125 -30.6875 C 12.320312 -32.101562 15.113281 -32.8125 18.15625 -32.8125 C 21.195312 -32.8125 23.984375 -32.101562 26.515625 -30.6875 C 29.054688 -29.28125 31.054688 -27.316406 32.515625 -24.796875 C 33.972656 -22.273438 34.703125 -19.429688 34.703125 -16.265625 C 34.703125 -13.097656 33.960938 -10.25 32.484375 -7.71875 C 31.015625 -5.1875 29.019531 -3.210938 26.5 -1.796875 C 23.976562 -0.378906 21.195312 0.328125 18.15625 0.328125 Z M 18.15625 -6.875 C 20.738281 -6.875 22.804688 -7.734375 24.359375 -9.453125 C 25.910156 -11.171875 26.6875 -13.441406 26.6875 -16.265625 C 26.6875 -19.128906 25.910156 -21.410156 24.359375 -23.109375 C 22.804688 -24.816406 20.738281 -25.671875 18.15625 -25.671875 C 15.550781 -25.671875 13.472656 -24.828125 11.921875 -23.140625 C 10.367188 -21.453125 9.59375 -19.160156 9.59375 -16.265625 C 9.59375 -13.410156 10.367188 -11.128906 11.921875 -9.421875 C 13.472656 -7.722656 15.550781 -6.875 18.15625 -6.875 Z M 18.15625 -6.875 "/></g></g></g><g fill="#000000" fill-opacity="1"><g transform="translate(211.546669, 80.834478)"><g><path d="M 31.796875 0 L 23.921875 0 L 10.734375 -19.953125 L 10.734375 0 L 2.859375 0 L 2.859375 -32.359375 L 10.734375 -32.359375 L 23.921875 -12.3125 L 23.921875 -32.359375 L 31.796875 -32.359375 Z M 31.796875 0 "/></g></g></g><g clip-path="url(#5c37a92911)"><path fill="#000000" d="M 168.449219 16.417969 C 168.511719 16.992188 168.621094 17.554688 168.78125 18.113281 C 168.9375 18.667969 169.140625 19.203125 169.390625 19.726562 C 169.640625 20.246094 169.933594 20.742188 170.265625 21.214844 C 170.601562 21.683594 170.972656 22.125 171.378906 22.53125 C 171.789062 22.941406 172.226562 23.3125 172.699219 23.644531 C 173.171875 23.980469 173.667969 24.269531 174.1875 24.519531 C 174.707031 24.769531 175.246094 24.972656 175.800781 25.132812 C 176.355469 25.292969 176.921875 25.402344 177.496094 25.464844 C 180.273438 25.769531 183.855469 25.964844 188.484375 25.964844 C 183.855469 25.964844 180.273438 26.160156 177.496094 26.464844 C 176.921875 26.527344 176.355469 26.640625 175.800781 26.796875 C 175.246094 26.957031 174.707031 27.160156 174.1875 27.410156 C 173.667969 27.660156 173.171875 27.953125 172.699219 28.285156 C 172.226562 28.617188 171.789062 28.988281 171.378906 29.398438 C 170.972656 29.804688 170.601562 30.246094 170.265625 30.71875 C 169.933594 31.1875 169.640625 31.683594 169.390625 32.207031 C 169.140625 32.726562 168.9375 33.265625 168.78125 33.820312 C 168.621094 34.375 168.511719 34.9375 168.449219 35.511719 C 168.144531 38.289062 167.949219 41.875 167.949219 46.503906 C 167.949219 41.875 167.75 38.289062 167.445312 35.511719 C 167.382812 34.9375 167.273438 34.375 167.113281 33.820312 C 166.957031 33.265625 166.753906 32.726562 166.503906 32.207031 C 166.253906 31.683594 165.960938 31.1875 165.628906 30.71875 C 165.292969 30.246094 164.921875 29.804688 164.515625 29.398438 C 164.105469 28.988281 163.667969 28.617188 163.195312 28.285156 C 162.722656 27.953125 162.226562 27.660156 161.707031 27.410156 C 161.1875 27.160156 160.648438 26.957031 160.09375 26.796875 C 159.539062 26.640625 158.972656 26.527344 158.398438 26.464844 C 155.621094 26.160156 152.039062 25.964844 147.410156 25.964844 C 152.039062 25.964844 155.621094 25.769531 158.398438 25.464844 C 158.972656 25.402344 159.539062 25.292969 160.09375 25.132812 C 160.648438 24.972656 161.1875 24.769531 161.707031 24.519531 C 162.226562 24.269531 162.722656 23.980469 163.195312 23.644531 C 163.667969 23.3125 164.105469 22.941406 164.515625 22.53125 C 164.921875 22.125 165.292969 21.683594 165.628906 21.214844 C 165.960938 20.742188 166.253906 20.246094 166.503906 19.726562 C 166.753906 19.203125 166.957031 18.667969 167.113281 18.113281 C 167.273438 17.554688 167.382812 16.992188 167.445312 16.417969 C 167.75 13.640625 167.949219 10.054688 167.949219 5.429688 C 167.949219 10.054688 168.144531 13.640625 168.449219 16.417969 Z M 168.449219 16.417969 " fill-opacity="1" fill-rule="nonzero"/></g><g clip-path="url(#593c191bfb)"><g transform="matrix(1, 0, 0, 1, 199, 0)"><g clip-path="url(#9224f37d4d)"><g clip-path="url(#72ac6ebaaf)"><g transform="matrix(1, 0, 0, 1, 1, 0)"><g clip-path="url(#544d739589)"><g clip-path="url(#961ae34d09)"><g mask="url(#9e5fbc58be)"><g><g clip-path="url(#acaa9f1ea1)"><g clip-path="url(#cca7649721)"><path fill="url(#5191d7130a)" d="M 12.441406 0.984375 L 12.441406 124.734375 L 164 124.734375 L 164 0.984375 Z M 12.441406 0.984375 " fill-rule="nonzero"/></g></g></g></g></g></g></g></g></g></g></g></g></g></svg>